<svg xmlns="http://www.w3.org/2000/svg" viewBox="1195.3 -221.3 684.1 1032.6"><style>.st0{fill:#2B2A29 ;} .st1{fill:#86C06B ;} .st2{fill:#D5A16C ;} .st3{fill:#FEFEFE ;} .st4{fill:#96C881 ;}</style><g id="Layer_7"><path class="st0" d="M1637.6 559h-3.3v136.8h3.3z"/><path id="_x31_" class="st0" d="M1634.3 561.6l-2.6-2.6 2.6-2.6h3.2v5.2h-3.2zm0-5.2v5.2c-1.4 0-2.6-1.2-2.6-2.6 0-1.4 1.2-2.6 2.6-2.6zm2.5 139.4l-2.5 2.6-2.6-2.6V559h5.1v136.8zm-5.1 0h5.1c0 1.4-1.2 2.6-2.5 2.6-1.4 0-2.6-1.1-2.6-2.6zm5.9-2.6l2.6 2.6-2.6 2.6h-3.2v-5.2h3.2zm0 5.2v-5.2c1.4 0 2.6 1.2 2.6 2.6-.1 1.5-1.2 2.6-2.6 2.6zM1635 559l2.5-2.6 2.6 2.6v136.8h-5.1V559zm5.1 0h-5.1c0-1.4 1.2-2.6 2.5-2.6 1.5 0 2.6 1.2 2.6 2.6z"/></g><g id="Layer_6"><path class="st0" d="M1468.5 550.7h-3.2v136.8h3.2z"/><path id="_x31__1_" class="st0" d="M1465.3 553.3l-2.6-2.6 2.6-2.6h3.2v5.2h-3.2zm0-5.2v5.2c-1.4 0-2.6-1.2-2.6-2.6 0-1.5 1.1-2.6 2.6-2.6zm2.5 139.4l-2.5 2.6-2.6-2.6V550.7h5.1v136.8zm-5.1 0h5.1c0 1.4-1.2 2.6-2.5 2.6-1.5 0-2.6-1.2-2.6-2.6zm5.8-2.6l2.6 2.6-2.6 2.6h-3.2v-5.2h3.2zm0 5.2v-5.2c1.4 0 2.6 1.2 2.6 2.6s-1.2 2.6-2.6 2.6zm-2.5-139.4l2.5-2.6 2.6 2.6v136.8h-5.1V550.7zm5.1 0h-5.1c0-1.4 1.2-2.6 2.5-2.6 1.4 0 2.6 1.1 2.6 2.6z"/></g><g id="Layer_5"><path class="st1" d="M1535.1-210.1c182.5 0 330.5 136.1 330.5 304 0 93-175.7 386.7-216.4 464.3-15.9 30.4-182.4 32.1-203.5-8.1-32.7-62.1-241.2-381.9-241.2-456.2.1-167.9 148-304 330.6-304z"/><path id="_x31__2_" class="st0" d="M1868.2 93.9h-5.1l-.4-15.6-1.2-15.3-2.1-15-2.9-14.8-3.7-14.6-4.4-14.3-5.2-14-5.8-13.7-6.6-13.3-7.3-13-7.9-12.7-8.5-12.2-9.1-11.9-9.7-11.4-10.3-10.9-10.9-10.4-11.4-10-11.9-9.4-12.4-9-12.9-8.4-13.3-7.8-13.8-7.3-14.1-6.7-14.5-6-14.9-5.4-15.3-4.8-15.6-4-15.8-3.4-16.2-2.7-16.4-1.9-16.7-1.2-16.8-.4v-5.1l17.1.4 16.9 1.2 16.6 1.9 16.4 2.7 16.1 3.5 15.8 4.1 15.5 4.8 15.1 5.5 14.8 6.1 14.3 6.8 14 7.4 13.5 7.9 13.1 8.6 12.6 9.1 12.1 9.6 11.5 10.2 11 10.6 10.5 11.2 9.9 11.6 9.3 12 8.7 12.5 8 12.8 7.4 13.2 6.6 13.6 6 13.9 5.3 14.3 4.5 14.5 3.7 14.8 3 15.1 2.1 15.3 1.3 15.6.4 15.8zm-216.7 465.5l-4.5-2.4 4.2-7.9 4.9-9.1 5.7-10.2 6.2-11.2 6.8-12.2 7.3-13.1 7.8-13.9 8.1-14.6 8.5-15.3 8.7-15.9 9-16.3 9.1-16.8 9.3-17.1 9.3-17.4 9.3-17.6 9.2-17.7 9.1-17.8 8.9-17.7 8.7-17.6 8.4-17.4 8.1-17.1 7.6-16.8 7.2-16.4 6.7-15.9 6-15.3 5.5-14.7 4.8-14 4-13.2 3.2-12.2 2.4-11.2 1.4-10.2.5-9h5.1l-.5 9.5-1.5 10.6-2.4 11.6-3.3 12.5-4.1 13.3-4.8 14.1-5.5 14.8-6.1 15.5-6.8 16-7.2 16.5-7.7 16.8-8.1 17.3-8.4 17.4-8.7 17.7-9 17.7-9.1 17.8-9.2 17.8-9.3 17.6-9.4 17.4-9.2 17.1-9.2 16.8-8.9 16.4-8.8 15.8-8.5 15.3-8.1 14.6-7.8 13.9-7.3 13.1-6.8 12.2-6.2 11.2-5.6 10.2-4.9 9.1-4.1 7.6zm-208.1-8.1l4.5-2.4 2.2 3.2 2.9 3.1 3.7 3 4.4 2.8 5 2.6 5.7 2.4 6.3 2.2 6.7 1.9 7.2 1.8 7.5 1.5 7.8 1.3 8.1 1.1 8.3.9 8.5.6 8.6.4 8.6.3h8.6l8.5-.1 8.4-.4 8.2-.5 8-.8 7.7-.9 7.3-1.2 6.9-1.3 6.5-1.5 6-1.7 5.3-1.8 4.8-2 4-2.1 3.2-2.2 2.4-2.3 1.6-2.2 4.5 2.4-2.2 3.2-3.1 2.9-3.8 2.7-4.5 2.4-5.1 2.1-5.6 1.9-6.3 1.7-6.6 1.6-7.1 1.4-7.6 1.2-7.8.9-8.1.8-8.4.5-8.6.4-8.6.2-8.7-.1-8.7-.3-8.7-.4-8.6-.7-8.5-.9-8.2-1.2-8.1-1.3-7.7-1.6-7.3-1.8-7-2-6.5-2.3-6-2.5-5.4-2.7-4.9-3.1-4.2-3.4-3.5-3.7-2.5-4zM1202 93.9h5.1l.6 7.3 1.7 8.8 2.8 10.2 3.8 11.3 4.8 12.4 5.6 13.5 6.4 14.3 7.2 15.1 7.8 15.8 8.4 16.5 8.9 16.9 9.4 17.4 9.8 17.7 10.1 18 10.3 18.1 10.5 18.2 10.5 18.1 10.7 18 10.5 17.8 10.4 17.5 10.2 17.1 10 16.6 9.7 16 9.2 15.3 8.9 14.5 8.3 13.7 7.6 12.7 7 11.7 6.3 10.5 5.4 9.4 4.5 8 3.6 6.6-4.5 2.4-3.5-6.6-4.5-7.9-5.4-9.3-6.2-10.5-7-11.7-7.6-12.7-8.3-13.7-8.9-14.5-9.2-15.3-9.7-16-10-16.6-10.2-17.1-10.4-17.5L1332 364l-10.6-18-10.6-18.1-10.5-18.2-10.3-18.1-10.1-18-9.8-17.8-9.4-17.4-8.9-17-8.4-16.6-7.9-15.8-7.2-15.3-6.4-14.4-5.7-13.5-4.8-12.6-3.9-11.5-2.9-10.4-1.8-9.3-.8-8.1zm333.1-306.5v5.1l-16.9.4-16.6 1.2-16.4 1.9-16.2 2.7-15.8 3.4-15.6 4-15.2 4.8-14.9 5.4-14.5 6-14.2 6.7-13.7 7.3-13.3 7.8-12.9 8.4-12.4 9-11.9 9.4-11.4 10-10.9 10.4-10.3 10.9-9.7 11.4-9.1 11.9-8.6 12.2-7.8 12.7-7.3 13-6.6 13.3-5.9 13.6-5.2 14-4.4 14.3-3.7 14.6-2.9 14.8-2.1 15-1.3 15.3-.4 15.6h-5.1l.4-15.8 1.3-15.6 2.2-15.3 2.9-15.1 3.7-14.8 4.5-14.5 5.2-14.3 6-13.9 6.7-13.6 7.3-13.2 8.1-12.8 8.6-12.5 9.3-12 9.9-11.6 10.4-11.2 11-10.6 11.6-10.2 12.1-9.6 12.6-9.1 13-8.6 13.5-7.9 14-7.4 14.3-6.8 14.8-6.1 15.1-5.5 15.5-4.8 15.8-4.1 16.1-3.5 16.4-2.7 16.6-1.9 16.9-1.2 17.4-.3z"/></g><g id="Layer_4"><path class="st2" d="M1471.3 687.5h160.5c7.8 0 14.3 6.4 14.3 14.3v84.5c0 7.8-6.4 14.3-14.3 14.3h-160.5c-7.8 0-14.3-6.4-14.3-14.3v-84.5c.1-7.9 6.5-14.3 14.3-14.3z"/><path id="_x31__3_" class="st0" d="M1631.8 690.1h-160.5V685h160.5v5.1zm16.8 11.6h-5.2v-.6l-.1-.6-.1-.6-.1-.6-.1-.6-.1-.6-.2-.5-.2-.6-.2-.5-.2-.5-.3-.5-.4-.4-.3-.5-.4-.4-.4-.4-.4-.4-.4-.4-.4-.4-.4-.4-.5-.3-.4-.4-.5-.3-.5-.2-.5-.2-.6-.2-.5-.2-.6-.1-.6-.1-.6-.1-.6-.1-.6-.1h-.6v-5.1h.9l.9.1.8.1.9.1.8.2.8.2.8.3.8.3.7.4.7.4.7.4.7.4.6.4.6.5.6.6.6.5.6.6.5.6.5.6.5.6.4.6.4.7.4.7.3.8.3.7.3.8.2.8.2.8.1.9.1.9v.8l.3 1.1zm-5.1 84.5v-84.5h5.2v84.5h-5.2zm-11.7 16.7v-5.1h.6l.6-.1.6-.1.6-.1.6-.1.6-.1.5-.2.6-.2.5-.2.5-.2.5-.3.4-.4.5-.3.4-.4.4-.4.4-.4.4-.4.4-.4.4-.4.3-.5.4-.4.3-.5.2-.5.2-.5.2-.6.2-.5.1-.6.1-.6.1-.6.1-.6.1-.6v-.6h5.2l-.1.9v.8l-.1.9-.1.9-.2.8-.2.8-.3.8-.3.7-.3.8-.4.7-.4.7-.4.6-.5.6-.5.6-.5.6-.6.6-.6.5-.6.6-.6.5-.6.4-.7.4-.7.4-.7.4-.7.4-.8.3-.8.3-.8.2-.8.2-.9.1-.8.1-.9.1h-1.1v.2zm-160.5-5.1h160.5v5.1h-160.5v-5.1zm-16.8-11.6h5.1l.1.6v.6l.1.6.1.6.1.6.1.6.1.5.2.6.3.5.2.5.3.5.3.4.4.5.4.4.4.4.4.4.4.4.4.4.4.4.4.3.5.4.5.3.5.2.5.2.5.2.6.2.6.1.5.1.6.1.6.1.6.1h.6v5.1h-.9l-.9-.1-.9-.1-.8-.1-.8-.2-.9-.2-.7-.3-.8-.3-.7-.4-.8-.4-.6-.4-.7-.4-.6-.4-.6-.5-.6-.6-.6-.5-.6-.6-.5-.6-.5-.6-.5-.6-.4-.6-.4-.7-.4-.7-.4-.8-.3-.7-.2-.8-.3-.8-.1-.8-.1-.9-.1-.9-.1-.8v-1.1zm5.1-84.5v84.5h-5.1v-84.5h5.1zm11.7-16.8v5.1h-.6l-.6.1-.6.1-.6.1-.5.1-.6.1-.6.2-.5.2-.5.2-.5.2-.5.3-.5.4-.4.3-.4.4-.4.4-.4.4-.4.4-.4.4-.4.4-.4.5-.3.4-.3.5-.2.5-.3.5-.2.6-.1.5-.1.6-.1.6-.1.6-.1.6v.6l-.1.6h-5.1v-.9l.1-.8.1-.9.1-.9.1-.8.3-.8.2-.8.3-.7.4-.8.4-.7.4-.7.4-.6.5-.6.5-.6.5-.6.6-.6.6-.5.6-.6.6-.5.6-.4.7-.4.6-.4.8-.4.7-.4.8-.3.7-.3.9-.2.8-.2.8-.1.9-.1.9-.1h.9v-.2z"/></g><g id="Layer_3"><path class="st3" d="M1535.1-210.1c133.9 0 242.5 136.1 242.5 304 0 93-128.9 386.7-158.8 464.3-11.7 30.4-133.8 32.1-149.3-8.1-24-62.1-177-381.9-177-456.2 0-167.9 108.6-304 242.6-304z"/><path id="_x31__4_" class="st0" d="M1780.2 93.9h-5.1l-.4-15.6-.9-15.3-1.6-15.1-2.1-14.8-2.7-14.6-3.3-14.3-3.7-14-4.3-13.7-4.8-13.4-5.3-13-5.8-12.7-6.3-12.2-6.7-11.8-7.1-11.4-7.6-10.9-8-10.4-8.4-9.9-8.7-9.5-9.1-8.9-9.4-8.4-9.7-7.8-10-7.3-10.4-6.6-10.7-6-10.9-5.4-11.1-4.8-11.4-4-11.6-3.3-11.8-2.7-12-1.9-12.2-1.2-12.3-.4v-5.1l12.6.4 12.5 1.2 12.3 1.9 12.1 2.7 11.9 3.4 11.6 4.2 11.4 4.8 11.2 5.5 10.9 6.1 10.5 6.8 10.3 7.4 9.9 8 9.6 8.6 9.2 9.1 8.9 9.6 8.6 10.2 8.1 10.6 7.7 11.2 7.3 11.6 6.8 12 6.4 12.4 5.8 12.8 5.4 13.2 4.9 13.5 4.4 13.9 3.8 14.3 3.3 14.5 2.7 14.8 2.2 15 1.5 15.3 1 15.6.6 15.8zm-159 465.3l-4.8-1.9 3.1-7.9 3.6-9.1 4.1-10.2 4.6-11.2 5-12.2 5.3-13 5.7-13.9 6-14.6 6.3-15.3 6.4-15.8 6.6-16.3 6.7-16.8 6.8-17.1 6.8-17.4 6.8-17.6 6.8-17.8 6.7-17.7 6.6-17.8 6.4-17.6 6.1-17.5 6-17.1 5.6-16.8 5.3-16.4 4.9-15.9 4.5-15.3 4-14.7 3.5-14 3-13.2 2.4-12.3 1.7-11.3 1.1-10.2.4-9.1h5.1l-.4 9.4-1.2 10.6-1.7 11.5-2.4 12.4-3 13.3-3.5 14.1-4 14.8-4.5 15.5-4.9 16-5.3 16.4-5.6 16.9-6 17.2-6.1 17.5-6.4 17.6-6.6 17.8-6.7 17.8-6.8 17.7-6.8 17.6-6.8 17.4-6.8 17.1-6.7 16.8-6.6 16.4-6.4 15.8-6.3 15.3-6 14.6-5.7 13.9-5.3 13-5 12.2-4.8 11.2-4.1 10.2-3.6 9.1-3.1 7.9zm-154.1-8.2l4.8-1.9 1.6 3.3 2.2 3.1 2.7 2.9 3.2 2.7 3.7 2.6 4.1 2.4 4.5 2.1 4.8 1.9 5.3 1.7 5.5 1.5 5.7 1.3 5.9 1.1 6 .9 6.2.6 6.3.4 6.3.3h6.3l6.2-.1 6.1-.4 6-.5 5.8-.8 5.6-.9 5.3-1.1 5-1.3 4.7-1.5 4.3-1.7 3.9-1.8 3.4-1.9 2.9-2 2.3-2.2 1.7-2.2 1.2-2.3 4.8 1.9-1.7 3.2-2.3 3-2.8 2.7-3.4 2.4-3.8 2.2-4.2 1.9-4.6 1.8-5 1.5-5.3 1.4-5.5 1.2-5.8 1-6 .8-6.2.5-6.3.4-6.4.2-6.4-.1-6.4-.3-6.5-.4-6.3-.7-6.3-.9-6-1.2-6-1.4-5.7-1.5-5.5-1.9-5.2-2-4.8-2.3-4.5-2.6-4-2.8-3.6-3.1-3.2-3.5-2.5-3.7-2.1-3.9zM1290 93.9h5.1l.4 7.4 1.2 8.8 2.1 10.2 2.8 11.4 3.5 12.5 4.1 13.4 4.8 14.3 5.3 15.1 5.8 15.8 6.2 16.4 6.6 17 6.8 17.4 7.2 17.7 7.3 18 7.6 18.1 7.7 18.2 7.8 18.1 7.8 18 7.7 17.8 7.7 17.5 7.5 17.1 7.3 16.6 7.1 16 6.8 15.3 6.5 14.5 6 13.7 5.6 12.7 5.2 11.7 4.5 10.6 4 9.3 3.4 8.1 2.6 6.6-4.8 1.9-2.6-6.5-3.3-8-4-9.3-4.6-10.5-5.1-11.7-5.6-12.7-6-13.7-6.5-14.5-6.8-15.3-7.1-16-7.3-16.6-7.5-17.1-7.7-17.5-7.7-17.8-7.8-18.1-7.8-18.1-7.7-18.2-7.6-18.1-7.4-18-7.2-17.8-6.9-17.4-6.6-17-6.2-16.5-5.8-15.9-5.3-15.2-4.8-14.4-4.2-13.5-3.5-12.6-2.9-11.5-2.1-10.4-1.3-9.2-.3-8.1zm245.1-306.5v5.1l-12.3.4-12.2 1.2-12 1.9-11.8 2.7-11.6 3.3-11.4 4-11.2 4.8-10.9 5.4-10.6 6-10.4 6.6-10 7.3-9.8 7.8-9.4 8.4-9.1 8.9-8.7 9.5-8.4 9.9-8 10.4-7.6 10.9-7.1 11.4-6.7 11.8-6.3 12.2-5.8 12.7-5.3 13-4.8 13.4-4.3 13.7-3.8 14-3.2 14.3-2.7 14.6-2.2 14.8-1.5 15.1-.9 15.3-.3 15.6h-5.1l.3-15.8.9-15.6 1.6-15.3 2.2-15 2.7-14.8 3.3-14.5 3.9-14.3 4.3-13.9 4.9-13.5 5.4-13.2 5.9-12.8 6.3-12.4 6.8-12 7.3-11.6 7.7-11.2 8.1-10.6 8.5-10.2 8.9-9.6 9.2-9.1 9.6-8.6 10-8 10.2-7.4 10.6-6.8 10.9-6.1 11.2-5.5 11.4-4.8 11.7-4.2 11.9-3.4 12.1-2.7 12.3-1.9 12.5-1.2 12.8-.4z"/></g><g id="Layer_2"><path class="st4" d="M1535.1-210.1c73.9 0 133.9 136.1 133.9 304 0 93-60.3 386.7-76.8 464.3-6.4 30.4-73.9 32.1-82.4-8.1-13.2-62.1-108.6-381.9-108.6-456.2 0-167.9 60-304 133.9-304z"/><path id="_x31__5_" class="st0" d="M1671.6 93.9h-5.2l-.1-15.6-.5-15.3-.9-15.2-1.2-14.9-1.5-14.6-1.8-14.4-2.1-14L1656-24l-2.7-13.4-3-13-3.2-12.7-3.5-12.2-3.7-11.9-4-11.4-4.2-10.9-4.4-10.5-4.6-9.9-4.8-9.5-5-8.9-5.2-8.4-5.3-7.8-5.5-7.2-5.7-6.6-5.8-6-5.9-5.3-6.1-4.7-6.1-4-6.3-3.3-6.4-2.5-6.4-1.9-6.5-1.2-6.6-.4v-5.1l7.2.4 7.1 1.2 7 2 6.8 2.7 6.7 3.5 6.6 4.2 6.3 4.9 6.3 5.6 6 6.2 5.8 6.8 5.7 7.4 5.5 8 5.3 8.6 5.1 9.1 5 9.6 4.7 10.2 4.5 10.6 4.2 11.1 4 11.6 3.7 12 3.5 12.5 3.2 12.7 3 13.2 2.7 13.5 2.4 13.9 2.2 14.2 1.8 14.5 1.5 14.8 1.2 15 .9 15.3.5 15.6.1 15.7zm-76.9 464.9l-5-1.1 1.7-7.9 1.9-9.1 2.2-10.2 2.3-11.2 2.5-12.2 2.7-13.1 2.8-13.9 3-14.6 3-15.3 3.1-15.8 3.2-16.4 3.2-16.8 3.3-17.1 3.2-17.4 3.3-17.6 3.2-17.7 3.2-17.8 3.1-17.7 3-17.6 3-17.5 2.8-17.1 2.7-16.8 2.4-16.4 2.3-16 2.2-15.3 1.9-14.8 1.7-14 1.4-13.2 1.2-12.3.8-11.4.5-10.4.1-9.1h5.2l-.2 9.4-.5 10.4-.8 11.4-1.2 12.5-1.4 13.2-1.7 14-1.9 14.8-2.1 15.4-2.3 16-2.5 16.5-2.7 16.8-2.8 17.2-3 17.5-3 17.6-3.1 17.7-3.2 17.8-3.2 17.8-3.3 17.6-3.2 17.4-3.3 17.2-3.4 16.8-3.2 16.3-3.1 15.9-3.1 15.3-2.9 14.6-2.7 13.9-2.7 13.1-2.4 12.2-2.4 11.2-2.1 10.2-1.9 9.1-1.8 8zm-87.5-8.1l5-1.1.9 3.4 1.2 3.2 1.5 2.9 1.7 2.7 1.9 2.5 2.2 2.2 2.4 2.1 2.6 1.9 2.8 1.7 2.9 1.5 3 1.2 3.2 1.1 3.2.8 3.3.6 3.4.4 3.3.3h3.4l3.3-.1 3.3-.3 3.2-.6 3.1-.7 3-.9 2.9-1.1 2.7-1.3 2.4-1.4 2.3-1.6 2-1.7 1.8-1.9 1.6-2 1.2-2.2 1-2.2.6-2.4 5 1.1-.9 3-1.2 3-1.6 2.7-1.9 2.4-2.2 2.3-2.4 2-2.7 1.9-2.8 1.7-3 1.4-3.2 1.2-3.3 1-3.4.8-3.5.6-3.6.4-3.6.1h-3.7l-3.7-.3-3.6-.5-3.7-.6-3.5-.9-3.5-1.2-3.4-1.4-3.3-1.7-3.1-1.9-3-2.1-2.7-2.4-2.5-2.7-2.3-2.9-2-3.1-1.7-3.5-1.4-3.6-.9-3.8zM1398.6 93.9h5.1l.3 7.5.8 8.9 1.3 10.2 1.7 11.4 2.2 12.5 2.6 13.5 3 14.3 3.2 15.1 3.6 15.8 3.8 16.5 4.1 17 4.2 17.4 4.5 17.8 4.5 17.9 4.7 18.1 4.8 18.2 4.8 18.1 4.8 18 4.8 17.8 4.7 17.5 4.7 17.1 4.5 16.6 4.4 16 4.1 15.3 4 14.5 3.7 13.8 3.4 12.7 3.1 11.7 2.7 10.5 2.3 9.4 1.9 8 1.5 6.6-5 1.1-1.4-6.6-1.9-7.9-2.3-9.3-2.7-10.5-3.1-11.7-3.4-12.7-3.7-13.7-3.9-14.5-4.2-15.3-4.3-16-4.5-16.6-4.6-17.1-4.8-17.5-4.8-17.9-4.8-18-4.8-18.1-4.8-18.2-4.8-18.1-4.5-18-4.5-17.7-4.2-17.5-4.1-17-3.8-16.5-3.6-15.8-3.3-15.2-3-14.4-2.6-13.5-2.2-12.5-1.8-11.5-1.3-10.4-.8-9.1-.3-8zm136.5-306.5v5.1l-6.6.4-6.5 1.2-6.5 1.9-6.3 2.5-6.3 3.3-6.2 4-6 4.7-6 5.3-5.8 6-5.7 6.6-5.5 7.2-5.3 7.8-5.2 8.4-5 8.9-4.8 9.5-4.6 9.9-4.4 10.5-4.2 10.9-4 11.4-3.7 11.9L1423-63l-3.2 12.7-3 13-2.7 13.4-2.4 13.8-2.1 14-1.8 14.4-1.5 14.6-1.2 14.9-.9 15.2-.5 15.3-.2 15.6h-5.1l.2-15.7.5-15.6.9-15.3 1.2-15 1.5-14.8 1.8-14.5 2.1-14.2 2.4-13.9 2.7-13.5 3-13.2 3.2-12.7 3.5-12.5 3.7-12 4-11.6 4.2-11.1 4.5-10.6 4.7-10.2 4.9-9.6 5.1-9.1 5.3-8.6 5.5-8 5.8-7.4 5.8-6.8 6-6.2 6.3-5.6 6.3-4.9 6.6-4.2 6.7-3.5 6.8-2.7 7-2 7.1-1.2 7.4-.3z"/></g></svg>