<svg xmlns="http://www.w3.org/2000/svg" viewBox="1258.2 -272.8 732.7 1103.5"><style>.st0{fill:#2B2A29;} .st1{fill:#FFD358;} .st2{fill:#D5A16C;} .st3{fill:#FEFEFE;}</style><g id="Layer_7"><path class="st0" d="M1732.7 558.5h-3.5v144.7h3.5z"/><path id="_x31_" class="st0" d="M1729.2 561.2l-2.7-2.7 2.7-2.7h3.5v5.5h-3.5zm0-5.4v5.5c-1.4 0-2.7-1.2-2.7-2.7s1.3-2.8 2.7-2.8zm2.7 147.4l-2.7 2.7-2.7-2.7V558.5h5.4v144.7zm-5.4 0h5.4c0 1.5-1.2 2.7-2.7 2.7-1.4.1-2.7-1.2-2.7-2.7zm6.2-2.7l2.7 2.7-2.7 2.7h-3.5v-5.5h3.5zm0 5.5v-5.5c1.4 0 2.7 1.2 2.7 2.7s-1.2 2.8-2.7 2.8zm-2.7-147.5l2.7-2.7 2.7 2.7v144.7h-5.4V558.5zm5.4 0h-5.4c0-1.5 1.2-2.7 2.7-2.7 1.5 0 2.7 1.2 2.7 2.7z"/></g><g id="Layer_6"><path class="st0" d="M1553.9 549.7h-3.5v144.7h3.5z"/><path id="_x31__1_" class="st0" d="M1550.4 552.5l-2.7-2.7 2.7-2.7h3.5v5.5h-3.5zm0-5.5v5.5c-1.5 0-2.7-1.2-2.7-2.7 0-1.6 1.2-2.8 2.7-2.8zm2.8 147.4l-2.7 2.7-2.7-2.7V549.7h5.5v144.7zm-5.5 0h5.5c0 1.5-1.2 2.7-2.7 2.7s-2.8-1.1-2.8-2.7zm6.2-2.7l2.7 2.7-2.7 2.7h-3.5v-5.5h3.5zm0 5.5v-5.5c1.5 0 2.7 1.2 2.7 2.7 0 1.6-1.2 2.8-2.7 2.8zm-2.7-147.5l2.7-2.7 2.7 2.7v144.7h-5.4V549.7zm5.4 0h-5.4c0-1.5 1.2-2.7 2.7-2.7 1.5 0 2.7 1.2 2.7 2.7z"/></g><g id="Layer_5"><path class="st1" d="M1624.3-254.9c193.1 0 349.6 143.9 349.6 321.5 0 98.4-185.9 409-228.9 491.2-16.8 32.1-192.9 33.9-215.3-8.6-34.5-65.6-255.1-403.9-255.1-482.5.1-177.7 156.6-321.6 349.7-321.6z"/><path id="_x31__2_" class="st0" d="M1976.7 66.5h-5.5l-.4-16.3-1.3-16.2-2.2-16-3-15.6-3.9-15.4-4.7-15.1-5.5-14.8-6.2-14.5-6.9-14.1-7.6-13.8-8.4-13.3-9.1-13-9.6-12.5-10.3-12.1-10.9-11.5-11.5-11.1-12-10.6-12.6-10-13.1-9.5-13.6-8.9-14-8.3-14.5-7.7-15-7.1-15.3-6.4-15.8-5.7-16.1-5-16.5-4.2-16.8-3.6-17.1-2.8-17.4-2-17.6-1.2-17.9-.4v-5.4l18.1.4 17.9 1.2 17.6 2.1 17.4 2.8 17 3.6 16.7 4.4 16.4 5.1 16 5.8 15.6 6.5 15.2 7.2 14.7 7.8 14.3 8.4 13.8 9 13.3 9.6 12.7 10.2 12.2 10.7 11.7 11.3 11.1 11.7 10.5 12.2 9.8 12.7 9.1 13.1L1934-88l7.8 14 7.1 14.4 6.3 14.7 5.5 15.1 4.8 15.3 4 15.7 3.1 16 2.2 16.3 1.4 16.4.5 16.6zM1747.4 559l-4.8-2.5 4.5-8.4 5.3-9.6 5.9-10.8 6.6-11.9 7.2-12.9 7.7-13.8 8.2-14.7 8.6-15.5 8.9-16.2 9.3-16.8 9.5-17.3 9.6-17.8 9.8-18.1 9.9-18.4 9.8-18.6 9.8-18.7 9.6-18.8 9.4-18.7 9.2-18.6 8.9-18.4 8.5-18.1 8.1-17.9 7.6-17.4 7.1-16.8 6.5-16.3 5.8-15.6 5.1-14.8 4.2-13.9 3.4-13 2.5-11.9 1.5-10.8.5-9.6h5.5l-.6 10.1-1.6 11.2-2.6 12.2-3.5 13.2-4.3 14.1-5.1 14.9-5.8 15.6-6.5 16.3-7.1 16.9-7.7 17.4-8.1 17.9-8.5 18.2-8.9 18.5-9.2 18.6-9.5 18.8-9.6 18.9-9.8 18.7-9.9 18.6-9.9 18.4-9.8 18.1-9.6 17.8-9.5 17.4-9.3 16.8-9 16.1-8.6 15.5-8.2 14.7-7.7 13.9-7.2 12.9-6.6 11.9-5.9 10.8-5.3 9.6-4.3 8.6zm-220-8.6l4.8-2.5 2.3 3.5 3.1 3.2 3.9 3.2 4.7 3 5.3 2.7 6 2.5 6.6 2.3 7.1 2.1 7.6 1.8 8 1.7 8.3 1.4 8.6 1.2 8.9.9 8.9.7 9.1.5 9.1.3h9.1l9-.1 8.9-.4 8.7-.6 8.4-.8 8.1-1 7.8-1.2 7.3-1.4 6.8-1.6 6.3-1.8 5.7-1.9 5-2.1 4.2-2.2 3.4-2.4 2.6-2.4 1.7-2.4 4.8 2.5-2.4 3.4-3.3 3.1-4 2.8-4.7 2.4-5.4 2.3-6 2-6.6 1.9-7.1 1.6-7.5 1.4-8 1.2-8.3 1-8.6.9-8.9.6-9 .4-9.1.1h-9.2l-9.2-.3-9.2-.5-9.1-.7-9-.9-8.7-1.2-8.5-1.4-8.1-1.7-7.8-1.9-7.4-2.2-6.8-2.4-6.3-2.7-5.8-3-5.2-3.2-4.4-3.5-3.7-4-2.8-4.2zM1272 66.5h5.4l.6 7.8 1.8 9.3 3 10.7 4 12 5 13.1 6 14.2 6.8 15.1 7.6 16.1 8.3 16.7 8.9 17.4 9.4 17.9 9.9 18.4L1359 254l10.7 19 10.9 19.2 11 19.2 11.2 19.2 11.2 19 11.2 18.9 11.1 18.5 10.7 18 10.6 17.6 10.2 16.9 9.8 16.2 9.4 15.3 8.7 14.5 8.1 13.5 7.4 12.3 6.6 11.2 5.8 9.9 4.8 8.5 3.7 7-4.8 2.5-3.7-6.9-4.8-8.4-5.8-9.9-6.6-11.1-7.4-12.4-8.1-13.5-8.8-14.5-9.3-15.3-9.8-16.2-10.2-17-10.6-17.5-10.9-18.1-11-18.5-11.2-18.8-11.2-19.1-11.2-19.2-11.1-19.3-10.9-19.2-10.7-19.1-10.3-18.8-9.9-18.4-9.5-18-8.9-17.4-8.4-16.8-7.6-16.1-6.8-15.3-6-14.3-5.1-13.3-4.1-12.2-3-11-1.9-9.8-.5-8.5zm352.3-324.1v5.4l-17.9.4-17.6 1.2-17.4 2-17.1 2.8-16.8 3.6-16.5 4.2-16.1 5-15.7 5.7-15.4 6.4-15 7.1-14.5 7.7-14 8.3-13.6 8.9-13.1 9.5-12.6 10-12 10.6-11.5 11.1-10.9 11.5-10.3 12.1-9.6 12.5-9 13-8.4 13.3-7.7 13.8-6.9 14.1-6.2 14.5-5.5 14.8-4.7 15.1-3.8 15.4-3.1 15.6-2.2 16-1.4 16.2-.4 16.3h-5.4l.4-16.7 1.4-16.4 2.2-16.3 3.1-16 4-15.7 4.8-15.3 5.5-15.1 6.3-14.7 7.1-14.4 7.8-14 8.5-13.6 9.1-13.1 9.9-12.7 10.4-12.2 11.1-11.7 11.7-11.3 12.2-10.7 12.8-10.2 13.2-9.6 13.8-9 14.3-8.4 14.8-7.8 15.2-7.2 15.6-6.5 16-5.8 16.4-5.1 16.7-4.4 17-3.6 17.4-2.8 17.6-2.1 17.9-1.2 18.1-.5z"/></g><g id="Layer_4"><path class="st2" d="M1556.8 694.4h169.8c8.3 0 15 6.8 15 15v89.3c0 8.3-6.8 15.1-15 15.1h-169.8c-8.3 0-15.1-6.8-15.1-15.1v-89.3c0-8.2 6.9-15 15.1-15z"/><path id="_x31__3_" class="st0" d="M1726.6 697.1h-169.8v-5.4h169.8v5.4zm17.8 12.4h-5.5v-.6l-.1-.6-.1-.6-.1-.6-.1-.6-.1-.6-.2-.6-.2-.5-.3-.6-.2-.5-.4-.6-.3-.5-.4-.4-.4-.5-.4-.4-.4-.4-.4-.4-.4-.4-.5-.4-.5-.4-.5-.4-.5-.3-.5-.3-.6-.2-.6-.2-.6-.2-.6-.1-.6-.1-.6-.1-.6-.1h-.6l-.6-.1v-5.4h.9l.9.1.9.1.9.1.9.2.9.2.9.3.8.4.8.4.7.4.8.4.7.5.7.4.6.6.6.6.6.6.6.6.5.6.6.7.5.6.4.7.4.8.4.7.4.8.4.8.3.9.2.9.2.9.1.9.1.9.1.9v.7h.1zm-5.5 89.3v-89.3h5.5v89.3h-5.5zm-12.3 17.8v-5.4h.6l.6-.1.6-.1.6-.1.6-.1.6-.2.6-.1.6-.2.6-.3.5-.3.5-.3.5-.3.5-.4.5-.4.4-.4.4-.4.4-.4.4-.5.4-.4.4-.5.3-.5.4-.5.2-.5.3-.6.2-.6.2-.6.1-.6.1-.6.1-.6.1-.6.1-.6v-.6h5.5v.9l-.1.9-.1.9-.1.9-.2.9-.2.9-.3.8-.4.8-.4.8-.4.8-.4.7-.4.7-.5.7-.6.6-.5.6-.6.6-.6.6-.6.6-.6.5-.7.5-.7.4-.8.4-.7.4-.8.4-.8.3-.9.3-.9.3-.9.1-.9.2-.9.1-.9.1h-1v.1zm-169.8-5.4h169.8v5.4h-169.8v-5.4zm-17.7-12.4h5.4v.6l.1.6.1.6.1.6.1.6.1.6.2.6.2.6.2.6.3.5.3.5.4.5.4.5.4.4.4.5.4.4.4.4.4.4.5.4.4.4.5.3.5.3.6.3.5.3.6.2.6.1.6.2.6.1.6.1.6.1.6.1h.6v5.4h-.9l-.9-.1-.9-.1-.9-.2-.9-.1-.8-.3-.9-.3-.8-.3-.8-.4-.8-.4-.7-.4-.7-.4-.7-.5-.6-.5-.6-.6-.6-.6-.6-.6-.6-.6-.5-.6-.5-.7-.4-.7-.4-.7-.4-.8-.4-.8-.3-.8-.3-.8-.3-.9-.1-.9-.2-.9-.1-.9-.1-.9v-1zm5.4-89.3v89.3h-5.4v-89.3h5.4zm12.3-17.8v5.4l-.6.1h-.6l-.6.1-.6.1-.6.1-.6.1-.6.2-.6.2-.5.2-.6.3-.5.3-.5.4-.4.4-.5.4-.4.4-.4.4-.4.4-.4.4-.4.5-.4.4-.4.5-.3.6-.3.5-.2.6-.2.5-.2.6-.1.6-.1.6-.1.6-.1.6-.1.6v.6h-5.4v-.9l.1-.9.1-.9.2-.9.1-.9.3-.9.3-.9.3-.8.4-.8.4-.7.4-.8.4-.7.5-.6.5-.7.6-.6.6-.6.6-.6.6-.6.6-.6.7-.4.7-.5.7-.4.8-.4.8-.4.8-.4.9-.3.8-.2.9-.2.9-.1.9-.1.9-.1h.9v.2z"/></g><g id="Layer_3"><path class="st3" d="M1624.3-254.9c141.7 0 256.5 143.9 256.5 321.5 0 98.4-136.4 409-168 491.2-12.3 32.1-141.5 33.9-157.9-8.6-25.3-65.6-187.2-403.9-187.2-482.5.1-177.7 114.9-321.6 256.6-321.6z"/><path id="_x31__4_" class="st0" d="M1883.6 66.5h-5.5l-.3-16.4-1-16.2-1.6-16-2.2-15.7-2.9-15.5-3.5-15.1-4-14.8-4.6-14.5-5-14.1-5.6-13.8-6.2-13.3-6.6-13-7.1-12.5-7.6-12-8-11.6-8.4-11-8.8-10.6-9.3-10-9.6-9.4-9.9-8.9-10.3-8.3-10.7-7.6-10.9-7.1-11.2-6.3-11.4-5.7-11.8-5-12-4.2-12.2-3.5-12.5-2.8-12.7-2-12.9-1.2-13-.4v-5.4l13.4.4 13.2 1.2 13 2.1 12.7 2.9 12.6 3.6 12.3 4.4 12.1 5.1 11.8 5.8 11.4 6.5 11.2 7.2 10.8 7.8 10.5 8.4 10.2 9.1 9.7 9.6 9.4 10.2 9 10.8 8.6 11.2 8.1 11.7 7.7 12.3 7.2 12.7 6.7 13.2 6.3 13.5 5.7 14 5.2 14.3 4.6 14.8 4 15 3.5 15.4 2.9 15.6 2.2 16 1.7 16.2 1 16.4.6 16.5zm-168.2 492.2l-5-2 3.2-8.4 3.9-9.6 4.3-10.8 4.9-11.9 5.3-12.9 5.7-13.8 6-14.7 6.3-15.5 6.6-16.2 6.8-16.8 7-17.3 7.1-17.8 7.2-18.1 7.2-18.4 7.2-18.6 7.2-18.7 7.1-18.8 7-18.7 6.7-18.6 6.6-18.4 6.3-18.2 6-17.8 5.5-17.4 5.2-16.8 4.8-16.3 4.2-15.6 3.7-14.8 3.1-13.9 2.5-13 1.8-12 1.2-10.8.4-9.6h5.5l-.4 10.1-1.2 11.1-1.9 12.2-2.5 13.1-3.2 14.1-3.7 14.9-4.3 15.6-4.8 16.3-5.2 16.9-5.6 17.4-6 17.9-6.3 18.1-6.6 18.5-6.8 18.7-6.9 18.7-7.1 18.9-7.1 18.8-7.3 18.6-7.2 18.4-7.2 18.1-7.1 17.8-7 17.4-6.8 16.8-6.6 16.1-6.3 15.5-6 14.7-5.7 13.9-5.3 12.9-4.8 11.9-4.3 10.8-3.9 9.6-3.4 8.4zm-162.9-8.6l5-1.9 1.7 3.5 2.2 3.3 2.9 3 3.3 3 3.9 2.7 4.4 2.5 4.8 2.2 5.1 2.1 5.5 1.8 5.8 1.6 6 1.4 6.3 1.2 6.4.9 6.6.7 6.6.5 6.7.2 6.6.1 6.6-.1 6.5-.4 6.3-.6 6.1-.8 5.9-1 5.7-1.2 5.3-1.4 5-1.5 4.5-1.7 4.1-1.9 3.6-2.1 3-2.2 2.4-2.3 1.9-2.4 1.2-2.4 5 2-1.7 3.4-2.4 3.1-3 2.8-3.6 2.6-4 2.3-4.5 2.1-4.9 1.9-5.3 1.7-5.5 1.4-5.9 1.2-6.1 1-6.3.9-6.6.6-6.6.4-6.8.2-6.8-.1-6.8-.3-6.8-.5-6.8-.7-6.6-.9-6.5-1.2-6.3-1.4-6-1.7-5.8-1.9-5.5-2.2-5.1-2.4-4.8-2.7-4.3-3-3.8-3.2-3.2-3.6-2.7-4-1.9-4.6zM1365 66.5h5.5l.4 7.8 1.3 9.4 2.2 10.7 3 12 3.7 13.1 4.4 14.3 5 15.1 5.5 16 6.1 16.8 6.5 17.4 7 17.9 7.3 18.4 7.6 18.8 7.8 19 8 19.2 8.1 19.2 8.2 19.2 8.2 19 8.2 18.9 8.1 18.5 8 18.1 7.7 17.6 7.6 16.9 7.1 16.2 6.8 15.4 6.5 14.5 5.9 13.5 5.4 12.3 4.9 11.2 4.2 9.9 3.5 8.5 2.8 7-5 1.9-2.8-6.9-3.5-8.4-4.2-9.9-4.8-11.1-5.5-12.4-5.9-13.5-6.4-14.5-6.8-15.3-7.2-16.3-7.6-16.9-7.7-17.6-8-18.1-8.1-18.5-8.2-18.8-8.3-19.1-8.2-19.2-8.1-19.3-8-19.2-7.8-19.1-7.6-18.8-7.3-18.4-7-18-6.6-17.4-6.1-16.8-5.5-16.1-5-15.2-4.4-14.3-3.7-13.3-3-12.2-2.2-11-1.4-9.7-.6-8.4zm259.3-324.1v5.4l-13 .4-12.8 1.2-12.7 2-12.5 2.8-12.2 3.5-12 4.2-11.7 5-11.5 5.7-11.2 6.3-10.9 7.1-10.7 7.6-10.3 8.3-9.9 8.9-9.6 9.4-9.2 10-9.1 10.8-8.4 11-8 11.6-7.6 12-7.1 12.5-6.6 13-6.1 13.3-5.6 13.8-5.1 14.1-4.6 14.5-4 14.8-3.5 15.1-2.8 15.5-2.2 15.7-1.7 16-1 16.2-.3 16.4h-5.5l.4-16.6 1-16.4 1.7-16.2 2.2-16 2.9-15.6 3.5-15.4 4-15 4.6-14.8 5.2-14.3 5.8-14 6.2-13.5 6.8-13.2 7.2-12.7 7.6-12.3 8.1-11.7 8.6-11.2 9-10.8 9.4-10.2 9.8-9.6 10.2-9.1 10.5-8.4 10.9-7.8 11.2-7.2 11.5-6.5 11.7-5.8 12.1-5.1 12.3-4.4 12.6-3.6 12.7-2.9 13-2.1 13.2-1.2 13.5-.5z"/></g><g id="Layer_2"><path class="st1" d="M1624.3-254.9c78.3 0 141.7 143.9 141.7 321.5 0 98.4-63.9 409-81.3 491.2-6.8 32.1-78.1 33.9-87.2-8.6-14-65.6-114.8-403.9-114.8-482.5 0-177.7 63.3-321.6 141.6-321.6z"/><path id="_x31__5_" class="st0" d="M1768.7 66.5h-5.4l-.2-16.5-.5-16.3-.9-16-1.3-15.7-1.6-15.5-1.9-15.2-2.2-14.9-2.5-14.5-2.8-14.2-3.1-13.8-3.5-13.4-3.6-13-4-12.5-4.2-12.1-4.4-11.6-4.7-11.1-4.9-10.5-5.1-10-5.3-9.4-5.5-8.9-5.7-8.3-5.8-7.6-6-7-6.1-6.3-6.3-5.6-6.5-4.9-6.5-4.2-6.6-3.5-6.8-2.7-6.8-1.9-6.9-1.2-7-.4v-5.4l7.6.4 7.5 1.3 7.3 2.1 7.2 3 7.1 3.7 6.9 4.5 6.8 5.2 6.6 5.8 6.4 6.6 6.2 7.3 6 7.8 5.8 8.4 5.6 9.1 5.4 9.6 5.2 10.2 5 10.7 4.7 11.2 4.5 11.7 4.2 12.2 4 12.7 3.7 13.1 3.5 13.5 3.1 14 2.9 14.3 2.5 14.7 2.2 15 1.9 15.3 1.6 15.6 1.2 15.9.9 16.1.6 16.4.5 16.7zm-81.3 491.8l-5.3-1.2 1.8-8.4 2-9.6 2.2-10.8 2.4-11.9 2.7-12.9 2.8-13.9 3-14.7 3.1-15.4 3.2-16.2 3.3-16.8 3.4-17.3 3.5-17.8 3.5-18.1 3.5-18.4 3.5-18.6 3.4-18.7 3.4-18.8 3.3-18.8 3.2-18.6 3.1-18.4 3-18.2 2.8-17.8 2.7-17.4 2.4-16.8 2.2-16.3 2-15.6 1.7-14.8 1.5-14 1.2-13 .9-12 .5-10.9.2-9.7h5.4l-.1 9.9-.6 11.1-.9 12.1-1.2 13.1-1.4 14-1.7 14.9-2 15.6-2.2 16.3-2.4 16.9-2.7 17.4-2.8 17.9-3 18.2-3.1 18.5-3.2 18.6-3.3 18.8-3.4 18.8-3.4 18.8-3.5 18.6-3.5 18.4-3.5 18.1-3.5 17.8-3.4 17.4-3.3 16.8-3.2 16.1-3.1 15.5-3 14.7-2.8 13.9-2.7 12.9-2.4 11.9-2.2 10.8-2 9.6-2 8.4zm-92.5-8.6l5.3-1.1.9 3.6 1.3 3.3 1.5 3.1 1.9 2.9 2.1 2.6 2.3 2.4 2.6 2.2 2.7 2 2.9 1.7 3.1 1.6 3.2 1.3 3.3 1.2 3.5.9 3.5.7 3.6.4 3.5.3h3.5l3.5-.1 3.5-.4 3.4-.6 3.3-.7 3.2-1 3-1.1 2.8-1.4 2.7-1.4 2.4-1.7 2.2-1.8 1.9-1.9 1.6-2.2 1.4-2.2 1-2.4.7-2.6 5.3 1.2-.9 3.2-1.3 3.1-1.7 2.8-2 2.7-2.3 2.4-2.6 2.2-2.8 1.9-3 1.7-3.2 1.5-3.4 1.3-3.5 1-3.6.9-3.7.6-3.7.4-3.9.1h-3.8l-3.9-.3-3.9-.5-3.8-.8-3.7-.9-3.7-1.2-3.6-1.5-3.5-1.7-3.3-1.9-3.1-2.3-2.9-2.5-2.7-2.7-2.4-3.1-2.2-3.3-1.8-3.6-1.5-3.8-1.2-4.5zM1480 66.5h5.4l.3 8 .9 9.4 1.4 10.8 1.8 12 2.3 13.2 2.7 14.3 3.1 15.2 3.5 16 3.8 16.8 4 17.4 4.3 18 4.5 18.4 4.7 18.8 4.8 19 5 19.2 5 19.2 5 19.2 5.1 19.1 5 18.8 5 18.5 4.9 18.1 4.8 17.6 4.6 16.9 4.4 16.2 4.2 15.4 3.9 14.5 3.6 13.5 3.2 12.4 2.9 11.2 2.5 9.9 2 8.5 1.6 7-5.3 1.1-1.5-6.8-2-8.4-2.5-9.8-2.9-11.2-3.2-12.3-3.6-13.5-3.9-14.5-4.2-15.4-4.4-16.2-4.5-16.9-4.8-17.6-4.8-18.1-5-18.5-5-18.9-5-19.1-5.1-19.2-5-19.3-5-19.2-4.8-19.1-4.7-18.8-4.5-18.4-4.3-17.9-4.1-17.5-3.7-16.8-3.5-16.1-3.2-15.3-2.7-14.3-2.3-13.3-1.9-12.1-1.4-10.9-.9-9.7-.5-8.5zm144.3-324.1v5.4l-7 .4-6.9 1.2-6.8 1.9-6.8 2.7-6.6 3.5-6.5 4.2-6.4 4.9-6.3 5.6-6.1 6.3-6 7-5.8 7.6-5.6 8.3-5.5 8.9-5.3 9.4-5.1 10-4.9 10.5-4.6 11.1-4.5 11.6-4.2 12.1-3.9 12.5-3.7 13-3.4 13.4-3.2 13.8-2.8 14.2-2.5 14.5-2.2 14.9-1.9 15.2-1.6 15.5-1.2 15.8-.9 16-.5 16.3-.2 16.5h-5.4l.2-16.6.5-16.4.9-16.1 1.2-15.9 1.6-15.6 1.9-15.3 2.2-15L1491-59l2.9-14.3 3.1-14 3.5-13.5 3.7-13.1 4-12.7 4.2-12.2 4.5-11.7 4.7-11.2 5-10.7 5.2-10.2 5.4-9.6 5.7-9.1 5.8-8.4 6-7.8 6.2-7.3 6.4-6.6 6.6-5.8 6.7-5.2 6.9-4.5 7.1-3.7 7.2-3 7.3-2.1 7.6-1.3 7.6-.6z"/></g></svg>