<svg xmlns="http://www.w3.org/2000/svg" viewBox="0 0 2889 3215" shape-rendering="geometricPrecision" text-rendering="geometricPrecision" image-rendering="optimizeQuality" fill-rule="evenodd" clip-rule="evenodd"><defs><style><![CDATA[
    .fil3 {fill:#062B3D}
    .fil1 {fill:#0A5D89}
    .fil2 {fill:#0F6892}
    .fil0 {fill:#1C98BC}
    .fil4 {fill:#BAE6F3}
   ]]></style></defs><g id="Layer_x0020_1"><path class="fil0" d="M0 0h2851l38 752-126 141-176 501-36 1028h-540v793h-497l6-571-287-28 8 351-477 2-1-897-429-820-197 2-1-844L8 394z"/><path class="fil1" d="M806 0h298l-3 1390-14 618-251-44-17-623z"/><path class="fil2" d="M806 0H432L311 590l23 662 488 207z"/><path class="fil3" d="M0 0h240L8 394z"/><path class="fil1" d="M1303 0h-199l-1 395z"/><path class="fil3" d="M2693 0h-290l74 300-40 650-426 1472h606l-3-1105 149-424 27-578z"/><path class="fil1" d="M1752 2249l107-368h116l36 541v793h-262z"/><path class="fil2" d="M1103 394L1303 0h440l-39 1735-395 16-23 1216-220 1 35-1578z"/><path class="fil4" d="M1941 3077h-73v73h73zM1941 2918h-73v72h73zM1941 2758h-73v73h73zM1941 2599h-73v73h73z"/><path class="fil1" d="M2289 1452h-73v72h73z"/><path class="fil4" d="M1940 2440h-73v73h73zM1214 2795h-73v73h73zM1214 2636h-73v73h73zM1214 2477h-73v72h73z"/><path class="fil1" d="M2519 976h-73v73h73zM2519 793h-73v73h73zM2519 609h-73v73h73zM2519 426h-73v73h73zM2519 242h-73v73h73zM2519 59h-73v73h73z"/><path class="fil4" d="M1214 2317h-73v73h73zM1214 2158h-73v73h73zM1214 1986h-73v73h73zM1214 1827h-73v73h73zM1214 1668h-73v73h73zM1381 1509h-73v73h73zM1381 1314h-73v73h73zM1381 1120h-73v73h73zM1381 926h-73v73h73zM1381 731h-73v73h73zM1381 537h-73v73h73zM1381 343h-73v73h73zM1381 148h-73v73h73zM276 1031h-72v73h72zM276 872h-72v73h72zM276 700h-72v73h72zM276 541h-72v73h72zM276 382h-72v73h72zM276 223h-72v72h72zM987 2795h-73v73h73zM987 2636h-73v73h73zM987 2477h-73v72h73zM987 2317h-73v73h73zM987 2158h-73v73h73zM987 1986h-73v73h73zM1617 1558h-72v73h72zM1617 1399h-72v73h72zM1617 1240h-72v73h72zM1617 1068h-72v73h72zM1617 909h-72v73h72zM1617 750h-72v73h72zM1617 591h-72v72h72zM1617 431h-72v73h72zM1617 272h-72v73h72zM1617 113h-72v73h72z"/><path class="fil1" d="M2519 2260h-73v73h73zM2519 2077h-73v73h73zM2519 1893h-73v73h73zM2519 1710h-73v73h73zM2519 1526h-73v73h73zM2519 1343h-73v73h73zM2519 1160h-73v72h73zM2289 2260h-73v73h73zM2289 2101h-73v73h73zM2289 1942h-73v73h73zM2289 1770h-73v73h73zM2289 1611h-73v72h73z"/><path class="fil2" d="M2270 0h-208l43 488-52 1393h-78l31 559 430-1487 41-653z"/><path class="fil4" d="M1941 2281h-73v73h73zM1941 2122h-73v73h73z"/><path class="fil1" d="M2403 0h-133l207 300z"/><path class="fil4" d="M1003 1779h-72v73h72zM1003 1620h-72v73h72zM1003 1461h-72v73h72zM1003 1302h-72v73h72zM1003 1143h-72v73h72zM1003 971h-72v73h72zM1003 812h-72v72h72zM1003 653h-72v72h72zM1003 493h-72v73h72zM1003 334h-72v73h72zM1003 175h-72v73h72zM727 1226h-73v72h73zM727 1053h-73v73h73zM727 894h-73v73h73zM727 735h-73v73h73zM727 576h-73v73h73zM727 417h-73v73h73zM727 258h-73v73h73zM727 99h-73v72h73zM554 1053h-73v73h73zM554 894h-73v73h73zM554 735h-73v73h73zM554 576h-73v73h73zM554 417h-73v73h73zM554 258h-73v73h73zM554 99h-73v72h73zM1676 3077h-73v72h73zM1947 151h-72v73h72zM1676 2877h-73v73h73zM1676 2678h-73v73h73zM1676 2479h-73v72h73zM1676 2279h-73v73h73zM1676 2080h-73v73h73zM1676 1881h-73v73h73zM1947 1119h-72v73h72zM1947 960h-72v73h72zM1947 801h-72v72h72zM1947 628h-72v73h72zM1947 469h-72v73h72zM1947 310h-72v73h72z"/><path class="fil1" d="M2062 0h-319l362 488z"/><path class="fil4" d="M1947 1770h-72v72h72zM1947 1610h-72v73h72zM1947 1451h-72v73h72zM1947 1279h-72v73h72zM1940 1963h-73v73h73z"/><path class="fil1" d="M2702 59h-72v73h72zM2702 793h-72v73h72zM2702 609h-72v73h72zM2702 426h-72v73h72zM2702 242h-72v73h72z"/><path class="fil4" d="M1480 2441h-73v73h73zM1480 2242h-73v73h73zM1480 2043h-73v73h73zM1481 1844h-73v73h73z"/></g></svg>