<svg id="Layer_1" xmlns="http://www.w3.org/2000/svg" xmlns:xlink="http://www.w3.org/1999/xlink" viewBox="-449 267.9 60.5 27.1"><style>.st0{fill:#CCB08F;} .st1{fill:#D8BA97;} .st2{fill:#7ED5E6;} .st3{clip-path:url(#SVGID_2_);} .st4{fill:#D2EEF5;} .st5{fill:#CD706F;} .st6{fill:none;}</style><path class="st0" d="M-439.4 291.4c-.9-3-4.2-4.3-2.2-7 1.2-1.6.9-.1 1.2-3-7.2 1.7-3.4 8.7 1 10z"/><path class="st1" d="M-397.9 282.7c.2 2.2 1.9 3.5.4 5.9-1 1.6-2.3 2.1-3 3.8 5.7.1 9.2-7.8 2.6-9.7z"/><path class="st2" d="M-419.9 267.9c10.7 0 19.4 8.7 19.4 19.4v.9c-4.4 4.1-11.4 6.7-19.4 6.7-8.1 0-15.1-2.6-19.4-6.7-.1-.3-.1-.6-.1-.9 0-10.7 8.7-19.4 19.5-19.4z"/><defs><path id="SVGID_1_" d="M-419.9 267.9c10.7 0 19.4 8.7 19.4 19.4v.9c-4.4 4.1-11.4 6.7-19.4 6.7-8.1 0-15.1-2.6-19.4-6.7-.1-.3-.1-.6-.1-.9 0-10.7 8.7-19.4 19.5-19.4z"/></defs><clipPath id="SVGID_2_"><use xlink:href="#SVGID_1_" overflow="visible"/></clipPath><g class="st3"><path id="_x31_" class="st4" d="M-431.5 271.2c-.2.4-2.3 2.2-2.7 2.6-1.8 2.1-3 3.4-4.2 6.5-.6 1.7-2.3 7.1-.5 8.6l.7-3c.6.2 4 3.9 8.9 4.3.3 0 2.4.2 1-.6-2.4-1.4-5-1.7-7.4-4.1-2.6-2.7-1.4-5.8 1.1-8.5 1.8 3.2 9.3 6.5 14.9 5.8.9-.1 1.1-.4.1-.6-5-1.2-12.4-2-13.3-7.3.9-1.4 3.5-3.5 5.2-4 4.2 2.7 5.8 3.3 11 2.8.4-.1 1.2-.6.1-.9-2.7-.8-6.6-.1-8.8-2.7 1.9-1.7 10.5-1 10.4-1.7-3.1-.7-6-1.1-9.4-.4-2.9.9-4.5 2.1-7.1 3.2z"/><path class="st5" d="M-421 293.4c-3.2.1-1.7.4-.5.5 4 .2 9.2-.1 11.9-.6 16-3 5.1-19.1 0-21-.4 3.5-.1 3.9-3.6 4.8-1.9.5-4.1 0-5.6.3-1.8.3-1.5.9-.1 1.5 3.6 1.4 10.1-1.1 10.4 2.4.4 4.7-6.4 5.3-10.6 6.2-1 .2-.6.4-.2.6 3.3 1.3 8.9.2 10 1.9-1.2.7-3.8 1.7-5.5 2.1l-6.2 1.3z"/></g><path class="st6" d="M-419.9 267.9c10.7 0 19.4 8.7 19.4 19.4v.9c-4.4 4.1-11.4 6.7-19.4 6.7-8.1 0-15.1-2.6-19.4-6.7-.1-.3-.1-.6-.1-.9 0-10.7 8.7-19.4 19.5-19.4z"/><path class="st1" d="M-390.6 285c.1 1.2 1.1 2.1.3 3.5-.6.9-1.4 1.2-1.8 2.2 3.3 0 5.3-4.6 1.5-5.7z"/><path class="st0" d="M-445.9 282.7c-2.9 3.7-2.7 3.4-.6 6.2-4.4-1-2.1-5.3.6-6.2z"/></svg>