<svg xmlns="http://www.w3.org/2000/svg" width="324.159" height="15.68" viewBox="0 0 3377 163" shape-rendering="geometricPrecision" text-rendering="geometricPrecision" image-rendering="optimizeQuality" fill-rule="evenodd" clip-rule="evenodd"><defs><style><![CDATA[
    .fil13 {fill:#2B2A29}
    .fil6 {fill:#005AAB}
    .fil0 {fill:#0159AA}
    .fil1 {fill:#035AAA}
    .fil8 {fill:#0A5CAC}
    .fil9 {fill:#1659A5}
    .fil2 {fill:#231F20}
    .fil7 {fill:#908E90}
    .fil10 {fill:#90AED5}
    .fil12 {fill:#990606}
    .fil5 {fill:#DCDDDE}
    .fil3 {fill:#FDFDFD}
    .fil4 {fill:#FEFEFE}
    .fil11 {fill:#2B2A29;fill-rule:nonzero}
   ]]></style></defs><g id="Layer_x0020_1"><g id="_1948650962080"><path class="fil0" d="M492 66v-1c-3 1-4-3-7 0-5 6-1 10 2 5 2-2 3-4 5-4zM523 64c0 1 0 2 2 2 1 0 1-1 2-1v-2c-1 0 0-1-1 1 0-1-1-1-1-2-1 1 0 2-1 2h-1z"/><path class="fil1" d="M446 76c1 2 1 2 2 3 3 0 5-4 3-7-1-1-5-1-4-6 1-4 3-3 2-5-2 0-3 0-3 2-1 1-1 2-1 4 0 4 0 6 1 9zM465 66c0 1 1 2 2 2s1 0 2-2c-1 0 0 0-1-1h-3c-1 1 0-1 0 0-1 1 0 0 0 1z"/><path class="fil2" d="M443 123c2-1 7-1 8 1 1 1 1 2 0 3-1 2-6 1-8 1v-5zm-3 15h3v-8c10-1 8 2 9 8h3c-3-5 0-6-3-9 1-1 2-2 2-4s-1-3-2-4c-2-1-9-1-12-1v18zM507 132h-2c1 9 11 7 13 4s1-6-2-7c-2-1-5-1-8-3-1-5 6-4 7-3l2 2 1 1c1-5-4-7-8-6s-6 7-2 9c3 1 11 1 8 6 0 1-6 4-8-2l-1-1zM483 121l-2-1c0 9 2 16-4 16s-5-7-5-15l-2-1v13c1 7 12 7 13 0 1-3 1-9 0-12zM405 123h6v15h2v-15h6v-3h-14zM546 138v-15l6-1v-2h-14v2l6 1v15z"/><path class="fil3" d="M447 66c-1 5 3 5 4 6 2 3 0 7-3 7-1-1-1-1-2-3v1c-2-1-1-1-3 0v1c1 3 3 9 8 6s4-6 4-12c4 1 0 8 4 10 5 0 2-6 4-8 3 0 2 5 4 6 3-1 2-5 4-7l2 2h2c1-1 0-1 0-2 2 0 0 0 1-1-1-1-2-3-3-5-1-3-2-2-4-1-1 2-1 2-2 2s-2-1-2-2c-4-1-4 1-5 3-1 0-2-1-3-2l-2-1v1c-2-1-3 0-3 0h-3c0-1 0-1-1-2v2c-1-1 0-1-1-1zM527 65c-1 0-1 1-2 1-2 0-2-1-2-2 1-1 1-3 4-5 2-1 5-1 6-3s-2-7-10 0c-7 7-4 17 1 16 3 0 5-2 6-3 2 1 1 1 3 2 4 3 12-6 13-8 2-2 1-5-1-6-6-1-6 9-10 8-3 0-1-5-4-5-2 0-3 3-4 5z"/><path class="fil3" d="M496 69c2 0 0 0 1 1h1c-1 1-1 1-1 2l2-2c1 1 0 0 0 1 0 0-1 0 0 0 2-1 2 2 4 2 3 1 2-2 4-3 2 1 1 2 3 3 3 0 2-2 4-2 0 9-5 19 0 24 1 1 4 3 6 2 1-3-1-5-2-9-2-9 2-27-2-27-3 1-3 4-5 6-2-1-1-4-4-4-3 1-2 3-3 4-2 0-2-1-3-3-2 0-5 3-5 5z"/><path class="fil3" d="M476 72c-1 1 1 1-1 1 0 1 1 1 0 2h-2c0 1 1 1 1 2 3 2 4 1 5 0s1 0 2 1c3 1 8-4 9-5 1 1 2 3 5 2 2-1 3-3 4-4-1 0 0 0 0 0 0-1 1 0 0-1l-2 2c0-1 0-1 1-2h-1c-1-1 1-1-1-1l-1 1h-2c0-2 0-2-1-4-2 0-3 2-5 4-3 5-7 1-2-5 3-3 4 1 7 0 0 0 4-2 0-5-3-2-6-2-8 0-4 2-5 10-7 13-1 0-1 0-1-1zM443 78v-1c2-1 1-1 3 0v-1c-1-3-1-5-1-9 0-2 0-3 1-4 0-2 1-2 3-2 1 2-1 1-2 5 1 0 0 0 1 1v-2c1 1 1 1 1 2h1v-1h1l1 1s1-1 3 0v-1c-1-4-1-7-4-9-2-2-6-1-8 1-3 5-2 14 0 20zM502 58c0-1 1-1 1 0s1 1-1 1c-1 0 0 0 0-1zm-1-4c-2 0-2 0-3 2v4c1 0 2 2 3 2 3 1 9-1 6-6-1-2-3-3-6-2zM427 45h2c1 1 1 1 0 2 0 2-3 5-1 6s3 0 4-1 2-2 2-4c-1 0 2 0 0 0s0 1-3 0v-1-1c-1-1 1 1 0-2v-1c-1 1-1 0-2 0h-1l-1 1-1 1h1z"/><g><path class="fil4" d="M427 45h-1l1-1 1-1h1c1 0 1 1 2 0v1c1 3-1 1 0 2v2c3 1 1 0 3 0s-1 0 0 0c2-2 3-9-1-10-4-2-8 1-11 3-4 5-10 14-5 22 2 3 6 4 9 6 5 3 6 4 9 7 8 7-13 13-16 9 0-1 1-1 1-3s-3-5-8-1c-1 1-3 4-2 6 0 2 3 3 5 4 8 4 21 0 25-6 2-4 2-9-1-13-2-3-5-6-9-8-7-4-11-8-6-15 0-1 1-1 1-2 1-1 2-1 2-2zM397 142h1v-26h161v26h1v-29H397z"/></g><g><path class="fil5" d="M483 121c1 3 1 9 0 12-1 7-12 7-13 0v-13l2 1c0 8-1 15 5 15s4-7 4-16l2 1zm-43-1c3 0 10 0 12 1 1 1 2 2 2 4s-1 3-2 4c3 3 0 4 3 9h-3c-1-6 1-9-9-8v8h-3v-18zm112 2c-1 1-4 1-6 1 1 1 1 13 0 15h-2v-15l-6-1v-2h14v2zm-133 1h-6v15h-2v-15h-6v-3h14v3zm89 10c2 6 8 3 8 2 3-5-5-5-8-6-4-2-2-8 2-9s9 1 8 6l-1-1-2-2c-1-1-8-2-7 3 3 2 6 2 8 3 3 1 4 4 2 7s-12 5-13-4h2l1 1zm-110 9h161v-26H398v26z"/><path class="fil5" d="M443 128c2 0 7 1 8-1 1-1 1-2 0-3-1-2-6-2-8-1v5z"/></g><path class="fil6" d="M492 65v1c1 2 1 2 1 4h2l1-1c0-2 3-5 5-5 1 2 1 3 3 3 1-1 0-3 3-4 3 0 2 3 4 4 2-2 2-5 5-6 4 0 0 18 2 27 1 4 3 6 2 9-2 1-5-1-6-2-5-5 0-15 0-24-2 0-1 2-4 2-2-1-1-2-3-3-2 1-1 4-4 3-2 0-2-3-4-2-1 1-2 3-4 4-3 1-4-1-5-2-1 1-6 6-9 5-1-1-1-2-2-1s-2 2-5 0c0-1-1-1-1-2l-2-2c-2 2-1 6-4 7-2-1-1-6-4-6-2 2 1 8-4 8-4-2 0-9-4-10 0 6 1 9-4 12s-7-3-8-6c-2-6-3-15 0-20 2-2 6-3 8-1 3 2 3 5 4 9l2 1c1 1 2 2 3 2 1-2 1-4 5-3 0-1-1 0 0-1 0-1-1 1 0 0h3c1 1 0 1 1 1 2-1 3-2 4 1 1 2 2 4 3 5 0 1 0 1 1 1 2-3 3-11 7-13 2-2 5-2 8 0 4 3 0 5 0 5zm68-44v92H397V21h163zm-59 33c3-1 5 0 6 2 3 5-3 7-6 6-1 0-2-2-3-2v-4c1-2 1-2 3-2zm22 10h1c1 0 0-1 1-2 0 1 1 1 1 2 1-2 0-1 1-1v2c1-2 2-5 4-5 3 0 1 5 4 5 4 1 4-9 10-8 2 1 3 4 1 6-1 2-9 11-13 8-2-1-1-1-3-2-1 1-3 3-6 3-5 1-8-9-1-16 8-7 11-2 10 0s-4 2-6 3c-3 2-3 4-4 5zm-89-16c0 2-1 3-2 4s-2 2-4 1 1-4 1-6c1-1 1-1 0-2h-2c0 1-1 1-2 2 0 1-1 1-1 2-5 7-1 11 6 15 4 2 7 5 9 8 3 4 3 9 1 13-4 6-17 10-25 6-2-1-5-2-5-4-1-2 1-5 2-6 5-4 8-1 8 1s-1 2-1 3c3 4 24-2 16-9-3-3-4-4-9-7-3-2-7-3-9-6-5-8 1-17 5-22 3-2 7-5 11-3 4 1 3 8 1 10z"/><path class="fil7" d="M546 138c1-2 1-14 0-15 2 0 5 0 6-1l-6 1v15z"/><path class="fil8" d="M503 58c0-1-1-1-1 0s-1 1 0 1c2 0 1 0 1-1z"/><path class="fil9" d="M450 67h1v-1h-1z"/><path class="fil10" d="M451 67h1l-1-1h-1 1v1z"/></g><path class="fil11" d="M662 63l41-39h-19l-46 43V24h-14v95h14V85l14-13 34 47h17z"/><path id="1" class="fil11" d="M733 111c0-5-4-9-9-9s-9 4-9 9 4 9 9 9 9-4 9-9z"/><path id="2" class="fil11" d="M810 24h-14v62c0 8 0 22-17 22-16 0-17-14-17-20h-14c0 18 8 32 31 32 24 0 31-14 31-34V24z"/><path id="3" class="fil11" d="M840 111c0-5-4-9-9-9s-9 4-9 9 4 9 9 9 9-4 9-9z"/><path id="4" class="fil11" d="M944 68c-10-4-23-9-23-20 0-8 7-13 16-13 11 0 20 6 26 13l9-9c-8-10-20-15-33-15-20 0-32 13-32 25 0 16 14 23 27 28 15 6 23 9 23 18s-9 13-20 13c-10 0-20-6-25-13l-10 10c9 9 23 15 35 15 17-1 34-8 34-26 0-15-14-21-27-26z"/><path id="5" class="fil11" d="M1012 55c-18 0-33 14-33 32 0 19 15 33 33 33s32-14 32-33c0-18-14-32-32-32zm0 10c11 0 19 8 19 22s-8 22-19 22-20-8-20-22 9-22 20-22z"/><path id="6" class="fil11" d="M1110 119V82c0-9 4-17 15-17s15 8 15 17v37h13V82c0-20-12-27-25-27-11 0-18 5-22 13-4-9-11-13-20-13-11 0-17 5-20 10V55h-13v64h13V82c0-9 5-17 15-17 11 0 16 8 16 17v36l-1 1h14z"/><path id="7" class="fil11" d="M1192 55c-9 0-18 4-24 11l8 6c5-5 9-7 15-7 8 0 11 7 11 15h-11c-17 0-29 6-29 21 0 12 9 19 21 19 6 0 14-2 19-8v7h13V80c0-17-8-25-23-25zm10 42c0 7-4 12-16 12-6 0-11-3-11-9s4-9 17-9h10v6z"/><path id="8" class="fil11" d="M1240 33c0-4-3-8-7-8s-7 4-7 8 3 7 7 7 7-3 7-7zm0 86V55h-13v64h13z"/><path id="9" class="fil11" d="M1305 55h-13l-16 41-16-41h-13l22 55c0 7-4 14-9 14-2 0-5-1-8-3l-2 9c4 3 9 4 13 4 8 0 13-7 18-18l24-61z"/><path id="10" class="fil11" d="M1336 55c-9 0-18 4-24 11l8 6c5-5 9-7 15-7 8 0 11 7 11 15h-11c-17 0-29 6-29 21 0 12 9 19 21 19 6 0 14-2 19-8v7h13V80c0-17-8-25-23-25zm10 42c0 7-4 12-16 12-6 0-11-3-11-9s4-9 17-9h10v6z"/><path id="11" class="fil11" d="M1502 103l-9-9c-7 9-15 14-27 14-17 0-32-16-32-36 0-21 15-37 32-37 12 0 20 6 27 14l9-8c-8-11-21-17-34-17-27 0-48 21-48 48 0 26 21 48 48 48 13 0 26-6 34-17z"/><path id="12" class="fil11" d="M1540 55c-18 0-32 14-32 32 0 19 14 33 32 33s33-14 33-33c0-18-15-32-33-32zm0 10c11 0 20 8 20 22s-9 22-20 22c-10 0-19-8-19-22s9-22 19-22z"/><path id="13" class="fil11" d="M1595 119V20h-13v99z"/><path id="14" class="fil11" d="M1619 119V20h-13v99z"/><path id="15" class="fil11" d="M1689 92v-5c0-18-12-32-30-32s-31 14-31 33c0 18 12 32 31 32 13 0 21-6 26-12l-7-7c-6 5-12 8-19 8-9 0-18-6-18-17h48zm-13-10h-35c0-9 9-17 18-17 10 0 17 7 17 17z"/><path id="16" class="fil11" d="M1747 55v9c-3-5-11-9-20-9-18 0-30 12-30 32 0 19 12 33 30 33 9 0 17-5 20-10 0 17-7 22-19 22-10 0-19-5-23-7l-5 8c5 4 14 10 31 10 16 0 29-8 29-32V55h-13zm-19 54c-12 0-18-9-18-22s6-22 18-22 19 9 19 22-7 22-19 22z"/><path id="17" class="fil11" d="M1829 92v-5c0-18-12-32-30-32s-31 14-31 33c0 18 12 32 31 32 13 0 21-6 26-12l-7-7c-6 5-12 8-19 8-9 0-19-6-19-17h49zm-13-10h-35c0-9 8-17 18-17s17 7 17 17z"/><path id="18" class="fil11" d="M1922 55c-18 0-32 14-32 32 0 19 14 33 32 33s33-14 33-33c0-18-15-32-33-32zm0 10c11 0 20 8 20 22s-9 22-20 22-19-8-19-22 8-22 19-22z"/><path id="19" class="fil11" d="M1998 37v-9c-2-3-6-4-11-4-12 0-16 10-16 23v8h-8v11h8v53h13V66h14V55h-14v-9c0-7 2-12 8-12 2 0 4 1 6 3z"/><path id="20" class="fil11" d="M2126 107h-52V76h40V64h-40V36h49V24h-63v95h66z"/><path id="21" class="fil11" d="M2193 119V80c0-18-9-25-22-25-11 0-18 4-22 10V55h-13v64h13V84c0-13 5-19 16-19 10 0 15 6 15 19v35h13z"/><path id="22" class="fil11" d="M2253 55v9c-4-5-12-9-21-9-17 0-30 12-30 32 0 19 13 33 30 33 9 0 17-5 21-10 0 17-7 22-20 22-10 0-19-5-22-7l-6 8c5 4 15 10 31 10 17 0 30-8 30-32V55h-13zm-19 54c-12 0-19-9-19-22s7-22 19-22 19 9 19 22-7 22-19 22z"/><path id="23" class="fil11" d="M2290 33c0-4-3-8-7-8s-7 4-7 8 3 7 7 7 7-3 7-7zm-1 86V55h-13v64h13z"/><path id="24" class="fil11" d="M2359 119V80c0-18-10-25-23-25-11 0-17 4-22 10V55h-13v64h13V84c0-13 5-19 16-19s16 6 16 19v35h13z"/><path id="25" class="fil11" d="M2429 92v-5c0-18-12-32-30-32s-31 14-31 33c0 18 12 32 31 32 13 0 21-6 26-12l-7-7c-6 5-12 8-19 8-9 0-19-6-19-17h49zm-13-10h-35c0-9 8-17 18-17s17 7 17 17z"/><path id="26" class="fil11" d="M2498 92v-5c0-18-12-32-30-32s-31 14-31 33c0 18 12 32 31 32 13 0 21-6 26-12l-8-7c-5 5-11 8-18 8-9 0-19-6-19-17h49zm-13-10h-35c0-9 8-17 18-17 9 0 17 7 17 17z"/><path id="27" class="fil11" d="M2544 69l3-10c-2-2-6-4-10-4-9 0-14 5-16 11V55h-13v64h13V89c0-13 3-24 14-24 5 0 8 4 9 4z"/><path id="28" class="fil11" d="M2569 33c0-4-3-8-8-8-3 0-7 4-7 8s4 7 7 7c5 0 8-3 8-7zm-1 86V55h-13v64h13z"/><path id="29" class="fil11" d="M2637 119V80c0-18-9-25-22-25-11 0-18 4-22 10V55h-13v64h13V84c0-13 5-19 16-19 10 0 15 6 15 19v35h13z"/><path id="30" class="fil11" d="M2697 55v9c-4-5-12-9-21-9-17 0-30 12-30 32 0 19 13 33 30 33 9 0 17-5 21-10 0 17-7 22-20 22-10 0-18-5-22-7l-6 8c5 4 15 10 31 10 17 0 30-8 30-32V55h-13zm-19 54c-12 0-19-9-19-22s7-22 19-22 19 9 19 22-7 22-19 22z"/><path id="31" class="fil11" d="M2739 111c0-5-4-9-9-9s-9 4-9 9c0 3 2 6 5 8l-5 14h4l11-16c2-3 3-4 3-6z"/><path id="32" class="fil11" d="M2842 119h8l44-95h-15l-33 71-33-71h-15z"/><path id="33" class="fil11" d="M2915 33c0-4-3-8-7-8s-7 4-7 8 3 7 7 7 7-3 7-7zm-1 86V55h-13v64h13z"/><path id="34" class="fil11" d="M2952 55c-17 0-30 13-30 32 0 21 13 33 30 33 9 0 17-5 21-10v9h13V20h-13v44c-4-5-12-9-21-9zm2 54c-12 0-19-9-19-22s7-21 19-21 19 8 19 21-7 22-19 22z"/><path id="35" class="fil11" d="M3050 55h-13l-16 41-16-41h-13l22 55c0 7-3 14-9 14-2 0-5-1-8-3l-2 9c4 3 9 4 13 4 9 0 13-7 18-18l24-61z"/><path id="36" class="fil11" d="M3081 55c-9 0-18 4-24 11l8 6c5-5 9-7 15-7 9 0 11 7 11 15h-11c-17 0-29 6-29 21 0 12 9 19 21 19 7 0 15-2 19-8v7h13V80c0-17-8-25-23-25zm10 42c0 7-3 12-16 12-6 0-11-3-11-9s5-9 18-9h9v6z"/><path id="37" class="fil11" d="M3138 119h8l29-64h-13l-20 44-20-44h-13z"/><path id="38" class="fil11" d="M3196 33c0-4-3-8-7-8s-7 4-7 8 3 7 7 7 7-3 7-7zm0 86V55h-13v64h13z"/><path id="39" class="fil11" d="M3265 119V80c0-18-9-25-22-25-11 0-18 4-22 10V20h-13v99h13V84c0-13 5-19 16-19 10 0 15 6 15 19v35h13z"/><path id="40" class="fil11" d="M3305 55c-9 0-18 4-25 11l8 6c5-5 9-7 15-7 9 0 11 7 11 15h-11c-17 0-29 6-29 21 0 12 10 19 21 19 7 0 15-2 19-8v7h13V80c0-17-8-25-22-25zm9 42c0 7-3 12-16 12-5 0-11-3-11-9s5-9 18-9h9v6z"/><path id="41" class="fil11" d="M3375 69l2-10c-2-2-5-4-10-4-8 0-14 5-15 11V55h-13v64h13V89c0-13 2-24 14-24 5 0 8 4 9 4z"/><g id="_1949038547904"><path class="fil12" d="M121 87c-1 10-13 20-25 20-12 1-24-8-26-18 3-6 13-8 10-24-1-11-8-15-14-20 0 5 3 7 0 14-2 5-5 6-7 10-6 9 2 18 8 21-2 9-15 19-28 17-15-1-18-10-23-21 0 25 26 48 52 48 27 0 52-22 53-47zM111 63h1l1-1c0-1 0-1-1-2l2-2 2 2 1-1c0-1-4-8-6-9-1 2 0 1 0 2l-4 2 1-1c-2 0-3 0-3-1 1-1 3 0 4-2l1 1 1-1c0-1 0-1-1-2s-1-2-2-2h-1c0 2 1 2 1 3-2 2-3-1-4-2-2-1-1 0-2-2-5-1-5 6-3 7 1-2 0-6 3-5 0 2-3 1-1 3 1-1 2-2 3-1 1 2-3 4 2 6-2 1-2 1-3 4 3-1 6-4 9-5l1 2c-3 3-1 1-3 1-1 1-2 2-2 4 2 1 3-1 3 2zM28 49c2 0 3-3 5-4l1 1c-1 2-4 3-3 5l4 1c0-2-1-1-1-3l1-1c3 1 2 3 6 2l-7-7 2-2c2 1 3 3 4 4 1 2 2 4 4 3l-6-8c1-2 2 0 1-3-3 1-11 9-12 11l1 1zM86 27c-1-1-1-1-4-2 1 5 3 2 5 6-2-1-5-2-6-1-1 2 0 1 5 3l-2 3c-1 0-2 1-3-1 2-2 3 2 3-2-5-1-6 6 0 5-1 2-2 3 0 5 2-2 3-7 4-9 1 0 1 0 2-1 0-3-1 0-1-2-1-1-1-3-1-4-1-3-1-4-4-5 0 3 1 2 2 5zM68 30h2v2h-2c-2 0-3-1-4 1s2 7 4 6c-1-1-3-3-2-5h3c0 4 0 4 1 5 0 1-1 1-2 1l1 2c1 0 3-2 3 1-5 1-4-3-7-4 2 6 7 7 8 4s-1-2-1-5v-8c1-1 1 1 1-2H63v2h5zM2 100c-3 2-4 6-2 9s6 4 8 1-2-11 3-9c1 0 2 2 2 4 0 3-3 1-1 4 5-2 3-10-1-10-8-2-3 9-5 11-3 1-4-1-5-3-1-4 1-4 2-5 0-1 0-1-1-2zM19 121v-1c-1-1-1-2-2-1l-5 5-2 2 1 1c4-1 5-7 9-3 0 2-1 2-2 4-1 1-3 2-4 2 1 2 1 1 1 2 2-1 3-2 5-4s4-2 5 1c0 2-5 5-6 7l1 1c2-3 5-4 6-6 2-3 0-5-4-5 1-3-1-5-3-5z"/><path class="fil12" d="M97 41l-1 1c-2 0-3 1-3-1 2-1 3 0 4 0l-1-2c-1 0-3-1-4 1-1 3 1 4 2 4-1 3-1 1 0 5 2-2 4-7 6-8 2 1 5 4 6 5l1-2-11-9c-2-1-1-1-2 0 0-1 0-1-1-1-1-1-2-1-3-1v1c0 1 0 0 2 1l1 1c2 1 4 2 5 3 0 1 0 2-1 2zM83 148c-2-6 4-7 5-1 2 5-4 6-5 1zm6 3c1 1 1 1 2 0s-1-3-1-5c0-1-1-3-1-5-1-3-1-5-3-4-1 1 1 4 1 5-5-1-8 3-6 8 2 3 6 5 8 1zM37 32c3 2 4-2 7 2-1 0-4 2-5 3l1 1c2 0 2-1 4-2l1 1-1 1c-1 1-1 0-2 2 0 2 2 4 6 4 3-1 1 1 3 0 0-2 0-1-1-1v-2c-1-2-1-2-3-1v2h-2l-1-2 3-2-1-3c1-1 1 0 1-1-1-1-1-1-4-3-2-1-4-1-6 1zM28 49h-2c-1 2-4 6-5 8 4 2-1-2 6 2 1 0 2 1 3 2 1 0 1 1 3-1l-8-5 1-2c2 1 5 4 6 4 0 0 1 1 3 0l-8-6 1-2zM27 140c-2-1-2-2-1-3s3 1 5 1c-1 1-2 3-4 2zm3 4s5-7 5-8c0-2-3-7-8-4 0 1 0 1 1 1 2 0 1-1 3 0s2 2 1 4c-3-1-6-4-9-1-2 3 2 6 5 6 1 1 0 1 2 2zM131 110c1 1 2 1 2 2 1 2 0 3-1 4-4 1-2-5-1-6zm-6 5c2-1 1-1 0-3 0-3 4-5 4-2 0 1-1 2-1 3-1 6 7 7 7-1 1-1 0 0 1-2h-1c-1-1-7-4-8-3-3 0-5 6-2 8zM55 148c-1 2-1 4-4 4-2-1-3-2-2-4h6zm-6-4c2 1 1 1 2 0 2-2 5 0 4 2-2 1-7-1-8 3s4 4 7 3l1 2 1-1c0-4 2-8 1-9-1-2-8-4-8 0zM107 138c1 1 2 2 1 4 0 1-2 2-3 1-4-1 2-5 2-5zm-7 2c4-1 0-2 3-4 1-1 2-1 3 0 0 3-6 4-4 8 1 2 5 3 8-3 1 0 0 1 2 0-1-1-2-2-3-4-1-1-2-3-3-4-1 0-7 1-6 7zM62 140c0 1 6 14 7 15h2l5-15h-2l-5 13c-1-4-3-9-5-13h-2zM127 127c-2-2-8-4-7-8 2-4 6 2 10 4l1-2c-1-1-6-4-7-5-3-1-5 2-5 5-3-1-3-3-5-2v1l12 8 1-1zM54 34v2c0 1-1 2-2 2-1-2 0-2 2-3l-1-1h-2c-3 3 1 7 4 4 1 2 0 2 3 3l-2-9c0-2 1 1 1-2-2-1-9 2-10 3l1 1 5-2 1 2zM11 113c4-1 5 6 0 7s-7-5 0-7zm5 5c1-3-1-6-4-7-3 0-6 2-7 4-1 4 1 7 4 7s6-2 7-4zM89 141l1 1 5 5c5 4 2 4 0 6 1 1 1 1 2 1 3 0 2-5 2-7s0-8-1-10c-2 0-2 0-2 2l1 7-5-5c-1-1-1-1-3 0zM42 138l-2-1v9c-1 6-3 4-5 4 0 3 3 3 4 2l10-11c-2-1-2-1-3 1l-5 5 1-9zM4 57c-1 0-1 0-2-1H0c-1 2 2 2 4 3 1 1 3 1 4 2l1-2c-2-1-3 0-3-3 5 0 4 0 5-3l-6 1-2-4-1 2c0 1 1 3 2 5zM109 133c3 2 7 5 8 3 1-1-3-10-3-11l-2 1c0 2 3 7 4 9-2-1-7-4-9-4l-1 1c1 1 2 1 3 1zM45 18c2 3-3 4-3 0 0-1 0 0 1-1 0 0 0-1 2 1zm1 3c1 4-2 1-4 3 2 2 5 0 6-1 0-3-2-6-2-8h-2l-2 1c-3 1-2 6 1 6 1 1 2-1 3-1zM62 11l1 1 1 2h-3l1-3zm-4 7h2c1-1 0-1 1-2h3c2 1 0 1 3 1l-3-6c0-1 0-2-2-2-2-1-2 3-2 4-1 2-1 3-2 5zM22 33c-2 0-2-1-4-1-1 2 0 1 2 4-3-1-4-2-5 0 2 1 5 3 7 2 0-1-1-2-2-4 1 1 3 2 4 2 1-2 1-1-1-4-1-2 0-2-2-3-1 2 0 2 1 4zM35 21c3-1 4 2 2 3-1 1-3-1-2-3zm1-2s-6 1-2 6c1 0 2 1 4 1 1-1 0-1 1-2 1 0 0 1 1 0 0 0-3-9-4-8-2 1-1 2 0 3zM109 31c-1-3 2-5 3-4s0 4-3 4zm-3-1h2c0 1 0 1 1 2s2 1 3 0c2-2 3-6-1-6 1-1 1-1 2-3h-1c-1 0-5 6-6 7zM27 63c0 2 0 1-1 2 0 0-1 1 0 2 2 1 2 0 3-1 2-2 1 0 2-2-2-1 1 1-1 0-3-1-1-5-6-1 1-3 2-4 0-4-1 0-1 0-2 4 0 1-1 3 2 2 1 0 2-2 3-2zM110 64c-1 1-3 0-2 3l8-3c2 1-1-1 1 1h1c2 0 0-3 0-5-3 0-2 0-2 2l-6 2zM138 106c-3-3-10 0-7-6l-2-1c-1 1-2 2 0 3v1h-1s0-1-1 1l5 2c2 0 4 1 6 2v-2zM50 16c0-2 1-2 2-1-1 1 1 0-1 1h-1zm4 1c-2 0-1 0-2 1s-1 1-2 0c0-1 0 0 1-1h1s1-1 2-1c-1-5-6-4-6 0 0 5 5 5 6 1zM28 27c0-2 1-3 2-2 0 1 1 0 0 1-1 0-1 0-2 1zm5-1c-2 1 0 1-2 2h-2c2-2 3-1 4-3-1-1-2-2-4-2-2 1-3 2-2 4 2 4 6 2 6 1v-2zM89 17c1-2 3-2 3 1l-3-1zm3 3c-2-1-3 1-3-2l4 1c1-5-4-6-5-3-2 5 3 7 4 4zM76 16h-2c-1-1-1-2 0-3 3-1 3 2 2 3zm-2-5c-5 2-2 8 2 7 4-2 2-8-2-7zM123 43c1 1 1 1 1 2-1 1-3 0-2-1 0-1 0-1 1-1zm3 1c-3-1-2-3-5-2-1 1-1 2 0 3 2 2 0 0 2 3 1-1 4-3 4-4 1-2-1-4-3-3 1 2 3 1 2 3zM116 33c1-1-1-1 1-1 1 0 2 1 0 2l-1-1zm1 4l-1-1h-1c-1-3 0-2 0-2 1 0 2 1 2 2 4 0 3-7-2-5-4 2-2 9 2 6zM130 52c2 0 2 2 1 3 0-1 0 0-1-1v-2zm0 5c-1-3-4-2-2-4 2 1 2 2 3 4 4-2 2-7-2-6s-4 6 1 6zM16 43c-3 1-4-2-3-3s4 0 3 3zm-3-4c-1 0-1 0-2 1-1 3 3 6 5 5 4-2 1-9-3-6zM6 49c0 1 0 0 1 1l3 2h2c1-3-4-1-3-5 2-1 2 1 5 2v-1c0-1-5-5-6-2s-1 1-2 3zM79 18h2v-1s1-1 1-2c1-2 3-2 2 2-1 2-1 2 1 2 1 0 0-1 1-2v-4c-1 0-2-1-4 0 0-1 0-1-1-1l-2 6zM131 62c-3-1 1-2-1-4-3 5 3 9 3 4v-3c2 1 1 0 1 2s0 1 1 2c2-4-3-9-4-3v2zM97 24l4 2c2 1 3 0 0-1l-2-2c1-2 3-4 3-6l-1-1c-1 1-4 6-4 8zM35 145v-1c2-2 4-6 4-7l-1-1c-1 1-5 8-6 10h2l1-1zM123 131c0-2-3-3-4-4-2-3-2-3-4-4l-1 1 8 8 1-1zM78 153c0 2-1 1 1 1 1-1 1 0 1-1l-2-10h-1v1l1 9zM124 49c0 2 0 2 2 3 1-2-2-1 1-3h3l1-1c0-1 0 0 1-1 0-1 0-1-2-1s0-1-1 0h-1c0 1 0 1-1 2-1 0-2 0-3 1zM68 17h2V8h-1c-1 2-1 7-1 9zM27 33l1-1c0-1-1-2-3-4 0 0 0-1-1-1 0-1-1-1-1-1 0-1 0-1-1-1-1 2-1 0 2 4 1 1 2 2 3 4zM117 39l1 2c1-1 2-2 4-3 2 1 0 2 2 1v-1c0-1 0-1-2-1 1-1 1-1 0-2-1 1-4 3-5 4zM86 38h1c1 1 1 0 2 1 0 1 0 1-1 2-2 1-1-1-2 1 4 2 6-5 1-6l-1 2zM18 65h2l2-6-2-1zM104 28c1 0 1 1 2-1s3-4 1-5c-1 0-2 2-2 3-1 2-2 2-1 3zM104 65l2 2c-1 2-2 2-2 4 1-1 5-4 2-7-1 1-1 1-2 1zM76 141c0 1 0 0 0 0h2v-2h-2v2zM112 123c1-1 1 0 2-1l-2-2-1 1 1 2zM41 134c0-1 0-1-1-1l-1 1 2 1v-1zM107 22c2 0 3-1 1-2l-1 2zM121 87c1-1 1-1 1-2 0 0-1 0-1 1v1z"/></g><g id="_1949038565696"><path class="fil13" d="M261 135v11h-2v-10c0-1 1-1 2-1zm-1-3h1c2 2-2 3-2 1l1-1zm3 1c-1-2 2-1 5-1 1 0 2 0 2 1s-2 1-4 1h-2c-1 0-1 0-1-1zm-25-4c0-3 5-2 6-2s2 1 2 2l2 3h8c2 0 2 0 2 2h-7c-3 0-2 0-4 2s-2 3-3 3c-4 0-5 0-6-2h4c2 0 2 0 3-2 1-1 2-2 1-3-3-4-1-3-8-3zm24-5c-1 4 0 7-2 7-1 0-1-2-1-3 0-6 1-4-3-7-2-2-1-2-2-7 1 0 1-1 2-1v6c1 0 4 2 5 2 0 0 3-1 4-2v-5c1 0 0 0 2 1 0 1-1 2-1 3 0 4 0 1-4 6zm7-31h4c1-1 2-1 3-2 1 0 3 1 4 2 2 1 3 1 5 1 1 4 0 2-5 4-2 1-3 2-6 2 0-1 0-1 1-1 1-1-2 0 2-2 1 0 1 0 1-1-1-2-3-1-5-1l-3-1c-1 0-1 0-1-1zm-18 0c1 0 10-2 9 1 0 0-1 0-1 1 0 2 0 4-2 4h-3c0 1 1 1 3 1 3 0 2-2 4-1 1 0 1 0 1 1 3 1 5 1 7 1 4 0 4 1 10-1 2-1 3-2 6-2 1 2 0 2 4 2 1 0 1 1 1 0l-2-1h-2v-7c3-1 4 1 7 2h18c1 0 8-1 9 0s0 11 0 14c0 13 0 22-11 31-3 2-8 5-12 6l-2 1c-2 0-4 1-5 2-1 0-2 0-3 1-1 0-1 0-2 1l-10 4c-1 1-3 2-5 2 0-1 1-1 1-2v-24c0-3 0-27-1-28h-1l1 29h-5c-2 0-2 0-2-1v-3c0-2-1-3 0-4 6-4 5-1 5-9-1-1-5-4-6-4 0 2 1 2 2 4v4s-3 2-4 2c0 0-2-1-3-2 0-1 1-5 1-6s1 0 1-2c-2 0-5 3-6 4v6c1 1 4 2 4 3 1 1 1 6 1 8h-9c0-1-1-1-1-1l-3-4h-4c-2 0-3 0-4 2l-2 2v1c1 0 2 0 3-1 1 0 4-1 5 0h1c0 1 1 2 1 3s-1 2-2 3h-4c-1-1-3-1-4-1 0 1 1 1 1 2 1 1 2 3 3 3h3c5 0 4-1 7-5h9v9c0 3 0 4 5 3v-12h7v17c-1 0-1 1-1 2v2c0 1 0 1-1 1 0 0-1-1-2-1 0-1-1-1-2-1l-1-1-4-2c-1 0-2 0-2-1-1 0-2 0-3-1l-13-5c-1 0-2-1-2-1-7-2-13-6-17-12-2-3-3-6-4-10-1-2-1-5-1-7V94c4-1 23 0 30 0 2 0 2-1 4-1zm16 0c0 2 2 2 4 2 1 1 2 1 4 1h1c0 1 0 1-1 1-4 1-7-2-10-2 1 1 5 2 7 3h1c-2 2-6-1-9-1 1 0 1 1 3 1l3 2c-4 0-6-1-10-3 0-1 1-3 1-4 1-2 2-2 4-2 1-1 3-1 5-1h5c0 1-1 1-1 1-4 1-6 0-7 2zm23-16c-1-1 0-2 0-2 2 0 2 1 2 1 0 1-1 1-2 1zm-12-2s1 1 1 2h-3c1-1 0-1 1-1 0-1 0-1 1-1zm-3 0v-2c2 0 2 2 0 2zm4-1c0-2 1-2 1-2v3c-1 0-1 0-1-1zm13-2h1v3c-1-1-1-1-1-3zm-3 2v-2c1 0 1 0 1 2h-1zm-13-3h3v1c-2 1-1 1-3 0v-1zm13-2h3c0 2 0 1-1 2-1 0-2 0-2-2zm-71 1c3-1-2-1 9-1h9v1c0 1 0 0 1 1v-1-1c2 0 3 1 4 2l1 2c1 2-3 2-7 2-1 0-17 0-18-1 0-1 0-2 1-3h-1V61c1 0 2-1 3-1 0 3 0 5 1 6l1 1h-1c0 1-3 1-3 3zm16-4h-10c-3 0-3-1-3-4v-7c0-6 0-5 9-5s8-1 8 12c0 4-1 4-4 4zm-17-6v-4c0-1-1-1 1-2h2v5c-1 0-2 1-3 1zm102 7l-7 8h-1c-1-5 0-12 0-18 0-2 0-2 3-5l4-4s0-1 1-1v20zm-64-17s2 2 2 3h-5c0-1 0-1 1-2 1 0 1-1 2-1zm51-7c1-1 1-1 2-1l1 1v7c0 1-2 1-2 1-1-1-1-8-1-8zm-34 15c0-3 0-4 2-5l6-5c1-1 2-2 3-2s1 1 1 2v2h6c1-1 2-1 3-1h3l-1 1c-4 4-1 2-10 5-2 0-4 1-6 1-2 1-5 2-7 2zm-15-8c-1 0-1-1-1-1-1-1 0-2 1-2 1 1 1 3 1 4-1 0-1 0-1-1zm-6 1l1-4c1 0 2 1 2 2-1 1-2 2-3 2zm50-5l1 3c1 1 1 0 3 0v3c1 1 2 1 4 0 1-1 1-1 1-4 3 0 5-1 7-1 0 1-4 5-5 6h-1c-1 2-1 2-6 3l-11 1c-1 0-1-1-1-2 0-2 1-2 3-4 0-1 1-1 1-2 1-1 1-1 3-2 1-1 0-1 1-1zm-43 0c1 0 1 0 1 1 0 2 1 5 1 6-1 0-1-1-1-3l-1-3v-1zm-8 7c-1 0-2 0-2 1s2 0 3 0h11c1 0 1 0 1-1h-2c0-1-1-4-1-5v-2c2 0 1 0 4 3 1 0 1 1 2 1h1l1 1v29h1c1-2 0-24 1-28h3c0 1 0 1-1 1 0 1-1 1-1 2v2c0 1 1 1 1 2 4 0 9-2 13-3l7-2v4c2 1 2 0 4 0 4 0 7-1 10-1 1-1 2-1 4-1v21h-16v-8c-1-1-5-1-6 0s1 7 0 8h-6c-1-2 0-5-1-7h-1c-1-1-3 0-4 0-2 0-2 0-2 1v6c-2 0-3-1-3 1h37c3 0 3-1 5-3s4-4 6-7h1v24c-4 0-26 1-29 0-1-1-2-1-4-2-3 0-2 0-2 3-3 0-6-2-8-3-3-1 1-2-5-1-4 0-8 0-11 2-1 1-1 0-3 0-6 0-6 1-10 2-7 0-17-1-24-1h-6c-2 0-1-1-1-4v-4-8c0-1 1-1 3 0h21c2-1 2-1 3-2 0-1-2-3-3-4 0 0-1-1-1-2h-2s-1 0-1-1c1-2 2 1 2-6 0-11-2-6 6-11 3-2 4-4 6-4 0 1-1 6-1 7zm6-7c0 1-2 2-3 0 1-1 3-1 3 0zm-3-4c0-1 0-2 1-3v-3c1 1 1 1 1 2 1 4 2 4-2 4zm16-22c2 0 1 0 2 1 2 1 7 5 9 6 4 2 3 1 6 3 4 1 10 2 15 2 2 0 6 0 8-1l2-1h2l5-2c2-1 1-2 3-2 0 3 0 18-1 18-2 1 0 0-1 1s-7 2-9 2c0-6 1-6-2-6v-2c1-1 2 0 2-2h-4c0 1-1 1-1 3 1 1 1 0 1 1s0 0-1 1v6h-2l-1-5c-1 0-2 2-3 3-1 2-1 1-4 2l-10 1c0-1 0-5-1-5-1-1-1 0-3 2-1 1-4 4-6 4h-6V20zm-34 28h1l4-3c3-1 9-6 11-9 1-1 1-2 2-2v2c-1 3 0 6-2 6-1 1 1 0 0 0-2 1-1 0-2 1 0 1 0 0 1 0h8c2 0 3 1 3-1h-2c-1-2-1-4-2-5v-2c1 0 1 1 2 1 4 4 8 6 9 7v3c0 2 1 4-1 3-1 0-3-1-4-2l-1-2c-1-1-9 0-10 0-2 0-3-1-4 1-1 1-7 6-9 6l-1-2c-1-1-2-1-3-1v-1zm33-7c-2 0-4-1-5-2s-3-2-4-4c2 0 3 1 4 1h5v5zm-53-15c1 2 0 0 2 1h1l1 1h1l4 2c2 1 4 2 6 2h14c3-1 5-2 7-2l6-3c2-2 4-2 6-4 1-1 3-4 5-4v15c-2 1-7 0-8 0 0-1-2-1-3-2-2-2-1-2-4 0l-5 3c-3 1-5 3-8 3l-3 1c-3 1-9 2-12 2-1 0-4 0-5 1 2 0 15-1 17-2 1 0 2 0 2-1l6-1c1-1 5-3 6-3 0 1-5 5-6 6-3 1-5 3-7 5-2 0-3 1-5 2-3 2-8 0-11 1-2 1-1 3-2 3-1 1-2 1-4 1v-6c0-3 0-4 1-6-1-1-1-4-1-6v-5l-1 10v11c0 8 1 16 1 23v24c0 7-1 16 0 22 0 2 1 3 1 5 1 3 2 6 4 8l3 3c3 4 9 7 14 9l12 5c2 0 3 1 4 2 2 0 3 1 4 2 1 0 2 0 2 1h2c2 1 3 2 4 2 3 1 2 2 5 1 5-2 10-5 16-8l8-3s1-1 2-1l6-2c9-5 16-13 18-23l1-5v-6c-1-3-1-14-1-17 0-2 0-20 1-23V47 24c-1 0-2 1-3 1-2 2-7 4-10 5-4 1-8 1-13 1-4-1-7-2-11-3-6-2-11-6-15-10l-1-1c-1 0-2 1-3 2-5 5-13 9-20 11-6 1-12 1-17 0-4-1-5-1-7-2-1 0-5-3-6-3l-1 1z"/><path class="fil13" d="M238 28h6c1 0 1-1 2-1 2-1 6-2 8-3l9-6c0-1 5-6 5-6 1 0 1 0 2 1 6 6 3 4 11 10 4 3 13 5 18 5 3 0 5 0 8-1 6-1 10-4 15-7 1-1 1-2 3-2v87c0 6 0 16-2 21-1 3-2 5-3 7l-5 6c-1 1-5 4-7 5l-3 2c-1 0-1 0-2 1-1 0-2 1-3 1-2 1-3 1-5 2-3 1-5 2-8 3l-15 8c-3 2-2 1-7-2-1 0-1 0-2-1-1 0-2-1-2-1-2 0-4-1-5-2l-5-2c-5-1-10-3-14-5-1 0-1 0-2-1l-2-1c-2-1 0 1-3-1l-1-1c-2-1-4-2-5-3s-2-1-2-2l-2-2c-4-4-4-5-6-10l-1-6c0-1-1-1-1-3V18c2 0 5 3 6 4l5 3c2 1 2 0 4 1 1 1 2 1 3 1 3 1 4 1 8 1zm30-18c-1 0-1 2-3 3-2 2-2 3-3 2s-2-2-2-3-1-2 0-3c0-6 7-10 11-8 10 4 5 14 3 14-1 1-3-3-4-4s-1-1-2-1zm-8-7c0 4-3 3-1 10 1 3 4 3 0 6-2 2-5 4-8 5-12 5-25 3-35-5l-4-3c0-1-1-1-1-1v106l1 3c1 5 3 9 6 13 1 0 1 0 1 1l1 1c1 1 2 2 4 3 1 1 4 3 6 4 1 0 1 0 1 1l19 7h1c5 2 10 4 15 7l4 3c0-1 1-2 4-3l5-3c2-1 4-3 7-3l4-2c3-1 5-2 8-3s6-2 9-4l4-3c7-4 11-10 14-18v-3c1-1 1-2 1-4V31 18v-3h-1l-2 2-1 1-4 3s-1 0-1 1c-3 1-5 2-8 3-8 3-17 2-24-2l-5-2-1-1c-1-1-2-2-4-3 3-4 3-4 3-9 0-2-2-5-3-6-3-2-4-2-8-2-1-1 0 0-2 0-2 1-3 3-5 3z"/><path class="fil13" d="M232 102c4-1 8 2 9 6 1 5-2 9-6 10-8 1-13-7-9-13 2-2 3-2 6-3zm-7-4c0 2 1 1 1 4-4 0-2-4-6 1 0 1-2 2-2 2 1 1 6 4 2 5-1 0-2 1-2 1l1 3c2 3 1 2 2 3h2c1 0 2 0 2 1-1 1-2 1-2 2l6 4c1 0 2-5 4-3l1 3c1 0 6-2 7-2 0-2-1-2-1-3 3-1 3 2 5 0 0 0 4-4 4-5-2-2-4-1-4-3 2-1 2-1 3-1v-1-1c0-1 0-1-1-2 0-1 0-2-1-3-1 0-2 1-4 1 0-1 0 0 2-2 0-1 1-1-1-2s-4-3-6-3c0 1 0 1-1 2-1 2-2 0-2-1-1 0-1-1-2-2-1 0-2 1-3 1-2 0-3 1-4 1zM305 101c3 0 2 1 4 1 3 0 3-1 4-1l2 2c0 1 1 1 2 2 0 2 0 1-2 2-1 1-1 1-1 3-1 0-3 1-3-1-1-1 0-2-2-2-1 1-1 2-2 3-3 0-1-2-3-4-1-1-1-2-1-3l2-2zm3-5c-3 1-3 1-6 3 0 1 0 0-1 1-1 2-1 3-1 6 1 8 12 10 17 4 3-3 3-9-2-12-1-2-4-3-7-2zM296 113l1 2c0 2 0 2-2 2v-2c0-2-1-3 1-2zm-7-1l1 1v2c0 2 0 2-1 2-1-1-1-3 0-5zm-5 5v-4h1s1 4-1 4zm-8-6c1 0 1-1 1 1v1c0 1 0 0-1 1 0-1-1 0 0-3 0-1 0 0 0 0zm7-1c4 0 11-1 14 0v2h-16c-1-3 0-2 2-2zm-6-3c3 2 2 2 2 4-1 0-1 0-3-2-1 0-2-1-2-2v-2c1 0 1 1 3 2zm3-3c4 0 8 0 11-1 1 0 1 1 2 1 1 1 3 3 3 4h-13c-3 0-3 1-5-1s-3-2-3-3h5zm-3-1h-4c0 5-1 4 1 6 1 1 0 3 0 4l2 2c0 1-1 0 0 1l1-1c0-1 0-1 1-1v-2c2 0 1 1 2 1 2 0 2-1 3 0 0 1-1 2-1 3l2 2v1c1 0 1 0 1-1 1-2 1 2 1-5 1-1 2-1 2 1v3c0 1 1 1 1 1 0 1 0 2 1 2v-2c1-1 1 0 1-1v-4c1 0 2-1 2 0 1 0 1 1 1 4 3 3 1 2 2 3l2-3v-5c1-3 0-4-1-6-1 0-4-3-5-3 0-1-13 0-15 0zM249 67c0-1 1-1 2-2 0 0 3-4 4-3l4 4c1 0 1 0 1 1h-11zm12-2c-1 0-1 0-2-1-5-5-4-2-1-6 0-1 0-1 1-1 1 1 2 7 2 8zm-12 0c0-1 0-3 1-4 0-2 0-2 1-3 1 0 1 1 2 2s1 1-1 3c-2 1-2 2-3 2zm13-6c0 1 2 7 2 8-2 0-2-1-2-2l-1-6c0-1-1-1-1-3 2 1 1 1 2 3zm-7 1l-2-2c-1 0-1 0-1-1h5c0 1-2 2-2 3zm-7-4c0 1-1 0 1 1l-1 4v6h-2v1h20c0-2-1 0-1-2l-2-8c-1-2 0-1 0-3h-13c-1 0-1 0-2 1zM287 146c1 0 0 0 1-1 2-2 4-6 7-7 5-1 14 1 19-6 1-2 3-6 3-8 1-2 0-3-1-3-3 1-5 1-7 1-1 7 3 4 4 7 1 1 1 1 0 2-1 2-2 2-3 3-6 4-12 1-17 4-2 1-2 3-4 4l-1 1v1c-1 1-1 1-1 2zM287 132h5c0 1 0 1-1 1 0 0-4 1-4-1zm3-3s0-1 2 0l2 1c1 2-2 1-2 1-2 0-5 0-2-2zm5 1l-1-1v-1h-2c0-2 1-2 2-2 1 1 2 2 3 2l-2 2zm0-4c0-3 3-2 4-1 0 1-1 2-2 2h-1c0-1-1-1-1-1zm-4 12c0-2-2-1-1-3 1-1 1 0 3-2l3-3c6-4 4-5 4-6 2 0 1 1 3 1 0-3-4-2-5-2s-1-1-2 0c-1 0-2 1-3 2-2 1-1 0-3 2-3 3-6 5-2 7 1 1 0 0 1 2 0 1 1 2 2 2z"/><path class="fil13" d="M277 134c0-1 0-2 1-2 4 0 2 2 1 3-1 0-1 0-2-1zm0-5c1 0 4 0 3 1 0 2-2 1-3 1v-2zm0-1c0-1-1-1 1-1 3-1 3 1 1 1h-2zm0-2c0-2 1-3 3-3v2l-3 1zm4-3c0-1 2 0 3 0h1c1 0 0 0 1-1h-2c-2 0-3-1-5 0-3 2-3 3-3 6 0 5-1 6 2 8s1 2 8 2v-1c-2-1-5 1-6-1 0-1 1-1 1-3v-7-3zM224 55c0-3 1-3 7-3 3 0 3 0 4 1v10c-1 1-1 1-3 1h-6c-1 0-1 0-2-1v-8zm-1 0v8c1 2 4 2 7 2h5c1-1 1-4 1-5v-7c0-1-1-1-1-1l-8-1c-3 0-4 1-4 4zM267 77v-2c0-1 0-1-1-2v-2-2h-17c-1 0-3 0-3 1s1-1 0 3v3c0 1-1 3 0 3 1-2 1-7 2-9h14c1 1 1 3 1 4 1 3 0 4 2 4 0-3-2-6-2-8 3 0 2 6 4 7zM306 62c0 3 0 3-2 3s-2-1-2-2 0-2 4-1zm-5 2l-3 1c0-3 0-3 2-3s2 0 1 2zm-4 0c-1 1-3 1-4 0 0-3 0-3 4-2v2zm-3 2h13c1-1 0-3 0-5-2-1-6 0-8 0-8 0-7-1-7 3 0 2 0 2 2 2zM287 62v2c-1 1-1 1-2 1s-1-1-1-2c-1-1-1-1 1-1h2zm-5 0v1c1 2 0 2-1 2-2 0-2-1-2-2s0-2 3-1zm-4 0c1 3 0 3-2 3-1 0-1-1-2-2 0-2 2-1 4-1zm-5 1l1 2c2 0 12 1 14 0v-1c0-4 1-3-8-3h-5c-2 0-2 0-2 2zM227 110s1-1 1-2c0-2 5-5 9-2l1 1c4 8-9 12-11 3zm5-6c-2 0-3 1-4 2-4 5 1 11 7 10s7-8 2-11c-1-1-4-2-5-1zM304 71c0-1 1-2 2-1 1 0 1 2 1 2-2 1-3 1-3-1zm-3 0c0-1 2-2 2 0 1 2-1 2-2 1v-1zm-3-1c1-1 3 1 2 2s-3-1-2-2zm-1-1v4c0 1 2 0 3 0h7c1 0 0-4 0-4h-10zM310 83c2-1 1 0 3 0 0-3-4-2-4 1 0 2 1 4 3 3 1 0 1 0 1-1h1c1 1 1 1 3 1v-3h-1c0 2 1 0 0 2h-1c0-1-1-1-1-2 1-2 2-1 3-1 0-2-2-3-4 0v1h-1v2c-2 0-2-1-2-3zM293 86c-1 0 0 0-1-1 0 0-1-3 2-2v1c0 2-1 2-1 2zm3-3c2-1 2 0 2-2h-2l-1 2c-1-1 0-1-1-1-1-2-3 0-3 2 0 1 0 3 1 3h2l1-1c0-1 0 1 0 0h1c0 1-1 0 0 1v-1c1-2 1 0 2-2h-1l-1-1zM233 85c0 1 1 2 2 2s1 0 1-1h1c1 0 0 0 1 1 2 0 3 0 3-2-2 0-1 0-1 1-2 1-2-1-2-1v-2c1-1 1 0 2 0 0-2-1-3-3-1v3c-1-1-1-1-2-1 0-1 0 0-1-1h2c0-3-3-1-3 0 0 2 2 1 2 3-1 1 0 0-2-1zM266 85c0-1 0-3 1-2 2 0 1 2 1 3-1 0-1 0-2-1zm2 2c1 0 1-1 2-2v1c0 1 2 1 2 1 1 0 1 0 1-1-2 0-2 1-2-1v-3h-1l-1 1v-1c-2-2-3 0-4 1 0 1 0 2 1 3s1 1 2 1zM308 119v2c2 0 8 0 9-1v-2c-2 0-1 1-4 1h-5zM245 86c2 2 2-3 4 1h2v-4c0-2 1-1 0-1s-1-1-1 2c0 1 1 1 0 2-1 0 0 0-1-2 0-2 0-2-1-2-1 1-1 2-2 4h-1zM306 103c-1 0-2 1-1 2 2 5 5-3 2-3-1 0-1 1-1 1zM245 85v-2-1c-1 0-1 0-1 2-2 0 0-2-2-2v2l1 1v2c2 0 1-1 2-2zM306 85c2 1 0 2 2 2v-3-2c-1 1 0 1-1 2-1 0 0-2-2-2v3c0 1-1 2 1 2v-2zM302 83c0-1 1 0 2-1 0-1 0-1-1-1-2 0-2 1-2 2v4h3c-1-1-1 0-2-1 0-1 0-1 1-1 1-1 1 0 1-1-1-1-2 0-2-1zM310 104c0 1 0 2 1 3 1 0 2-1 2-1 1-2 0-2 0-3-2-1-2 0-3 1zM278 83c1-1 2 0 2-2-1 0-2 0-3 1v3c0 2 0 2 2 2h1l-1-1c-1 0-1 1-1-1 1 0 1 0 2-1-1-1-2 1-2-1zM226 73c1 0 7 1 8 0 0-1 0-1-4-1-3 0-4 0-4 1zM222 87c0-3-2-2-1-4l1-1c-2 0-1 1-2 1-1-1 0-1-1-1v3c3 0 1 2 3 2zM253 83c-1-1 1-1-1-1 0 2 1 0 1 5h1v-3c1-2 1-1 1-2-2 0 0 1-2 1zM228 87l1-1v-2c0-2 1-2-1-2v4h-2c0 1 1 1 2 1zM286 83c1-1 1 0 2-1 0-1-1-1-3 0v3h2c1 0 1 0 1-1-1-1-1 0-2-1zM311 118v-2c-1-1-1-1-2-1 0 3 0 3 2 3zM284 87c1-1 1-2 0-3h-1v2c-2 0 0 0-2-1 0 2 1 3 3 2zM313 114v3c2 2 2-3 1-3h-1zM274 82c-1 0 0 3 0 4 0 2 2 1 2 1 0-1 0-1-1-1s-1 0-1-1c0-3 1-3 0-3zM255 87c2-1 1-2 2-1h2l-1-2c-1 0 0 1-1 1s0-1-1-1l-1 3zM315 34c0-2-2-3-3-3 0 1 0 1 1 2 1 0 1 1 2 1zM265 85c-2 1-1 2-3 0v2h2s1-1 1-2zM281 83c2 0 0-1 2 0h1c0-2-3-2-3 0zM262 83c1-1 1 0 2 0 0-3-2-2-2 0zM312 33c-1-1-1-1-2-1 0 1 1 3 2 2 1 0 0-1 0-1zM287 86h-2v1h3v-1c-1 0 1 1-1 0zM310 37c1-1 0-2 0-3h-1c0 1 0 2 1 3zM258 82c-2 0-2 0-2 2h2v-2zM239 73c3 1-1-3 0 0zM314 66h1v-1c-1 0-1 0-1 1zM314 35c-1 0-1 0-1 1h1v-1zM314 69c2 0 2 0 2-1-2 0-1 0-2 1zM314 61c2 0 2 0 2-1-2 0-1 0-2 1zM317 36c1 0 1 0 2-1-2 0-2 0-2 1zM228 70l1 1v-2c-1 1-1 0-1 1zM226 71c1-1 1 0 1-1s0-1-1-1v2zM316 64h1v-1c-1 0-1 0-1 1zM307 36c1 1 1 1 2 0-1-1-1-1-2 0z"/></g></g></svg>