<svg xmlns="http://www.w3.org/2000/svg" width="324.159" height="16.959" viewBox="0 0 3377 177" xmlns:xlink="http://www.w3.org/1999/xlink" shape-rendering="geometricPrecision" text-rendering="geometricPrecision" image-rendering="optimizeQuality" fill-rule="evenodd" clip-rule="evenodd"><defs><style><![CDATA[
    .fil2 {fill:none}
    .fil1 {fill:#990606}
    .fil0 {fill:#2B2A29;fill-rule:nonzero}
   ]]></style><clipPath id="id0"><path d="M3377 176H-1V1h3378v175z"/></clipPath><clipPath id="id1"><path d="M397 28h163v121H397V28z"/></clipPath><clipPath id="id2"><path d="M3377 176H-1V1h3378v175z"/></clipPath><clipPath id="id3"><path d="M333 176H203V1h130v175z"/></clipPath><clipPath id="id4"><path d="M3377 176H-1V1h3378v175z"/></clipPath></defs><g id="Layer_x0020_1"><g clip-path="url(#id0)"><g id="_1948966389648"><path class="fil0" d="M662 70l41-39h-19l-46 43V31h-14v95h14V91l14-12 34 47h17z"/><path id="1" class="fil0" d="M733 117c0-5-4-8-9-8s-9 3-9 8 4 9 9 9 9-4 9-9z"/><path id="2" class="fil0" d="M810 31h-14v61c0 9 0 23-17 23-16 0-17-14-17-20h-14c0 18 8 31 31 31 24 0 31-13 31-34V31z"/><path id="3" class="fil0" d="M840 117c0-5-4-8-9-8s-9 3-9 8 4 9 9 9 9-4 9-9z"/><path id="4" class="fil0" d="M944 74c-10-4-23-8-23-19 0-8 7-13 16-13 11 0 20 6 26 12l9-8c-8-10-20-16-33-16-20 0-32 13-32 26 0 16 14 22 27 27 15 7 23 10 23 18 0 10-9 13-20 14-10 0-20-6-25-13l-10 9c9 10 23 15 35 15 17 0 34-7 34-26 0-14-14-21-27-26z"/><path id="5" class="fil0" d="M1012 61c-18 0-33 14-33 33 0 18 15 32 33 32s32-14 32-32c0-19-14-33-32-33zm0 11c11 0 19 8 19 22s-8 22-19 22-20-8-20-22 9-22 20-22z"/><path id="6" class="fil0" d="M1110 126V89c0-9 4-17 15-17s15 8 15 17v37h13V88c0-19-12-27-25-27-11 0-18 6-22 13-4-9-11-13-20-13-11 0-17 5-20 11V62h-13v64h13V89c0-9 5-17 15-17 11 0 16 8 16 17v36l-1 1h14z"/><path id="7" class="fil0" d="M1192 61c-9 0-18 4-24 11l8 6c5-4 9-6 15-6 8 0 11 7 11 14h-11c-17 0-29 7-29 21 0 13 9 19 21 19 6 0 14-1 19-7v7h13V87c0-18-8-26-23-26zm10 43c0 6-4 12-16 12-6 0-11-3-11-9s4-9 17-9h10v6z"/><path id="8" class="fil0" d="M1240 39c0-4-3-7-7-7s-7 3-7 7 3 7 7 7 7-3 7-7zm0 87V62h-13v64h13z"/><path id="9" class="fil0" d="M1305 62h-13l-16 41-16-41h-13l22 54c0 7-4 14-9 14-2 0-5-1-8-2l-2 9c4 3 9 4 13 4 8 0 13-7 18-19l24-60z"/><path id="10" class="fil0" d="M1336 61c-9 0-18 4-24 11l8 6c5-4 9-6 15-6 8 0 11 7 11 14h-11c-17 0-29 7-29 21 0 13 9 19 21 19 6 0 14-1 19-7v7h13V87c0-18-8-26-23-26zm10 43c0 6-4 12-16 12-6 0-11-3-11-9s4-9 17-9h10v6z"/><path id="11" class="fil0" d="M1502 109l-9-8c-7 9-15 14-27 14-17 0-32-17-32-37s15-36 32-36c12 0 20 5 27 14l9-9c-8-10-21-17-34-17-27 0-48 21-48 48s21 48 48 48c13 0 26-6 34-17z"/><path id="12" class="fil0" d="M1540 61c-18 0-32 14-32 33 0 18 14 32 32 32s33-14 33-32c0-19-15-33-33-33zm0 11c11 0 20 8 20 22s-9 22-20 22c-10 0-19-8-19-22s9-22 19-22z"/><path id="13" class="fil0" d="M1595 126V27h-13v99z"/><path id="14" class="fil0" d="M1619 126V27h-13v99z"/><path id="15" class="fil0" d="M1689 99v-6c0-18-12-32-30-32s-31 15-31 34c0 18 12 31 31 31 13 0 21-5 26-11l-7-7c-6 5-12 8-19 8-9 0-18-7-18-17h48zm-13-11h-35c0-9 9-16 18-16 10 0 17 6 17 16z"/><path id="16" class="fil0" d="M1747 62v9c-3-5-11-10-20-10-18 0-30 12-30 33 0 19 12 32 30 32 9 0 17-4 20-9 0 17-7 22-19 22-10 0-19-5-23-7l-5 8c5 3 14 10 31 10 16 0 29-9 29-32V62h-13zm-19 53c-12 0-18-8-18-21s6-22 18-22 19 9 19 22-7 21-19 21z"/><path id="17" class="fil0" d="M1829 99v-6c0-18-12-32-30-32s-31 15-31 34c0 18 12 31 31 31 13 0 21-5 26-11l-7-7c-6 5-12 8-19 8-9 0-19-7-19-17h49zm-13-11h-35c0-9 8-16 18-16s17 6 17 16z"/><path id="18" class="fil0" d="M1922 61c-18 0-32 14-32 33 0 18 14 32 32 32s33-14 33-32c0-19-15-33-33-33zm0 11c11 0 20 8 20 22s-9 22-20 22-19-8-19-22 8-22 19-22z"/><path id="19" class="fil0" d="M1998 43v-9c-2-2-6-4-11-4-12 0-16 11-16 24v8h-8v11h8v53h13V73h14V62h-14v-9c0-7 2-12 8-12 2 0 4 1 6 2z"/><path id="20" class="fil0" d="M2126 114h-52V82h40V71h-40V42h49V31h-63v95h66z"/><path id="21" class="fil0" d="M2193 126V86c0-17-9-25-22-25-11 0-18 5-22 10v-9h-13v64h13V90c0-12 5-18 16-18 10 0 15 6 15 18v36h13z"/><path id="22" class="fil0" d="M2253 62v9c-4-5-12-10-21-10-17 0-30 12-30 33 0 19 13 32 30 32 9 0 17-4 21-9 0 17-7 22-20 22-10 0-19-5-22-7l-6 8c5 3 15 10 31 10 17 0 30-9 30-32V62h-13zm-19 53c-12 0-19-8-19-21s7-22 19-22 19 9 19 22-7 21-19 21z"/><path id="23" class="fil0" d="M2290 39c0-4-3-7-7-7s-7 3-7 7 3 7 7 7 7-3 7-7zm-1 87V62h-13v64h13z"/><path id="24" class="fil0" d="M2359 126V86c0-17-10-25-23-25-11 0-17 5-22 10v-9h-13v64h13V90c0-12 5-18 16-18s16 6 16 18v36h13z"/><path id="25" class="fil0" d="M2429 99v-6c0-18-12-32-30-32s-31 15-31 34c0 18 12 31 31 31 13 0 21-5 26-11l-7-7c-6 5-12 8-19 8-9 0-19-7-19-17h49zm-13-11h-35c0-9 8-16 18-16s17 6 17 16z"/><path id="26" class="fil0" d="M2498 99v-6c0-18-12-32-30-32s-31 15-31 34c0 18 12 31 31 31 13 0 21-5 26-11l-8-7c-5 5-11 8-18 8-9 0-19-7-19-17h49zm-13-11h-35c0-9 8-16 18-16 9 0 17 6 17 16z"/><path id="27" class="fil0" d="M2544 76l3-10c-2-3-6-5-10-5-9 0-14 6-16 12V62h-13v64h13V96c0-14 3-24 14-24 5 0 8 3 9 4z"/><path id="28" class="fil0" d="M2569 39c0-4-3-7-8-7-3 0-7 3-7 7s4 7 7 7c5 0 8-3 8-7zm-1 87V62h-13v64h13z"/><path id="29" class="fil0" d="M2637 126V86c0-17-9-25-22-25-11 0-18 5-22 10v-9h-13v64h13V90c0-12 5-18 16-18 10 0 15 6 15 18v36h13z"/><path id="30" class="fil0" d="M2697 62v9c-4-5-12-10-21-10-17 0-30 12-30 33 0 19 13 32 30 32 9 0 17-4 21-9 0 17-7 22-20 22-10 0-18-5-22-7l-6 8c5 3 15 10 31 10 17 0 30-9 30-32V62h-13zm-19 53c-12 0-19-8-19-21s7-22 19-22 19 9 19 22-7 21-19 21z"/><path id="31" class="fil0" d="M2739 117c0-5-4-8-9-8s-9 3-9 8c0 4 2 7 5 8l-5 15h4l11-16c2-3 3-5 3-7z"/><path id="32" class="fil0" d="M2842 126h8l44-95h-15l-33 71-33-71h-15z"/><path id="33" class="fil0" d="M2915 39c0-4-3-7-7-7s-7 3-7 7 3 7 7 7 7-3 7-7zm-1 87V62h-13v64h13z"/><path id="34" class="fil0" d="M2952 61c-17 0-30 14-30 33 0 20 13 32 30 32 9 0 17-4 21-9v9h13V27h-13v44c-4-5-12-10-21-10zm2 55c-12 0-19-9-19-22s7-22 19-22 19 9 19 22-7 22-19 22z"/><path id="35" class="fil0" d="M3050 62h-13l-16 41-16-41h-13l22 54c0 7-3 14-9 14-2 0-5-1-8-2l-2 9c4 3 9 4 13 4 9 0 13-7 18-19l24-60z"/><path id="36" class="fil0" d="M3081 61c-9 0-18 4-24 11l8 6c5-4 9-6 15-6 9 0 11 7 11 14h-11c-17 0-29 7-29 21 0 13 9 19 21 19 7 0 15-1 19-7v7h13V87c0-18-8-26-23-26zm10 43c0 6-3 12-16 12-6 0-11-3-11-9s5-9 18-9h9v6z"/><path id="37" class="fil0" d="M3138 126h8l29-64h-13l-20 44-20-44h-13z"/><path id="38" class="fil0" d="M3196 39c0-4-3-7-7-7s-7 3-7 7 3 7 7 7 7-3 7-7zm0 87V62h-13v64h13z"/><path id="39" class="fil0" d="M3265 126V86c0-17-9-25-22-25-11 0-18 5-22 10V27h-13v99h13V90c0-12 5-18 16-18 10 0 15 6 15 18v36h13z"/><path id="40" class="fil0" d="M3305 61c-9 0-18 4-25 11l8 6c5-4 9-6 15-6 9 0 11 7 11 14h-11c-17 0-29 7-29 21 0 13 10 19 21 19 7 0 15-1 19-7v7h13V87c0-18-8-26-22-26zm9 43c0 6-3 12-16 12-5 0-11-3-11-9s5-9 18-9h9v6z"/><path id="41" class="fil0" d="M3375 76l2-10c-2-3-5-5-10-5-8 0-14 6-15 12V62h-13v64h13V96c0-14 2-24 14-24 5 0 8 3 9 4z"/><path class="fil1" d="M121 94c-1 10-13 20-25 20-12 1-24-9-26-18 3-6 13-8 10-24-1-11-8-15-14-20 0 5 3 7 0 14-2 4-5 6-7 10-6 9 2 18 8 21-2 9-15 18-28 17-15-1-18-10-23-21 0 25 26 48 52 48 27 0 52-22 53-47zM111 69c1 1 0 1 1 1 0-1 1-1 1-1 0-1 0-2-1-3l2-1 2 1h1c0-1-4-8-6-9-1 2 0 0 0 2l-4 2c0-1 0 0 1-1-2 0-3 0-3-2 1 0 3 1 4-2l1 1 1-1c0-1 0-1-1-2l-2-2-1 1c0 2 1 2 1 3-2 1-3-1-4-2-2-2-1-1-2-3-5-1-5 7-3 8 1-3 0-7 3-6 0 3-3 1-1 4 1-1 2-2 3-1s-3 3 2 6c-2 1-2 1-3 4 3-1 6-4 9-5l1 2c-3 2-1 1-3 1-1 1-2 2-2 3 2 1 3 0 3 2zM28 56c2-1 3-3 5-5l1 2c-1 2-4 2-3 5h4c0-1-1-1-1-2l1-2c3 2 2 3 6 3l-7-7 2-2c2 1 3 3 4 4s2 3 4 2l-6-7c1-2 2 0 1-3-3 1-11 9-12 11l1 1zM86 34c-1-1-1-2-4-2 1 5 3 2 5 6-2-1-5-2-6-2-1 3 0 1 5 3l-2 4c-1 0-2 1-3-1 2-2 3 1 3-2-5-1-6 5 0 5-1 2-2 3 0 4 2-2 3-6 4-9h2c0-3-1 0-1-3-1-1-1-2-1-3-1-4-1-4-4-5 0 3 1 2 2 5zM68 36l2 1v1h-2c-2 0-3 0-4 1-1 2 2 8 4 7-1-1-3-3-2-5l3-1c0 4 0 5 1 6 0 0-1 0-2 1l1 2c1-1 3-2 3 0-5 2-4-3-7-3 2 5 7 7 8 4s-1-2-1-6v-7c1-1 1 1 1-2h-1c-1-1-7-1-9 0v1c2 1 4 0 5 0zM2 107c-3 2-4 5-2 9 2 3 6 4 8 1s-2-11 3-10c1 1 2 3 2 4 0 4-3 2-1 5 5-2 3-10-1-11-8-1-3 10-5 11-3 1-4 0-5-2-1-4 1-4 2-6 0-1 0 0-1-1zM19 127c-1-1-1-2-2-1l-5 5c-1 0-1 1-2 2l1 1c4-2 5-8 9-4 0 3-1 3-2 4s-3 2-4 3c1 1 1 1 1 2 2-1 3-3 5-4 2-2 4-2 5 1 0 1-5 4-6 6l1 2c2-3 5-4 6-6 2-3 0-6-4-6 1-3-1-4-3-5z"/><path class="fil1" d="M97 48l-1 1c-2 0-3 0-3-2 2 0 3 1 4 1l-1-2c-1 0-3-1-4 1s1 4 2 4c-1 3-1 0 0 4 2-1 4-6 6-7 2 1 5 4 6 5l1-2-11-9c-2-1-1-1-2 0 0-1 0-1-1-2-1 0-2-1-3-1v1c0 1 0 1 2 2l1 1c2 0 4 2 5 3 0 1 0 1-1 2zM83 154c-2-5 4-6 5 0 2 5-4 6-5 0zm6 3c1 2 1 2 2 1s-1-4-1-5c0-2-1-3-1-5-1-3-1-5-3-4-1 1 1 4 1 5-5-1-8 2-6 7 2 4 6 5 8 1zM37 38c3 3 4-1 7 2-1 1-4 2-5 4l1 1c2 0 2-2 4-2l1 1-1 1c-1 0-1 0-2 1 0 3 2 5 6 4 3 0 1 1 3 0 0-1 0 0-1-1v-1c-1-2-1-2-3-2v3h-2l-1-2 3-2-1-3c1-1 1 0 1-2-1-1-1-1-4-2-2-1-4-1-6 0zM28 56l-2-1c-1 3-4 6-5 9 4 2-1-2 6 2 1 0 2 1 3 1 1 1 1 1 3 0l-8-5 1-2c2 0 5 4 6 4 0 0 1 1 3 0l-8-6 1-2zM27 147c-2-1-2-3-1-4 1 0 3 1 5 2-1 1-2 3-4 2zm3 4c0-1 5-8 5-9s-3-6-8-4c0 1 0 2 1 2 2-1 1-1 3 0s2 2 1 4c-3-1-6-5-9-1-2 3 2 5 5 5 1 2 0 2 2 3zM131 117c1 0 2 0 2 2 1 1 0 3-1 4-4 1-2-5-1-6zm-6 5c2-2 1-1 0-3 0-3 4-5 4-2 0 0-1 2-1 3-1 6 7 7 7-2 1 0 0 1 1-1l-1-1c-1 0-7-3-8-3-3 1-5 7-2 9zM55 155c-1 2-1 3-4 3-2 0-3-1-2-3 2-1 4 0 6 0zm-6-4c2 1 1 1 2 0 2-2 5 0 4 2-2 1-7-2-8 3-1 4 4 4 7 3l1 2 1-2c0-3 2-7 1-9s-8-3-8 1zM107 144c1 2 2 3 1 4 0 1-2 3-3 2-4-1 2-5 2-6zm-7 2c4-1 0-2 3-4 1-1 2-1 3 1 0 2-6 4-4 7 1 2 5 3 8-2 1 0 0 1 2 0-1-1-2-3-3-4s-2-3-3-4-7 0-6 6zM62 147c0 1 6 13 7 15h2l5-16h-2l-5 14c-1-4-3-10-5-13h-2zM127 134c-2-3-8-4-7-8 2-4 6 2 10 3l1-1c-1-1-6-4-7-5-3-1-5 1-5 5-3-2-3-4-5-2v1l12 8 1-1zM54 40v3s-1 2-2 1 0-2 2-2l-1-1c-1 0-1-1-2 0-3 2 1 7 4 4 1 2 0 2 3 3l-2-9c0-2 1 0 1-3-2 0-9 2-10 3l1 2 5-2 1 1zM11 120c4-1 5 5 0 7-5 1-7-6 0-7zm5 5c1-4-1-7-4-7-3-1-6 2-7 4-1 3 1 6 4 7 3 0 6-2 7-4z"/><path class="fil1" d="M89 147c0 1 0 1 1 2l5 4c5 5 2 5 0 7 1 1 1 1 2 1 3-1 2-5 2-7 0-3 0-8-1-10-2 0-2 0-2 1l1 8-5-5c-1-1-1-1-3-1zM42 145l-2-1v9c-1 6-3 4-5 4 0 3 3 2 4 1l10-10c-2-1-2-1-3 0l-5 6 1-9zM4 64c-1 0-1-1-2-1H0c-1 2 2 2 4 3 1 0 3 1 4 1l1-1c-2-2-3 0-3-3 5-1 4-1 5-3l-6 1-2-4-1 2c0 1 1 3 2 5zM109 140c3 2 7 5 8 3 1-1-3-11-3-11l-2 1c0 1 3 7 4 9-2-1-7-4-9-5l-1 1c1 1 2 2 3 2zM45 24c2 3-3 5-3 1 0-2 0-1 1-1 0 0 0-1 2 0zm1 4c1 4-2 0-4 2 2 3 5 1 6 0 0-3-2-6-2-9-2 1-1 1-2 1l-2 1c-3 1-2 5 1 6 1 0 2-1 3-1zM62 18h1l1 3h-3l1-3zm-4 7h2c1-1 0-2 1-3h3c2 2 0 2 3 2l-3-7c0-1 0-1-2-2-2 0-2 3-2 5-1 1-1 3-2 5zM22 40c-2-1-2-1-4-1-1 1 0 1 2 4-3-1-4-3-5 0 2 0 5 3 7 2 0-2-1-2-2-4 1 0 3 1 4 1 1-1 1-1-1-3-1-3 0-3-2-3-1 2 0 2 1 4zM35 27c3 0 4 3 2 4-1 1-3-2-2-4zm1-1s-6 1-2 5c1 1 2 2 4 1 1 0 0-1 1-1s0 0 1-1c0 0-3-8-4-7-2 0-1 1 0 3zM109 37c-1-2 2-4 3-3s0 4-3 3zm-3-1l2 1s0 1 1 1c1 1 2 1 3 0 2-1 3-5-1-5 1-2 1-2 2-3l-1-1c-1 1-5 6-6 7zM27 70c0 2 0 0-1 1 0 1-1 2 0 3 2 0 2-1 3-1 2-2 1 0 2-2-2-1 1 0-1-1-3-1-1-4-6 0 1-4 2-4 0-4-1-1-1 0-2 3 0 2-1 4 2 3 1-1 2-2 3-2zM110 71c-1 1-3 0-2 3l8-3c2 0-1-1 1 0 1 1-1 1 1 1s0-3 0-5c-3 0-2 0-2 2l-6 2zM138 113c-3-3-10-1-7-7l-2-1c-1 1-2 3 0 4h-1c0 1 0 0-1 2l5 2c2 0 4 1 6 1v-1zM50 23c0-2 1-3 2-1-1 1 1 0-1 1h-1zm4 1c-2 0-1 0-2 1-1 0-1 0-2-1h1l1-1h2c-1-5-6-4-6 0s5 5 6 1zM28 33c0-2 1-2 2-2 0 1 1 1 0 2h-2zm5 0c-2 1 0 0-2 2-1 0-1 0-2-1 2-2 3-1 4-3-1-1-2-2-4-1-2 0-3 2-2 4 2 4 6 2 6 0v-1zM89 23c1-1 3-1 3 1l-3-1zm3 4c-2-2-3 1-3-2l4 1c1-5-4-7-5-3-2 5 3 6 4 4zM76 23h-2c-1-2-1-2 0-4 3 0 3 2 2 4zm-2-5c-5 2-2 8 2 6 4-1 2-8-2-6zM123 50l1 1c-1 1-3 1-2-1h1zm3 1c-3-1-2-3-5-2-1 1-1 2 0 3 2 2 0 0 2 3 1-1 4-3 4-4 1-2-1-4-3-4 1 3 3 1 2 4zM116 39h1c1 0 2 1 0 2l-1-2zm1 5c0-1-1-1-1-1 0-1-1-1-1-1-1-2 0-1 0-2 1 1 2 2 2 3 4 0 3-7-2-5-4 1-2 8 2 6zM130 59c2 0 2 1 1 2l-1-1v-1zm0 5c-1-3-4-2-2-4 2 1 2 2 3 3 4-1 2-6-2-5-4 0-4 6 1 6zM16 50c-3 1-4-2-3-3s4 0 3 3zm-3-5l-2 2c-1 3 3 6 5 4 4-1 1-8-3-6z"/><path class="fil1" d="M6 56h1l3 2c1 1 2 1 2 1 1-3-4-2-3-6 2 0 2 2 5 2v-1c0-1-5-5-6-1-1 3-1 1-2 3zM79 25h2v-1c0-1 1-1 1-2 1-3 3-2 2 2-1 2-1 2 1 2 1 0 0-1 1-2v-4c-1-1-2-1-4 0 0-1 0-1-1-1l-2 6zM131 69c-3-2 1-2-1-4-3 5 3 8 3 3v-2c2 1 1 0 1 1 0 3 0 2 1 2 2-4-3-8-4-2v2zM97 30l4 3c2 1 3-1 0-2-1 0-1-1-2-1 1-2 3-5 3-7h-1c-1 0-4 6-4 7zM35 152v-1c2-2 4-6 4-8h-1c-1 1-5 8-6 9l2 1 1-1zM123 137c0-1-3-3-4-4-2-2-2-3-4-3l-1 1c1 1 7 7 8 7l1-1zM78 159c0 2-1 2 1 2 1-1 1 0 1-1l-2-10h-1v1l1 8zM124 56c0 2 0 2 2 3 1-2-2-1 1-3 1-1 2-1 2-1 1 1-1 1 1 1l1-1c0-1 0-1 1-2 0 0 0-1-2-1h-1c-2 1 0 0-1 1 0 0 0 1-1 1-1 1-2 1-3 2zM68 24h2v-9h-1c-1 2-1 7-1 9zM27 39h1c0-2-1-3-3-4 0-1 0-1-1-2 0 0-1 0-1-1h-1c-1 2-1-1 2 4l3 3zM117 46l1 1c1 0 2-1 4-2 2 1 0 1 2 1v-1c0-1 0-1-2-1 1-1 1-1 0-2-1 1-4 3-5 4zM86 45h3c0 2 0 2-1 2-2 1-1 0-2 2 4 2 6-6 1-6l-1 2zM18 71l2 1 2-6-2-1zM104 35c1 0 1 0 2-1 1-2 3-5 1-5-1 0-2 2-2 3-1 1-2 2-1 3zM104 72l2 2c-1 2-2 1-2 3 1 0 5-3 2-6-1 0-1 0-2 1zM76 147v1h2v-2h-2v1zM112 130l2-2-2-1-1 1 1 2zM41 140c0-1 0 0-1-1l-1 2 2 1v-2zM107 28c2 1 3 0 1-1l-1 1zM121 94c1-1 1-1 1-2 0 0-1 0-1 1v1z"/></g><g clip-path="url(#id1)"><image id="Somaiya_x0020_Logo.jpg" x="397" y="28" width="162" height="121" xlink:href="kjsce_Images\kjsce_ImgID1.png"/></g><g clip-path="url(#id3)"><image id="Untitled-2.png" x="203" y="1" width="130" height="175" xlink:href="kjsce_Images\kjsce_ImgID2.png"/></g></g><path class="fil2" d="M3377 176H-1V1h3378z"/></g></svg>