<svg xmlns="http://www.w3.org/2000/svg" width="385.599" height="444.159" viewBox="0 0 4017 4627" shape-rendering="geometricPrecision" text-rendering="geometricPrecision" image-rendering="optimizeQuality" fill-rule="evenodd" clip-rule="evenodd"><defs><style><![CDATA[
    .fil0 {fill:#FEFEFE}
   ]]></style></defs><path class="fil0" d="M1151 3214c-515 6-1080 54-1145 548-74 560 477 762 1011 683 544-80 662-472 647-1048-14-566-30-1135-42-1701l1781 114 110 1580c-360-7-674-26-942 151-238 156-367 497-163 783 339 474 1230 348 1495-85 279-457-38-3351-62-4121L1086 0l65 3214zm2247-1996l-46-582-1743-124c7 719-97 631 590 653 402 13 798 41 1199 53z" id="Layer_x0020_1"/></svg>