<svg xmlns="http://www.w3.org/2000/svg" width="1127.683" height="936.639" viewBox="0 0 11747 9757" shape-rendering="geometricPrecision" text-rendering="geometricPrecision" image-rendering="optimizeQuality" fill-rule="evenodd" clip-rule="evenodd"><defs><style><![CDATA[
    .str10 {stroke:#2B2A29;stroke-width:49.1654;stroke-linecap:round;stroke-linejoin:round}
    .str19 {stroke:#2B2A29;stroke-width:49.1654;stroke-linecap:round;stroke-linejoin:round}
    .str15 {stroke:#2B2A29;stroke-width:49.1654;stroke-linecap:round;stroke-linejoin:round}
    .str21 {stroke:#2B2A29;stroke-width:49.1654;stroke-linecap:round;stroke-linejoin:round}
    .str22 {stroke:#2B2A29;stroke-width:49.1654;stroke-linecap:round;stroke-linejoin:round}
    .str8 {stroke:#2B2A29;stroke-width:49.1654;stroke-linecap:round;stroke-linejoin:round}
    .str17 {stroke:#2B2A29;stroke-width:49.1654;stroke-linecap:round;stroke-linejoin:round}
    .str5 {stroke:#2B2A29;stroke-width:49.1654;stroke-linecap:round;stroke-linejoin:round}
    .str11 {stroke:#2B2A29;stroke-width:49.1654;stroke-linecap:round;stroke-linejoin:round}
    .str9 {stroke:#2B2A29;stroke-width:49.1654;stroke-linecap:round;stroke-linejoin:round}
    .str36 {stroke:#FEFEFE;stroke-width:49.1654;stroke-linecap:round;stroke-linejoin:round}
    .str6 {stroke:#2B2A29;stroke-width:49.1654;stroke-linecap:round;stroke-linejoin:round}
    .str26 {stroke:#2B2A29;stroke-width:49.1654;stroke-linecap:round;stroke-linejoin:round}
    .str12 {stroke:#2B2A29;stroke-width:49.1654;stroke-linecap:round;stroke-linejoin:round}
    .str29 {stroke:#2B2A29;stroke-width:49.1654;stroke-linecap:round;stroke-linejoin:round}
    .str7 {stroke:#2B2A29;stroke-width:49.1654;stroke-linecap:round;stroke-linejoin:round}
    .str14 {stroke:#2B2A29;stroke-width:49.1654;stroke-linecap:round;stroke-linejoin:round}
    .str3 {stroke:#2B2A29;stroke-width:49.1654;stroke-linecap:round;stroke-linejoin:round}
    .str25 {stroke:#2B2A29;stroke-width:49.1654;stroke-linecap:round;stroke-linejoin:round}
    .str24 {stroke:#2B2A29;stroke-width:49.1654;stroke-linecap:round;stroke-linejoin:round}
    .str18 {stroke:#2B2A29;stroke-width:49.1654;stroke-linecap:round;stroke-linejoin:round}
    .str16 {stroke:#2B2A29;stroke-width:49.1654;stroke-linecap:round;stroke-linejoin:round}
    .str20 {stroke:#2B2A29;stroke-width:49.1654;stroke-linecap:round;stroke-linejoin:round}
    .str23 {stroke:#2B2A29;stroke-width:49.1654;stroke-linecap:round;stroke-linejoin:round}
    .str27 {stroke:#2B2A29;stroke-width:49.1654;stroke-linecap:round;stroke-linejoin:round}
    .str13 {stroke:#2B2A29;stroke-width:49.1654;stroke-linecap:round;stroke-linejoin:round}
    .str28 {stroke:#2B2A29;stroke-width:49.1654;stroke-linecap:round;stroke-linejoin:round}
    .str34 {stroke:#FEFEFE;stroke-width:49.1654;stroke-linecap:round;stroke-linejoin:round}
    .str4 {stroke:#2B2A29;stroke-width:49.1654;stroke-linecap:round;stroke-linejoin:round}
    .str35 {stroke:#FEFEFE;stroke-width:49.1654;stroke-linecap:round;stroke-linejoin:round}
    .str32 {stroke:#2B2A29;stroke-width:49.1732;stroke-linecap:round;stroke-linejoin:round}
    .str2 {stroke:#2B2A29;stroke-width:49.1732;stroke-linecap:round;stroke-linejoin:round}
    .str33 {stroke:#2B2A29;stroke-width:49.1732;stroke-linecap:round;stroke-linejoin:round}
    .str30 {stroke:#2B2A29;stroke-width:49.1732;stroke-linecap:round;stroke-linejoin:round}
    .str0 {stroke:#2B2A29;stroke-width:49.1732;stroke-linecap:round;stroke-linejoin:round}
    .str31 {stroke:#2B2A29;stroke-width:49.1732;stroke-linecap:round;stroke-linejoin:round}
    .str1 {stroke:#2B2A29;stroke-width:49.1732;stroke-linecap:round;stroke-linejoin:round}
    .fil2 {fill:none}
    .fil1 {fill:#FEFEFE}
    .fil0 {fill:#5B5B5B}
    .fil5 {fill:#434242}
    .fil4 {fill:#434242}
    .fil3 {fill:#2B2A29}
    .fil6 {fill:#2B2A29;fill-rule:nonzero}
   ]]></style></defs><g id="Layer_x0020_1"><g id="_1000214625120"><path class="fil0 str0" d="M11136 5141L2843 7777l124 784 514 673-62 523 8327-2653-23-523-587-658z"/><path class="fil1 str1" d="M11046 6350L3593 8755l296 347-10 95 7463-2392v-107z"/><path class="fil2 str2" d="M11124 5923L2954 8561l522 674 8249-2655z"/><path class="fil3 str3" d="M10361 6571l41-14 198 256-38 14z"/><path class="fil3 str4" d="M10086 6660l41-14 198 256-38 14z"/><path class="fil3 str5" d="M10535 6515l42-14 197 256-38 14z"/><path class="fil3 str6" d="M10838 6417l41-14 198 256-38 14z"/><path class="fil3 str7" d="M9713 6780l41-13 197 255-37 14z"/><path class="fil3 str8" d="M9319 6907l41-13 198 255-38 14z"/><path class="fil3 str9" d="M8978 7017l42-14 197 256-38 14z"/><path class="fil3 str10" d="M8851 7058l41-13 201 259-38 14z"/><path class="fil3 str11" d="M8530 7162l41-14 198 256-38 14z"/><path class="fil3 str12" d="M8330 7226l41-13 198 255-38 14z"/><path class="fil3 str13" d="M7997 7334l41-14 198 256-38 14z"/><path class="fil3 str14" d="M7734 7418l41-13 198 256-38 14z"/><path class="fil3 str15" d="M7567 7473l41-14 197 256-37 14z"/><path class="fil3 str16" d="M7320 7552l41-13 197 255-37 14z"/><path class="fil3 str17" d="M7184 7596l41-14 198 256-38 14z"/><path class="fil3 str18" d="M6892 7690l41-13 198 255-38 14z"/><path class="fil3 str19" d="M6697 7753l41-14 201 259-38 14z"/><path class="fil3 str20" d="M6420 7843l41-14 197 256-37 14z"/><path class="fil3 str21" d="M6171 7922l41-14 197 256-37 14z"/><path class="fil3 str22" d="M5814 8038l41-14 197 256-37 14z"/><path class="fil3 str23" d="M5565 8117l41-13 197 255-37 15z"/><path class="fil3 str24" d="M5216 8231l42-14 197 256-38 14z"/><path class="fil3 str25" d="M5042 8287l41-14 198 256-38 14z"/><path class="fil3 str26" d="M4616 8424l41-14 198 256-38 14z"/><path class="fil3 str27" d="M4367 8503l41-14 198 256-38 14z"/><path class="fil3 str28" d="M4125 8597l41-14 201 259-37 14z"/><path class="fil3 str29" d="M3880 8679l41-13 197 255-37 14z"/><path class="fil4 str30" d="M10805 2894c-34-45-144 5-168 56-98 202-95 439-155 656-91 325-343 630-265 958 64 265 253 604 463 431 362-298 515-779 509-1248-4-296-204-618-384-853z"/><path class="fil4 str31" d="M11136 5141c-2678 850-5503 1781-8182 2631-128-122-351-346-426-571l-137-413c-227-549 427-1442 685-1931 644-1150 269-1785 449-2820-525 73-1552-158-1552-1147 644 383 1341-209 1810 247-5-526 611-456 526-1136 402-27 613 344 669 630 64 331-113 642-375 834 2820 117 5252 2743 6533 3676z"/><path class="fil1" d="M3603 2624c4-501 250-810 239-838-12-27-284 336-273 850 12 513 41 783 6 1089s-158 640-190 770c-33 131 4 32 59-84s127-406 160-703c34-296-4-584-1-1084zM4621 189c-65-78-103-62-42 0 60 62 206 237 251 400s7 307-70 453c-77 147-238 309-300 384-63 75-20 62 52 0 72-63 223-219 300-366 78-148 115-308 70-474s-197-319-261-397zM2302 1088c-207-92-327-123-190-46 35 20 105 53 185 87 144 62 808-84 970-71 70 5 308 19 544 239 71 67 73 15 5-52-188-185-442-222-548-225-177-5-839 124-966 68zM6485 2091c-65-15-119-107 35-70 853 206 3728 2262 4179 2934 3 4 66 195-3 87-361-568-3236-2728-4211-2951zM11067 5205c-2505 780-5015 1646-7504 2428-41 12 68 27 108 15 2470-769 4968-1595 7425-2405 21-7-8-44-29-38z"/><path class="fil1" d="M11102 5237c0-6-25-31-25-25-7 223-7 451 0 674 0 7 21 7 21 0 7-223 11-426 4-649z"/><path class="fil4 str32" d="M2426 7361c-96 9-228 52-322 27-228-61-426-231-654-296-246-69-486-36-732-106-245-70-659-471-707-221-81 416 327 821 665 1076 391 297 1263 305 1750 244v-724z"/><path class="fil5 str33" d="M2954 7772l-610-1212c0 516-85 1266-22 1649 100 603 666 1152 1097 1548 0 0 59-508 62-523l-514-673s-11-784-13-789z"/><path class="fil2 str34" d="M2129 8006c-400 53-910-25-1237-156-326-132-567-438-749-715"/><path class="fil2 str35" d="M10825 3089c129 189 242 288 273 652s-171 908-293 995"/><path class="fil2 str36" d="M11136 6927L4667 9001"/><path class="fil1" d="M7719 6461l-1348 432v348l1348-431z"/><path id="1" class="fil6" d="M6378 6916l-32-23 18-24 1348-431 15 47-1349 431zm-14-47l14 47c-13 4-26-3-31-16-4-13 4-27 17-31zm32 372l-18 24-32-24v-348h50v348zm-50 0h50c0 14-11 25-25 25s-25-11-25-25zm1366-455l32 23-17 24-1349 432-14-47 1348-432zm15 47l-15-47c13-4 27 3 31 16s-3 27-16 31zm-32-372l17-23 32 23v348l-49 1v-349zm49 0h-49c0-13 11-24 24-25 14 0 25 11 25 25z"/></g></g></svg>