<?xml version="1.0" encoding="utf-8"?>
<!-- Generator: Adobe Illustrator 19.0.0, SVG Export Plug-In . SVG Version: 6.00 Build 0)  -->
<svg version="1.1" xmlns="http://www.w3.org/2000/svg" xmlns:xlink="http://www.w3.org/1999/xlink" x="0px" y="0px"
	 viewBox="1195.3 -221.3 684.1 1032.6" style="enable-background:new 1195.3 -221.3 684.1 1032.6;" xml:space="preserve">
<style type="text/css">
	.st0{fill:#2B2A29 ;}
	.st1{fill:#86C06B ;}
	.st2{fill:#D5A16C ;}
	.st3{fill:#FEFEFE ;}
	.st4{fill:#96C881 ;}
</style>
<g id="Layer_7">
	<g>
		<polygon class="st0" points="1637.6,559 1634.3,559 1634.3,695.8 1637.6,695.8 		"/>
		<path id="_x31_" class="st0" d="M1634.3,561.6l-2.6-2.6l2.6-2.6h3.2v5.2H1634.3z M1634.3,556.4v5.2c-1.4,0-2.6-1.2-2.6-2.6
			C1631.7,557.6,1632.9,556.4,1634.3,556.4z M1636.8,695.8l-2.5,2.6l-2.6-2.6V559h5.1V695.8z M1631.7,695.8h5.1
			c0,1.4-1.2,2.6-2.5,2.6C1632.9,698.4,1631.7,697.3,1631.7,695.8z M1637.6,693.2l2.6,2.6l-2.6,2.6h-3.2v-5.2H1637.6z M1637.6,698.4
			v-5.2c1.4,0,2.6,1.2,2.6,2.6C1640.1,697.3,1639,698.4,1637.6,698.4z M1635,559l2.5-2.6l2.6,2.6v136.8h-5.1V559z M1640.1,559h-5.1
			c0-1.4,1.2-2.6,2.5-2.6C1639,556.4,1640.1,557.6,1640.1,559z"/>
	</g>
</g>
<g id="Layer_6">
	<g>
		<polygon class="st0" points="1468.5,550.7 1465.3,550.7 1465.3,687.5 1468.5,687.5 		"/>
		<path id="_x31__1_" class="st0" d="M1465.3,553.3l-2.6-2.6l2.6-2.6h3.2v5.2H1465.3z M1465.3,548.1v5.2c-1.4,0-2.6-1.2-2.6-2.6
			C1462.7,549.2,1463.8,548.1,1465.3,548.1z M1467.8,687.5l-2.5,2.6l-2.6-2.6V550.7h5.1V687.5z M1462.7,687.5h5.1
			c0,1.4-1.2,2.6-2.5,2.6C1463.8,690.1,1462.7,688.9,1462.7,687.5z M1468.5,684.9l2.6,2.6l-2.6,2.6h-3.2v-5.2H1468.5z M1468.5,690.1
			v-5.2c1.4,0,2.6,1.2,2.6,2.6S1469.9,690.1,1468.5,690.1z M1466,550.7l2.5-2.6l2.6,2.6v136.8h-5.1V550.7z M1471.1,550.7h-5.1
			c0-1.4,1.2-2.6,2.5-2.6C1469.9,548.1,1471.1,549.2,1471.1,550.7z"/>
	</g>
</g>
<g id="Layer_5">
	<g>
		<path class="st1" d="M1535.1-210.1c182.5,0,330.5,136.1,330.5,304c0,93-175.7,386.7-216.4,464.3c-15.9,30.4-182.4,32.1-203.5-8.1
			c-32.7-62.1-241.2-381.9-241.2-456.2C1204.6-74,1352.5-210.1,1535.1-210.1z"/>
		<path id="_x31__2_" class="st0" d="M1868.2,93.9h-5.1l0,0l-0.4-15.6l-1.2-15.3l-2.1-15l-2.9-14.8l-3.7-14.6l-4.4-14.3l-5.2-14
			l-5.8-13.7l-6.6-13.3l-7.3-13l-7.9-12.7l-8.5-12.2l-9.1-11.9l-9.7-11.4l-10.3-10.9l-10.9-10.4l-11.4-10l-11.9-9.4l-12.4-9
			l-12.9-8.4l-13.3-7.8l-13.8-7.3l-14.1-6.7l-14.5-6l-14.9-5.4l-15.3-4.8l-15.6-4l-15.8-3.4l-16.2-2.7l-16.4-1.9l-16.7-1.2
			l-16.8-0.4v-5.1l17.1,0.4l16.9,1.2l16.6,1.9l16.4,2.7l16.1,3.5l15.8,4.1l15.5,4.8l15.1,5.5l14.8,6.1l14.3,6.8l14,7.4l13.5,7.9
			l13.1,8.6l12.6,9.1l12.1,9.6l11.5,10.2l11,10.6l10.5,11.2l9.9,11.6l9.3,12l8.7,12.5l8,12.8l7.4,13.2l6.6,13.6l6,13.9l5.3,14.3
			l4.5,14.5l3.7,14.8l3,15.1l2.1,15.3l1.3,15.6L1868.2,93.9L1868.2,93.9z M1651.5,559.4l-4.5-2.4l0,0l4.2-7.9l4.9-9.1l5.7-10.2
			l6.2-11.2l6.8-12.2l7.3-13.1l7.8-13.9l8.1-14.6l8.5-15.3l8.7-15.9l9-16.3l9.1-16.8l9.3-17.1l9.3-17.4l9.3-17.6l9.2-17.7l9.1-17.8
			l8.9-17.7l8.7-17.6l8.4-17.4l8.1-17.1l7.6-16.8l7.2-16.4l6.7-15.9l6-15.3l5.5-14.7l4.8-14l4-13.2l3.2-12.2l2.4-11.2l1.4-10.2
			l0.5-9h5.1l-0.5,9.5l-1.5,10.6l-2.4,11.6l-3.3,12.5l-4.1,13.3l-4.8,14.1l-5.5,14.8l-6.1,15.5l-6.8,16l-7.2,16.5l-7.7,16.8
			l-8.1,17.3l-8.4,17.4l-8.7,17.7l-9,17.7l-9.1,17.8l-9.2,17.8l-9.3,17.6l-9.4,17.4l-9.2,17.1l-9.2,16.8l-8.9,16.4l-8.8,15.8
			l-8.5,15.3l-8.1,14.6l-7.8,13.9l-7.3,13.1l-6.8,12.2l-6.2,11.2l-5.6,10.2l-4.9,9.1L1651.5,559.4L1651.5,559.4z M1443.4,551.3
			l4.5-2.4l0,0l2.2,3.2l2.9,3.1l3.7,3l4.4,2.8l5,2.6l5.7,2.4l6.3,2.2l6.7,1.9l7.2,1.8l7.5,1.5l7.8,1.3l8.1,1.1l8.3,0.9l8.5,0.6
			l8.6,0.4l8.6,0.3h8.6l8.5-0.1l8.4-0.4l8.2-0.5l8-0.8l7.7-0.9l7.3-1.2l6.9-1.3l6.5-1.5l6-1.7l5.3-1.8l4.8-2l4-2.1l3.2-2.2l2.4-2.3
			l1.6-2.2l4.5,2.4l-2.2,3.2l-3.1,2.9l-3.8,2.7l-4.5,2.4l-5.1,2.1l-5.6,1.9l-6.3,1.7l-6.6,1.6l-7.1,1.4l-7.6,1.2l-7.8,0.9l-8.1,0.8
			l-8.4,0.5l-8.6,0.4l-8.6,0.2l-8.7-0.1l-8.7-0.3l-8.7-0.4l-8.6-0.7l-8.5-0.9l-8.2-1.2l-8.1-1.3l-7.7-1.6l-7.3-1.8l-7-2l-6.5-2.3
			l-6-2.5l-5.4-2.7l-4.9-3.1l-4.2-3.4l-3.5-3.7L1443.4,551.3L1443.4,551.3z M1202,93.9h5.1l0,0l0.6,7.3l1.7,8.8l2.8,10.2l3.8,11.3
			l4.8,12.4l5.6,13.5l6.4,14.3l7.2,15.1l7.8,15.8l8.4,16.5l8.9,16.9l9.4,17.4l9.8,17.7l10.1,18l10.3,18.1l10.5,18.2l10.5,18.1
			l10.7,18l10.5,17.8l10.4,17.5l10.2,17.1l10,16.6l9.7,16l9.2,15.3l8.9,14.5l8.3,13.7l7.6,12.7l7,11.7l6.3,10.5l5.4,9.4l4.5,8
			l3.6,6.6l-4.5,2.4l-3.5-6.6l-4.5-7.9l-5.4-9.3l-6.2-10.5l-7-11.7l-7.6-12.7l-8.3-13.7l-8.9-14.5l-9.2-15.3l-9.7-16l-10-16.6
			l-10.2-17.1l-10.4-17.5l-10.6-17.9l-10.6-18l-10.6-18.1l-10.5-18.2l-10.3-18.1l-10.1-18l-9.8-17.8l-9.4-17.4l-8.9-17l-8.4-16.6
			l-7.9-15.8l-7.2-15.3l-6.4-14.4l-5.7-13.5l-4.8-12.6l-3.9-11.5l-2.9-10.4l-1.8-9.3L1202,93.9L1202,93.9z M1535.1-212.6v5.1l0,0
			l-16.9,0.4l-16.6,1.2l-16.4,1.9l-16.2,2.7l-15.8,3.4l-15.6,4l-15.2,4.8l-14.9,5.4l-14.5,6l-14.2,6.7l-13.7,7.3l-13.3,7.8
			l-12.9,8.4l-12.4,9l-11.9,9.4l-11.4,10l-10.9,10.4L1282-97.8l-9.7,11.4l-9.1,11.9l-8.6,12.2l-7.8,12.7l-7.3,13l-6.6,13.3L1227-9.7
			l-5.2,14l-4.4,14.3l-3.7,14.6l-2.9,14.8l-2.1,15l-1.3,15.3l-0.4,15.6h-5.1l0.4-15.8l1.3-15.6l2.2-15.3l2.9-15.1l3.7-14.8l4.5-14.5
			l5.2-14.3l6-13.9l6.7-13.6l7.3-13.2l8.1-12.8l8.6-12.5l9.3-12l9.9-11.6l10.4-11.2l11-10.6l11.6-10.2l12.1-9.6l12.6-9.1l13-8.6
			l13.5-7.9l14-7.4l14.3-6.8l14.8-6.1l15.1-5.5l15.5-4.8l15.8-4.1l16.1-3.5l16.4-2.7l16.6-1.9l16.9-1.2L1535.1-212.6L1535.1-212.6z"
			/>
	</g>
</g>
<g id="Layer_4">
	<g>
		<path class="st2" d="M1471.3,687.5h160.5c7.8,0,14.3,6.4,14.3,14.3v84.5c0,7.8-6.4,14.3-14.3,14.3h-160.5
			c-7.8,0-14.3-6.4-14.3-14.3v-84.5C1457.1,693.9,1463.5,687.5,1471.3,687.5z"/>
		<path id="_x31__3_" class="st0" d="M1631.8,690.1h-160.5v-5.1h160.5l0,0V690.1z M1648.6,701.7h-5.2l0,0v-0.6l-0.1-0.6l-0.1-0.6
			l-0.1-0.6l-0.1-0.6l-0.1-0.6l-0.2-0.5l-0.2-0.6l-0.2-0.5l-0.2-0.5l-0.3-0.5l-0.4-0.4l-0.3-0.5l-0.4-0.4l-0.4-0.4l-0.4-0.4
			l-0.4-0.4l-0.4-0.4l-0.4-0.4l-0.5-0.3l-0.4-0.4l-0.5-0.3l-0.5-0.2l-0.5-0.2l-0.6-0.2l-0.5-0.2l-0.6-0.1l-0.6-0.1l-0.6-0.1
			l-0.6-0.1l-0.6-0.1h-0.6v-5.1h0.9l0.9,0.1l0.8,0.1l0.9,0.1l0.8,0.2l0.8,0.2l0.8,0.3l0.8,0.3l0.7,0.4l0.7,0.4l0.7,0.4l0.7,0.4
			l0.6,0.4l0.6,0.5l0.6,0.6l0.6,0.5l0.6,0.6l0.5,0.6l0.5,0.6l0.5,0.6l0.4,0.6l0.4,0.7l0.4,0.7l0.3,0.8l0.3,0.7l0.3,0.8l0.2,0.8
			l0.2,0.8l0.1,0.9l0.1,0.9v0.8L1648.6,701.7L1648.6,701.7z M1643.5,786.2v-84.5h5.2v84.5l0,0H1643.5z M1631.8,802.9v-5.1l0,0h0.6
			l0.6-0.1l0.6-0.1l0.6-0.1l0.6-0.1l0.6-0.1l0.5-0.2l0.6-0.2l0.5-0.2l0.5-0.2l0.5-0.3l0.4-0.4l0.5-0.3l0.4-0.4l0.4-0.4l0.4-0.4
			l0.4-0.4l0.4-0.4l0.4-0.4l0.3-0.5l0.4-0.4l0.3-0.5l0.2-0.5l0.2-0.5l0.2-0.6l0.2-0.5l0.1-0.6l0.1-0.6l0.1-0.6l0.1-0.6l0.1-0.6v-0.6
			h5.2l-0.1,0.9v0.8l-0.1,0.9l-0.1,0.9l-0.2,0.8l-0.2,0.8l-0.3,0.8l-0.3,0.7l-0.3,0.8l-0.4,0.7l-0.4,0.7l-0.4,0.6l-0.5,0.6l-0.5,0.6
			l-0.5,0.6l-0.6,0.6l-0.6,0.5l-0.6,0.6l-0.6,0.5l-0.6,0.4l-0.7,0.4l-0.7,0.4l-0.7,0.4l-0.7,0.4l-0.8,0.3l-0.8,0.3l-0.8,0.2
			l-0.8,0.2l-0.9,0.1l-0.8,0.1l-0.9,0.1H1631.8L1631.8,802.9z M1471.3,797.8h160.5v5.1h-160.5l0,0V797.8z M1454.5,786.2h5.1l0,0
			l0.1,0.6v0.6l0.1,0.6l0.1,0.6l0.1,0.6l0.1,0.6l0.1,0.5l0.2,0.6l0.3,0.5l0.2,0.5l0.3,0.5l0.3,0.4l0.4,0.5l0.4,0.4l0.4,0.4l0.4,0.4
			l0.4,0.4l0.4,0.4l0.4,0.4l0.4,0.3l0.5,0.4l0.5,0.3l0.5,0.2l0.5,0.2l0.5,0.2l0.6,0.2l0.6,0.1l0.5,0.1l0.6,0.1l0.6,0.1l0.6,0.1h0.6
			v5.1h-0.9l-0.9-0.1l-0.9-0.1l-0.8-0.1l-0.8-0.2l-0.9-0.2l-0.7-0.3l-0.8-0.3l-0.7-0.4l-0.8-0.4l-0.6-0.4l-0.7-0.4l-0.6-0.4
			l-0.6-0.5l-0.6-0.6l-0.6-0.5l-0.6-0.6l-0.5-0.6l-0.5-0.6l-0.5-0.6l-0.4-0.6l-0.4-0.7l-0.4-0.7l-0.4-0.8l-0.3-0.7l-0.2-0.8
			l-0.3-0.8l-0.1-0.8l-0.1-0.9l-0.1-0.9l-0.1-0.8V786.2L1454.5,786.2z M1459.6,701.7v84.5h-5.1v-84.5l0,0H1459.6z M1471.3,684.9v5.1
			l0,0h-0.6l-0.6,0.1l-0.6,0.1l-0.6,0.1l-0.5,0.1l-0.6,0.1l-0.6,0.2l-0.5,0.2l-0.5,0.2l-0.5,0.2l-0.5,0.3l-0.5,0.4l-0.4,0.3
			l-0.4,0.4l-0.4,0.4l-0.4,0.4l-0.4,0.4l-0.4,0.4l-0.4,0.4l-0.4,0.5l-0.3,0.4l-0.3,0.5l-0.2,0.5l-0.3,0.5l-0.2,0.6l-0.1,0.5
			l-0.1,0.6l-0.1,0.6l-0.1,0.6l-0.1,0.6v0.6l-0.1,0.6h-5.1v-0.9l0.1-0.8l0.1-0.9l0.1-0.9l0.1-0.8l0.3-0.8l0.2-0.8l0.3-0.7l0.4-0.8
			l0.4-0.7l0.4-0.7l0.4-0.6l0.5-0.6l0.5-0.6l0.5-0.6l0.6-0.6l0.6-0.5l0.6-0.6l0.6-0.5l0.6-0.4l0.7-0.4l0.6-0.4l0.8-0.4l0.7-0.4
			l0.8-0.3l0.7-0.3l0.9-0.2l0.8-0.2l0.8-0.1l0.9-0.1l0.9-0.1H1471.3L1471.3,684.9z"/>
	</g>
</g>
<g id="Layer_3">
	<g>
		<path class="st3" d="M1535.1-210.1c133.9,0,242.5,136.1,242.5,304c0,93-128.9,386.7-158.8,464.3c-11.7,30.4-133.8,32.1-149.3-8.1
			c-24-62.1-177-381.9-177-456.2C1292.5-74,1401.1-210.1,1535.1-210.1z"/>
		<path id="_x31__4_" class="st0" d="M1780.2,93.9h-5.1l0,0l-0.4-15.6l-0.9-15.3l-1.6-15.1l-2.1-14.8l-2.7-14.6l-3.3-14.3l-3.7-14
			l-4.3-13.7l-4.8-13.4l-5.3-13l-5.8-12.7l-6.3-12.2l-6.7-11.8l-7.1-11.4l-7.6-10.9l-8-10.4l-8.4-9.9l-8.7-9.5l-9.1-8.9l-9.4-8.4
			l-9.7-7.8l-10-7.3l-10.4-6.6l-10.7-6l-10.9-5.4l-11.1-4.8l-11.4-4l-11.6-3.3l-11.8-2.7l-12-1.9l-12.2-1.2l-12.3-0.4v-5.1l12.6,0.4
			l12.5,1.2l12.3,1.9l12.1,2.7l11.9,3.4l11.6,4.2l11.4,4.8l11.2,5.5l10.9,6.1l10.5,6.8l10.3,7.4l9.9,8l9.6,8.6l9.2,9.1l8.9,9.6
			l8.6,10.2l8.1,10.6l7.7,11.2l7.3,11.6l6.8,12l6.4,12.4l5.8,12.8l5.4,13.2l4.9,13.5l4.4,13.9l3.8,14.3l3.3,14.5l2.7,14.8l2.2,15
			l1.5,15.3l1,15.6L1780.2,93.9L1780.2,93.9z M1621.2,559.2l-4.8-1.9l0,0l3.1-7.9l3.6-9.1l4.1-10.2l4.6-11.2l5-12.2l5.3-13l5.7-13.9
			l6-14.6l6.3-15.3l6.4-15.8l6.6-16.3l6.7-16.8l6.8-17.1l6.8-17.4l6.8-17.6l6.8-17.8l6.7-17.7l6.6-17.8l6.4-17.6l6.1-17.5l6-17.1
			l5.6-16.8l5.3-16.4l4.9-15.9l4.5-15.3l4-14.7l3.5-14l3-13.2l2.4-12.3l1.7-11.3l1.1-10.2l0.4-9.1h5.1l-0.4,9.4l-1.2,10.6l-1.7,11.5
			l-2.4,12.4l-3,13.3l-3.5,14.1l-4,14.8l-4.5,15.5l-4.9,16l-5.3,16.4l-5.6,16.9l-6,17.2l-6.1,17.5l-6.4,17.6l-6.6,17.8l-6.7,17.8
			l-6.8,17.7l-6.8,17.6l-6.8,17.4l-6.8,17.1l-6.7,16.8l-6.6,16.4l-6.4,15.8l-6.3,15.3l-6,14.6l-5.7,13.9l-5.3,13l-5,12.2L1632,532
			l-4.1,10.2l-3.6,9.1L1621.2,559.2L1621.2,559.2z M1467.1,551l4.8-1.9l0,0l1.6,3.3l2.2,3.1l2.7,2.9l3.2,2.7l3.7,2.6l4.1,2.4
			l4.5,2.1l4.8,1.9l5.3,1.7l5.5,1.5l5.7,1.3l5.9,1.1l6,0.9l6.2,0.6l6.3,0.4l6.3,0.3h6.3l6.2-0.1l6.1-0.4l6-0.5l5.8-0.8l5.6-0.9
			l5.3-1.1l5-1.3l4.7-1.5l4.3-1.7l3.9-1.8l3.4-1.9l2.9-2l2.3-2.2l1.7-2.2l1.2-2.3l4.8,1.9l-1.7,3.2l-2.3,3l-2.8,2.7l-3.4,2.4
			l-3.8,2.2l-4.2,1.9l-4.6,1.8l-5,1.5l-5.3,1.4l-5.5,1.2l-5.8,1l-6,0.8l-6.2,0.5l-6.3,0.4l-6.4,0.2l-6.4-0.1l-6.4-0.3l-6.5-0.4
			l-6.3-0.7l-6.3-0.9l-6-1.2l-6-1.4l-5.7-1.5l-5.5-1.9l-5.2-2l-4.8-2.3l-4.5-2.6l-4-2.8l-3.6-3.1l-3.2-3.5l-2.5-3.7L1467.1,551
			L1467.1,551z M1290,93.9h5.1l0,0l0.4,7.4l1.2,8.8l2.1,10.2l2.8,11.4l3.5,12.5l4.1,13.4l4.8,14.3l5.3,15.1l5.8,15.8l6.2,16.4
			l6.6,17l6.8,17.4l7.2,17.7l7.3,18l7.6,18.1l7.7,18.2l7.8,18.1l7.8,18l7.7,17.8l7.7,17.5l7.5,17.1l7.3,16.6l7.1,16l6.8,15.3
			l6.5,14.5l6,13.7l5.6,12.7l5.2,11.7l4.5,10.6l4,9.3l3.4,8.1l2.6,6.6l-4.8,1.9l-2.6-6.5l-3.3-8l-4-9.3l-4.6-10.5l-5.1-11.7
			l-5.6-12.7l-6-13.7l-6.5-14.5l-6.8-15.3l-7.1-16l-7.3-16.6l-7.5-17.1l-7.7-17.5l-7.7-17.8l-7.8-18.1l-7.8-18.1l-7.7-18.2
			l-7.6-18.1l-7.4-18l-7.2-17.8l-6.9-17.4l-6.6-17l-6.2-16.5l-5.8-15.9l-5.3-15.2l-4.8-14.4l-4.2-13.5l-3.5-12.6l-2.9-11.5
			l-2.1-10.4l-1.3-9.2L1290,93.9L1290,93.9z M1535.1-212.6v5.1l0,0l-12.3,0.4l-12.2,1.2l-12,1.9l-11.8,2.7l-11.6,3.3l-11.4,4
			l-11.2,4.8l-10.9,5.4l-10.6,6l-10.4,6.6l-10,7.3l-9.8,7.8l-9.4,8.4l-9.1,8.9l-8.7,9.5l-8.4,9.9l-8,10.4l-7.6,10.9l-7.1,11.4
			l-6.7,11.8l-6.3,12.2l-5.8,12.7l-5.3,13l-4.8,13.4l-4.3,13.7l-3.8,14l-3.2,14.3l-2.7,14.6l-2.2,14.8l-1.5,15.1l-0.9,15.3
			l-0.3,15.6h-5.1l0.3-15.8l0.9-15.6l1.6-15.3l2.2-15l2.7-14.8l3.3-14.5l3.9-14.3l4.3-13.9l4.9-13.5l5.4-13.2l5.9-12.8l6.3-12.4
			l6.8-12l7.3-11.6l7.7-11.2l8.1-10.6l8.5-10.2l8.9-9.6l9.2-9.1l9.6-8.6l10-8l10.2-7.4l10.6-6.8l10.9-6.1l11.2-5.5l11.4-4.8
			l11.7-4.2l11.9-3.4l12.1-2.7l12.3-1.9l12.5-1.2L1535.1-212.6L1535.1-212.6z"/>
	</g>
</g>
<g id="Layer_2">
	<g>
		<path class="st4" d="M1535.1-210.1c73.9,0,133.9,136.1,133.9,304c0,93-60.3,386.7-76.8,464.3c-6.4,30.4-73.9,32.1-82.4-8.1
			c-13.2-62.1-108.6-381.9-108.6-456.2C1401.2-74,1461.2-210.1,1535.1-210.1z"/>
		<path id="_x31__5_" class="st0" d="M1671.6,93.9h-5.2l0,0l-0.1-15.6l-0.5-15.3l-0.9-15.2l-1.2-14.9l-1.5-14.6l-1.8-14.4l-2.1-14
			L1656-24l-2.7-13.4l-3-13l-3.2-12.7l-3.5-12.2l-3.7-11.9l-4-11.4l-4.2-10.9l-4.4-10.5l-4.6-9.9l-4.8-9.5l-5-8.9l-5.2-8.4l-5.3-7.8
			l-5.5-7.2l-5.7-6.6l-5.8-6l-5.9-5.3l-6.1-4.7l-6.1-4l-6.3-3.3l-6.4-2.5l-6.4-1.9l-6.5-1.2l-6.6-0.4v-5.1l7.2,0.4l7.1,1.2l7,2
			l6.8,2.7l6.7,3.5l6.6,4.2l6.3,4.9l6.3,5.6l6,6.2l5.8,6.8l5.7,7.4l5.5,8l5.3,8.6l5.1,9.1l5,9.6l4.7,10.2l4.5,10.6l4.2,11.1l4,11.6
			l3.7,12l3.5,12.5l3.2,12.7l3,13.2l2.7,13.5l2.4,13.9l2.2,14.2l1.8,14.5l1.5,14.8l1.2,15l0.9,15.3l0.5,15.6L1671.6,93.9
			L1671.6,93.9z M1594.7,558.8l-5-1.1l0,0l1.7-7.9l1.9-9.1l2.2-10.2l2.3-11.2l2.5-12.2l2.7-13.1l2.8-13.9l3-14.6l3-15.3l3.1-15.8
			l3.2-16.4l3.2-16.8l3.3-17.1l3.2-17.4l3.3-17.6l3.2-17.7l3.2-17.8l3.1-17.7l3-17.6l3-17.5l2.8-17.1l2.7-16.8l2.4-16.4l2.3-16
			l2.2-15.3l1.9-14.8l1.7-14l1.4-13.2l1.2-12.3l0.8-11.4l0.5-10.4l0.1-9.1h5.2l-0.2,9.4l-0.5,10.4l-0.8,11.4l-1.2,12.5l-1.4,13.2
			l-1.7,14l-1.9,14.8l-2.1,15.4l-2.3,16l-2.5,16.5l-2.7,16.8l-2.8,17.2l-3,17.5l-3,17.6l-3.1,17.7l-3.2,17.8l-3.2,17.8l-3.3,17.6
			l-3.2,17.4l-3.3,17.2L1623,419l-3.2,16.3l-3.1,15.9l-3.1,15.3l-2.9,14.6L1608,495l-2.7,13.1l-2.4,12.2l-2.4,11.2l-2.1,10.2
			l-1.9,9.1L1594.7,558.8L1594.7,558.8z M1507.2,550.7l5-1.1l0,0l0.9,3.4l1.2,3.2l1.5,2.9l1.7,2.7l1.9,2.5l2.2,2.2l2.4,2.1l2.6,1.9
			l2.8,1.7l2.9,1.5l3,1.2l3.2,1.1l3.2,0.8l3.3,0.6l3.4,0.4l3.3,0.3h3.4l3.3-0.1l3.3-0.3l3.2-0.6l3.1-0.7l3-0.9l2.9-1.1l2.7-1.3
			l2.4-1.4l2.3-1.6l2-1.7l1.8-1.9l1.6-2l1.2-2.2l1-2.2l0.6-2.4l5,1.1l-0.9,3l-1.2,3l-1.6,2.7l-1.9,2.4l-2.2,2.3l-2.4,2l-2.7,1.9
			l-2.8,1.7l-3,1.4l-3.2,1.2l-3.3,1l-3.4,0.8l-3.5,0.6l-3.6,0.4l-3.6,0.1h-3.7l-3.7-0.3l-3.6-0.5l-3.7-0.6l-3.5-0.9l-3.5-1.2
			l-3.4-1.4l-3.3-1.7l-3.1-1.9l-3-2.1l-2.7-2.4l-2.5-2.7l-2.3-2.9l-2-3.1l-1.7-3.5l-1.4-3.6L1507.2,550.7L1507.2,550.7z
			 M1398.6,93.9h5.1l0,0l0.3,7.5l0.8,8.9l1.3,10.2l1.7,11.4l2.2,12.5l2.6,13.5l3,14.3l3.2,15.1l3.6,15.8l3.8,16.5l4.1,17l4.2,17.4
			l4.5,17.8l4.5,17.9l4.7,18.1l4.8,18.2l4.8,18.1l4.8,18l4.8,17.8l4.7,17.5l4.7,17.1l4.5,16.6l4.4,16l4.1,15.3l4,14.5l3.7,13.8
			l3.4,12.7l3.1,11.7l2.7,10.5l2.3,9.4l1.9,8l1.5,6.6l-5,1.1l-1.4-6.6l-1.9-7.9l-2.3-9.3l-2.7-10.5l-3.1-11.7l-3.4-12.7l-3.7-13.7
			l-3.9-14.5l-4.2-15.3l-4.3-16l-4.5-16.6l-4.6-17.1l-4.8-17.5l-4.8-17.9l-4.8-18l-4.8-18.1l-4.8-18.2l-4.8-18.1l-4.5-18l-4.5-17.7
			l-4.2-17.5l-4.1-17l-3.8-16.5l-3.6-15.8l-3.3-15.2l-3-14.4l-2.6-13.5l-2.2-12.5l-1.8-11.5l-1.3-10.4l-0.8-9.1L1398.6,93.9
			L1398.6,93.9z M1535.1-212.6v5.1l0,0l-6.6,0.4l-6.5,1.2l-6.5,1.9l-6.3,2.5l-6.3,3.3l-6.2,4l-6,4.7l-6,5.3l-5.8,6l-5.7,6.6
			l-5.5,7.2l-5.3,7.8l-5.2,8.4l-5,8.9l-4.8,9.5l-4.6,9.9l-4.4,10.5l-4.2,10.9l-4,11.4l-3.7,11.9l-3.5,12.2l-3.2,12.7l-3,13
			l-2.7,13.4l-2.4,13.8l-2.1,14l-1.8,14.4l-1.5,14.6l-1.2,14.9l-0.9,15.2l-0.5,15.3l-0.2,15.6h-5.1l0.2-15.7l0.5-15.6l0.9-15.3
			l1.2-15l1.5-14.8l1.8-14.5l2.1-14.2l2.4-13.9l2.7-13.5l3-13.2l3.2-12.7l3.5-12.5l3.7-12l4-11.6l4.2-11.1l4.5-10.6l4.7-10.2
			l4.9-9.6l5.1-9.1l5.3-8.6l5.5-8l5.8-7.4l5.8-6.8l6-6.2l6.3-5.6l6.3-4.9l6.6-4.2l6.7-3.5l6.8-2.7l7-2l7.1-1.2L1535.1-212.6
			L1535.1-212.6z"/>
	</g>
</g>
</svg>
