<?xml version="1.0" encoding="utf-8"?>
<!-- Generator: Adobe Illustrator 19.0.0, SVG Export Plug-In . SVG Version: 6.00 Build 0)  -->
<svg version="1.1" xmlns="http://www.w3.org/2000/svg" xmlns:xlink="http://www.w3.org/1999/xlink" x="0px" y="0px"
	 viewBox="1258.2 -272.8 732.7 1103.5" style="enable-background:new 1258.2 -272.8 732.7 1103.5;" xml:space="preserve">
<style type="text/css">
	.st0{fill:#2B2A29;}
	.st1{fill:#FFD358;}
	.st2{fill:#D5A16C;}
	.st3{fill:#FEFEFE;}
</style>
<g id="Layer_7">
	<g>
		<polygon class="st0" points="1732.7,558.5 1729.2,558.5 1729.2,703.2 1732.7,703.2 		"/>
		<path id="_x31_" class="st0" d="M1729.2,561.2l-2.7-2.7l2.7-2.7h3.5v5.5H1729.2z M1729.2,555.8v5.5c-1.4,0-2.7-1.2-2.7-2.7
			S1727.8,555.8,1729.2,555.8z M1731.9,703.2l-2.7,2.7l-2.7-2.7V558.5h5.4V703.2z M1726.5,703.2h5.4c0,1.5-1.2,2.7-2.7,2.7
			C1727.8,706,1726.5,704.7,1726.5,703.2z M1732.7,700.5l2.7,2.7l-2.7,2.7h-3.5v-5.5H1732.7z M1732.7,706v-5.5
			c1.4,0,2.7,1.2,2.7,2.7S1734.2,706,1732.7,706z M1730,558.5l2.7-2.7l2.7,2.7v144.7h-5.4V558.5z M1735.4,558.5h-5.4
			c0-1.5,1.2-2.7,2.7-2.7C1734.2,555.8,1735.4,557,1735.4,558.5z"/>
	</g>
</g>
<g id="Layer_6">
	<g>
		<polygon class="st0" points="1553.9,549.7 1550.4,549.7 1550.4,694.4 1553.9,694.4 		"/>
		<path id="_x31__1_" class="st0" d="M1550.4,552.5l-2.7-2.7l2.7-2.7h3.5v5.5H1550.4z M1550.4,547v5.5c-1.5,0-2.7-1.2-2.7-2.7
			C1547.7,548.2,1548.9,547,1550.4,547z M1553.2,694.4l-2.7,2.7l-2.7-2.7V549.7h5.5V694.4z M1547.7,694.4h5.5c0,1.5-1.2,2.7-2.7,2.7
			S1547.7,696,1547.7,694.4z M1553.9,691.7l2.7,2.7l-2.7,2.7h-3.5v-5.5H1553.9z M1553.9,697.2v-5.5c1.5,0,2.7,1.2,2.7,2.7
			C1556.6,696,1555.4,697.2,1553.9,697.2z M1551.2,549.7l2.7-2.7l2.7,2.7v144.7h-5.4V549.7z M1556.6,549.7h-5.4
			c0-1.5,1.2-2.7,2.7-2.7C1555.4,547,1556.6,548.2,1556.6,549.7z"/>
	</g>
</g>
<g id="Layer_5">
	<g>
		<path class="st1" d="M1624.3-254.9c193.1,0,349.6,143.9,349.6,321.5c0,98.4-185.9,409-228.9,491.2
			c-16.8,32.1-192.9,33.9-215.3-8.6c-34.5-65.6-255.1-403.9-255.1-482.5C1274.7-111,1431.2-254.9,1624.3-254.9z"/>
		<path id="_x31__2_" class="st0" d="M1976.7,66.5h-5.5l0,0l-0.4-16.3l-1.3-16.2l-2.2-16l-3-15.6l-3.9-15.4l-4.7-15.1l-5.5-14.8
			l-6.2-14.5l-6.9-14.1l-7.6-13.8l-8.4-13.3l-9.1-13l-9.6-12.5l-10.3-12.1l-10.9-11.5l-11.5-11.1l-12-10.6l-12.6-10l-13.1-9.5
			l-13.6-8.9l-14-8.3l-14.5-7.7l-15-7.1l-15.3-6.4l-15.8-5.7l-16.1-5l-16.5-4.2l-16.8-3.6l-17.1-2.8l-17.4-2l-17.6-1.2l-17.9-0.4
			v-5.4l18.1,0.4l17.9,1.2l17.6,2.1l17.4,2.8l17,3.6l16.7,4.4l16.4,5.1l16,5.8l15.6,6.5l15.2,7.2l14.7,7.8l14.3,8.4l13.8,9l13.3,9.6
			l12.7,10.2l12.2,10.7l11.7,11.3l11.1,11.7l10.5,12.2l9.8,12.7l9.1,13.1L1934-88l7.8,14l7.1,14.4l6.3,14.7l5.5,15.1l4.8,15.3
			l4,15.7l3.1,16l2.2,16.3l1.4,16.4L1976.7,66.5L1976.7,66.5z M1747.4,559l-4.8-2.5l0,0l4.5-8.4l5.3-9.6l5.9-10.8l6.6-11.9l7.2-12.9
			l7.7-13.8l8.2-14.7l8.6-15.5l8.9-16.2l9.3-16.8l9.5-17.3l9.6-17.8l9.8-18.1l9.9-18.4l9.8-18.6l9.8-18.7l9.6-18.8l9.4-18.7
			l9.2-18.6l8.9-18.4l8.5-18.1l8.1-17.9l7.6-17.4l7.1-16.8l6.5-16.3l5.8-15.6l5.1-14.8l4.2-13.9l3.4-13l2.5-11.9l1.5-10.8l0.5-9.6
			h5.5l-0.6,10.1l-1.6,11.2l-2.6,12.2l-3.5,13.2l-4.3,14.1l-5.1,14.9l-5.8,15.6l-6.5,16.3l-7.1,16.9l-7.7,17.4l-8.1,17.9l-8.5,18.2
			l-8.9,18.5l-9.2,18.6l-9.5,18.8l-9.6,18.9l-9.8,18.7l-9.9,18.6l-9.9,18.4l-9.8,18.1l-9.6,17.8l-9.5,17.4l-9.3,16.8l-9,16.1
			l-8.6,15.5l-8.2,14.7l-7.7,13.9l-7.2,12.9l-6.6,11.9l-5.9,10.8l-5.3,9.6L1747.4,559L1747.4,559z M1527.4,550.4l4.8-2.5l0,0
			l2.3,3.5l3.1,3.2l3.9,3.2l4.7,3l5.3,2.7l6,2.5l6.6,2.3l7.1,2.1l7.6,1.8l8,1.7l8.3,1.4l8.6,1.2l8.9,0.9l8.9,0.7l9.1,0.5l9.1,0.3
			h9.1l9-0.1l8.9-0.4l8.7-0.6l8.4-0.8l8.1-1l7.8-1.2l7.3-1.4l6.8-1.6l6.3-1.8l5.7-1.9l5-2.1l4.2-2.2l3.4-2.4l2.6-2.4l1.7-2.4
			l4.8,2.5l-2.4,3.4l-3.3,3.1l-4,2.8l-4.7,2.4l-5.4,2.3l-6,2l-6.6,1.9l-7.1,1.6l-7.5,1.4l-8,1.2l-8.3,1l-8.6,0.9l-8.9,0.6l-9,0.4
			l-9.1,0.1h-9.2l-9.2-0.3l-9.2-0.5l-9.1-0.7l-9-0.9l-8.7-1.2l-8.5-1.4l-8.1-1.7l-7.8-1.9l-7.4-2.2l-6.8-2.4l-6.3-2.7l-5.8-3
			l-5.2-3.2l-4.4-3.5l-3.7-4L1527.4,550.4L1527.4,550.4z M1272,66.5h5.4l0,0l0.6,7.8l1.8,9.3l3,10.7l4,12l5,13.1l6,14.2l6.8,15.1
			l7.6,16.1l8.3,16.7l8.9,17.4l9.4,17.9l9.9,18.4L1359,254l10.7,19l10.9,19.2l11,19.2l11.2,19.2l11.2,19l11.2,18.9l11.1,18.5
			L1447,405l10.6,17.6l10.2,16.9l9.8,16.2l9.4,15.3l8.7,14.5l8.1,13.5l7.4,12.3l6.6,11.2l5.8,9.9l4.8,8.5l3.7,7l-4.8,2.5l-3.7-6.9
			l-4.8-8.4l-5.8-9.9l-6.6-11.1l-7.4-12.4l-8.1-13.5l-8.8-14.5l-9.3-15.3l-9.8-16.2l-10.2-17l-10.6-17.5l-10.9-18.1l-11-18.5
			l-11.2-18.8l-11.2-19.1l-11.2-19.2l-11.1-19.3l-10.9-19.2l-10.7-19.1l-10.3-18.8l-9.9-18.4l-9.5-18l-8.9-17.4l-8.4-16.8l-7.6-16.1
			l-6.8-15.3l-6-14.3l-5.1-13.3l-4.1-12.2l-3-11l-1.9-9.8L1272,66.5L1272,66.5z M1624.3-257.6v5.4l0,0l-17.9,0.4l-17.6,1.2l-17.4,2
			l-17.1,2.8l-16.8,3.6l-16.5,4.2l-16.1,5l-15.7,5.7l-15.4,6.4l-15,7.1l-14.5,7.7l-14,8.3l-13.6,8.9l-13.1,9.5l-12.6,10l-12,10.6
			l-11.5,11.1l-10.9,11.5l-10.3,12.1l-9.6,12.5l-9,13l-8.4,13.3l-7.7,13.8l-6.9,14.1l-6.2,14.5l-5.5,14.8l-4.7,15.1l-3.8,15.4
			l-3.1,15.6l-2.2,16l-1.4,16.2l-0.4,16.3h-5.4l0.4-16.7l1.4-16.4l2.2-16.3l3.1-16l4-15.7l4.8-15.3l5.5-15.1l6.3-14.7l7.1-14.4
			l7.8-14l8.5-13.6l9.1-13.1l9.9-12.7l10.4-12.2l11.1-11.7l11.7-11.3l12.2-10.7l12.8-10.2l13.2-9.6l13.8-9l14.3-8.4l14.8-7.8
			l15.2-7.2l15.6-6.5l16-5.8l16.4-5.1l16.7-4.4l17-3.6l17.4-2.8l17.6-2.1l17.9-1.2L1624.3-257.6L1624.3-257.6z"/>
	</g>
</g>
<g id="Layer_4">
	<g>
		<path class="st2" d="M1556.8,694.4h169.8c8.3,0,15,6.8,15,15v89.3c0,8.3-6.8,15.1-15,15.1h-169.8c-8.3,0-15.1-6.8-15.1-15.1v-89.3
			C1541.7,701.2,1548.6,694.4,1556.8,694.4z"/>
		<path id="_x31__3_" class="st0" d="M1726.6,697.1h-169.8v-5.4h169.8l0,0V697.1z M1744.4,709.5h-5.5l0,0v-0.6l-0.1-0.6l-0.1-0.6
			l-0.1-0.6l-0.1-0.6l-0.1-0.6l-0.2-0.6l-0.2-0.5l-0.3-0.6l-0.2-0.5l-0.4-0.6l-0.3-0.5l-0.4-0.4l-0.4-0.5l-0.4-0.4l-0.4-0.4
			l-0.4-0.4l-0.4-0.4l-0.5-0.4l-0.5-0.4l-0.5-0.4l-0.5-0.3l-0.5-0.3l-0.6-0.2l-0.6-0.2l-0.6-0.2l-0.6-0.1l-0.6-0.1l-0.6-0.1
			l-0.6-0.1h-0.6l-0.6-0.1v-5.4h0.9l0.9,0.1l0.9,0.1l0.9,0.1l0.9,0.2l0.9,0.2l0.9,0.3l0.8,0.4l0.8,0.4l0.7,0.4l0.8,0.4l0.7,0.5
			l0.7,0.4l0.6,0.6l0.6,0.6l0.6,0.6l0.6,0.6l0.5,0.6l0.6,0.7l0.5,0.6l0.4,0.7l0.4,0.8l0.4,0.7l0.4,0.8l0.4,0.8l0.3,0.9l0.2,0.9
			l0.2,0.9l0.1,0.9l0.1,0.9l0.1,0.9V709.5L1744.4,709.5z M1738.9,798.8v-89.3h5.5v89.3l0,0H1738.9z M1726.6,816.6v-5.4l0,0h0.6
			l0.6-0.1l0.6-0.1l0.6-0.1l0.6-0.1l0.6-0.2l0.6-0.1l0.6-0.2l0.6-0.3l0.5-0.3l0.5-0.3l0.5-0.3l0.5-0.4l0.5-0.4l0.4-0.4l0.4-0.4
			l0.4-0.4l0.4-0.5l0.4-0.4l0.4-0.5l0.3-0.5l0.4-0.5l0.2-0.5l0.3-0.6l0.2-0.6l0.2-0.6l0.1-0.6l0.1-0.6l0.1-0.6l0.1-0.6l0.1-0.6v-0.6
			h5.5v0.9l-0.1,0.9l-0.1,0.9l-0.1,0.9l-0.2,0.9l-0.2,0.9l-0.3,0.8l-0.4,0.8l-0.4,0.8l-0.4,0.8l-0.4,0.7l-0.4,0.7l-0.5,0.7l-0.6,0.6
			l-0.5,0.6l-0.6,0.6l-0.6,0.6l-0.6,0.6l-0.6,0.5l-0.7,0.5l-0.7,0.4l-0.8,0.4l-0.7,0.4l-0.8,0.4l-0.8,0.3l-0.9,0.3l-0.9,0.3
			l-0.9,0.1l-0.9,0.2l-0.9,0.1l-0.9,0.1H1726.6L1726.6,816.6z M1556.8,811.2h169.8v5.4h-169.8l0,0V811.2z M1539.1,798.8h5.4l0,0v0.6
			l0.1,0.6l0.1,0.6l0.1,0.6l0.1,0.6l0.1,0.6l0.2,0.6l0.2,0.6l0.2,0.6l0.3,0.5l0.3,0.5l0.4,0.5l0.4,0.5l0.4,0.4l0.4,0.5l0.4,0.4
			l0.4,0.4l0.4,0.4l0.5,0.4l0.4,0.4l0.5,0.3l0.5,0.3l0.6,0.3l0.5,0.3l0.6,0.2l0.6,0.1l0.6,0.2l0.6,0.1l0.6,0.1l0.6,0.1l0.6,0.1h0.6
			v5.4h-0.9l-0.9-0.1l-0.9-0.1l-0.9-0.2l-0.9-0.1l-0.8-0.3l-0.9-0.3l-0.8-0.3l-0.8-0.4l-0.8-0.4l-0.7-0.4l-0.7-0.4l-0.7-0.5
			l-0.6-0.5l-0.6-0.6l-0.6-0.6l-0.6-0.6l-0.6-0.6l-0.5-0.6l-0.5-0.7l-0.4-0.7l-0.4-0.7l-0.4-0.8l-0.4-0.8l-0.3-0.8l-0.3-0.8
			l-0.3-0.9l-0.1-0.9l-0.2-0.9l-0.1-0.9l-0.1-0.9V798.8L1539.1,798.8z M1544.5,709.5v89.3h-5.4v-89.3l0,0H1544.5z M1556.8,691.7v5.4
			l0,0l-0.6,0.1h-0.6l-0.6,0.1l-0.6,0.1l-0.6,0.1l-0.6,0.1l-0.6,0.2l-0.6,0.2l-0.5,0.2l-0.6,0.3l-0.5,0.3l-0.5,0.4l-0.4,0.4
			l-0.5,0.4l-0.4,0.4l-0.4,0.4l-0.4,0.4l-0.4,0.4l-0.4,0.5l-0.4,0.4l-0.4,0.5l-0.3,0.6l-0.3,0.5l-0.2,0.6l-0.2,0.5l-0.2,0.6
			l-0.1,0.6l-0.1,0.6l-0.1,0.6l-0.1,0.6l-0.1,0.6v0.6h-5.4v-0.9l0.1-0.9l0.1-0.9l0.2-0.9l0.1-0.9l0.3-0.9l0.3-0.9l0.3-0.8l0.4-0.8
			l0.4-0.7l0.4-0.8l0.4-0.7l0.5-0.6l0.5-0.7l0.6-0.6l0.6-0.6l0.6-0.6l0.6-0.6l0.6-0.6l0.7-0.4l0.7-0.5l0.7-0.4l0.8-0.4l0.8-0.4
			l0.8-0.4l0.9-0.3l0.8-0.2l0.9-0.2l0.9-0.1l0.9-0.1l0.9-0.1H1556.8L1556.8,691.7z"/>
	</g>
</g>
<g id="Layer_3">
	<g>
		<path class="st3" d="M1624.3-254.9c141.7,0,256.5,143.9,256.5,321.5c0,98.4-136.4,409-168,491.2c-12.3,32.1-141.5,33.9-157.9-8.6
			c-25.3-65.6-187.2-403.9-187.2-482.5C1367.8-111,1482.6-254.9,1624.3-254.9z"/>
		<path id="_x31__4_" class="st0" d="M1883.6,66.5h-5.5l0,0l-0.3-16.4l-1-16.2l-1.6-16L1873,2.2l-2.9-15.5l-3.5-15.1l-4-14.8
			l-4.6-14.5l-5-14.1l-5.6-13.8l-6.2-13.3l-6.6-13l-7.1-12.5l-7.6-12l-8-11.6l-8.4-11l-8.8-10.6l-9.3-10l-9.6-9.4l-9.9-8.9
			l-10.3-8.3l-10.7-7.6l-10.9-7.1l-11.2-6.3l-11.4-5.7l-11.8-5l-12-4.2l-12.2-3.5l-12.5-2.8l-12.7-2l-12.9-1.2l-13-0.4v-5.4
			l13.4,0.4l13.2,1.2l13,2.1l12.7,2.9l12.6,3.6l12.3,4.4l12.1,5.1l11.8,5.8l11.4,6.5l11.2,7.2l10.8,7.8l10.5,8.4l10.2,9.1l9.7,9.6
			l9.4,10.2l9,10.8l8.6,11.2l8.1,11.7l7.7,12.3l7.2,12.7l6.7,13.2l6.3,13.5l5.7,14l5.2,14.3l4.6,14.8l4,15l3.5,15.4l2.9,15.6l2.2,16
			l1.7,16.2l1,16.4L1883.6,66.5L1883.6,66.5z M1715.4,558.7l-5-2l0,0l3.2-8.4l3.9-9.6l4.3-10.8l4.9-11.9l5.3-12.9l5.7-13.8l6-14.7
			l6.3-15.5l6.6-16.2l6.8-16.8l7-17.3l7.1-17.8l7.2-18.1l7.2-18.4l7.2-18.6l7.2-18.7l7.1-18.8l7-18.7l6.7-18.6l6.6-18.4l6.3-18.2
			l6-17.8l5.5-17.4l5.2-16.8l4.8-16.3l4.2-15.6l3.7-14.8l3.1-13.9l2.5-13l1.8-12l1.2-10.8l0.4-9.6h5.5l-0.4,10.1l-1.2,11.1
			l-1.9,12.2l-2.5,13.1l-3.2,14.1l-3.7,14.9l-4.3,15.6l-4.8,16.3l-5.2,16.9l-5.6,17.4l-6,17.9l-6.3,18.1l-6.6,18.5l-6.8,18.7
			l-6.9,18.7l-7.1,18.9l-7.1,18.8l-7.3,18.6l-7.2,18.4l-7.2,18.1l-7.1,17.8l-7,17.4l-6.8,16.8l-6.6,16.1l-6.3,15.5l-6,14.7
			l-5.7,13.9l-5.3,12.9l-4.8,11.9l-4.3,10.8l-3.9,9.6L1715.4,558.7L1715.4,558.7z M1552.5,550.1l5-1.9l0,0l1.7,3.5l2.2,3.3l2.9,3
			l3.3,3l3.9,2.7l4.4,2.5l4.8,2.2l5.1,2.1l5.5,1.8l5.8,1.6l6,1.4l6.3,1.2l6.4,0.9l6.6,0.7l6.6,0.5l6.7,0.2l6.6,0.1l6.6-0.1l6.5-0.4
			l6.3-0.6l6.1-0.8l5.9-1l5.7-1.2l5.3-1.4l5-1.5l4.5-1.7l4.1-1.9l3.6-2.1l3-2.2l2.4-2.3l1.9-2.4l1.2-2.4l5,2l-1.7,3.4l-2.4,3.1
			l-3,2.8l-3.6,2.6l-4,2.3l-4.5,2.1l-4.9,1.9l-5.3,1.7l-5.5,1.4l-5.9,1.2l-6.1,1l-6.3,0.9l-6.6,0.6l-6.6,0.4l-6.8,0.2l-6.8-0.1
			l-6.8-0.3l-6.8-0.5l-6.8-0.7l-6.6-0.9l-6.5-1.2l-6.3-1.4l-6-1.7l-5.8-1.9l-5.5-2.2l-5.1-2.4l-4.8-2.7l-4.3-3l-3.8-3.2l-3.2-3.6
			l-2.7-4L1552.5,550.1L1552.5,550.1z M1365,66.5h5.5l0,0l0.4,7.8l1.3,9.4l2.2,10.7l3,12l3.7,13.1l4.4,14.3l5,15.1l5.5,16l6.1,16.8
			l6.5,17.4l7,17.9l7.3,18.4l7.6,18.8l7.8,19l8,19.2l8.1,19.2l8.2,19.2l8.2,19l8.2,18.9l8.1,18.5l8,18.1l7.7,17.6l7.6,16.9l7.1,16.2
			l6.8,15.4l6.5,14.5l5.9,13.5l5.4,12.3l4.9,11.2l4.2,9.9l3.5,8.5l2.8,7l-5,1.9l-2.8-6.9l-3.5-8.4l-4.2-9.9l-4.8-11.1l-5.5-12.4
			l-5.9-13.5l-6.4-14.5l-6.8-15.3l-7.2-16.3l-7.6-16.9l-7.7-17.6l-8-18.1l-8.1-18.5l-8.2-18.8l-8.3-19.1l-8.2-19.2l-8.1-19.3
			l-8-19.2l-7.8-19.1l-7.6-18.8l-7.3-18.4l-7-18l-6.6-17.4l-6.1-16.8l-5.5-16.1l-5-15.2l-4.4-14.3l-3.7-13.3l-3-12.2l-2.2-11
			l-1.4-9.7L1365,66.5L1365,66.5z M1624.3-257.6v5.4l0,0l-13,0.4l-12.8,1.2l-12.7,2l-12.5,2.8l-12.2,3.5l-12,4.2l-11.7,5l-11.5,5.7
			l-11.2,6.3l-10.9,7.1l-10.7,7.6l-10.3,8.3l-9.9,8.9l-9.6,9.4l-9.2,10L1445-159l-8.4,11l-8,11.6l-7.6,12l-7.1,12.5l-6.6,13
			l-6.1,13.3l-5.6,13.8l-5.1,14.1l-4.6,14.5l-4,14.8l-3.5,15.1l-2.8,15.5l-2.2,15.7l-1.7,16l-1,16.2l-0.3,16.4h-5.5l0.4-16.6l1-16.4
			l1.7-16.2l2.2-16l2.9-15.6l3.5-15.4l4-15l4.6-14.8l5.2-14.3l5.8-14l6.2-13.5l6.8-13.2l7.2-12.7l7.6-12.3l8.1-11.7l8.6-11.2l9-10.8
			l9.4-10.2l9.8-9.6l10.2-9.1l10.5-8.4l10.9-7.8l11.2-7.2l11.5-6.5l11.7-5.8l12.1-5.1l12.3-4.4l12.6-3.6l12.7-2.9l13-2.1l13.2-1.2
			L1624.3-257.6L1624.3-257.6z"/>
	</g>
</g>
<g id="Layer_2">
	<g>
		<path class="st1" d="M1624.3-254.9c78.3,0,141.7,143.9,141.7,321.5c0,98.4-63.9,409-81.3,491.2c-6.8,32.1-78.1,33.9-87.2-8.6
			c-14-65.6-114.8-403.9-114.8-482.5C1482.7-111,1546-254.9,1624.3-254.9z"/>
		<path id="_x31__5_" class="st0" d="M1768.7,66.5h-5.4l0,0l-0.2-16.5l-0.5-16.3l-0.9-16L1760.4,2l-1.6-15.5l-1.9-15.2l-2.2-14.9
			l-2.5-14.5l-2.8-14.2l-3.1-13.8l-3.5-13.4l-3.6-13l-4-12.5l-4.2-12.1l-4.4-11.6l-4.7-11.1l-4.9-10.5l-5.1-10l-5.3-9.4l-5.5-8.9
			l-5.7-8.3l-5.8-7.6l-6-7l-6.1-6.3l-6.3-5.6l-6.5-4.9l-6.5-4.2l-6.6-3.5l-6.8-2.7l-6.8-1.9l-6.9-1.2l-7-0.4v-5.4l7.6,0.4l7.5,1.3
			l7.3,2.1l7.2,3l7.1,3.7l6.9,4.5l6.8,5.2l6.6,5.8l6.4,6.6l6.2,7.3l6,7.8l5.8,8.4l5.6,9.1l5.4,9.6l5.2,10.2l5,10.7l4.7,11.2
			l4.5,11.7l4.2,12.2l4,12.7l3.7,13.1l3.5,13.5l3.1,14l2.9,14.3l2.5,14.7l2.2,15l1.9,15.3l1.6,15.6l1.2,15.9l0.9,16.1l0.6,16.4
			L1768.7,66.5L1768.7,66.5z M1687.4,558.3l-5.3-1.2l0,0l1.8-8.4l2-9.6l2.2-10.8l2.4-11.9l2.7-12.9l2.8-13.9l3-14.7l3.1-15.4
			l3.2-16.2l3.3-16.8l3.4-17.3l3.5-17.8l3.5-18.1l3.5-18.4l3.5-18.6l3.4-18.7l3.4-18.8l3.3-18.8l3.2-18.6l3.1-18.4l3-18.2l2.8-17.8
			l2.7-17.4l2.4-16.8l2.2-16.3l2-15.6l1.7-14.8l1.5-14l1.2-13l0.9-12l0.5-10.9l0.2-9.7h5.4l-0.1,9.9l-0.6,11.1l-0.9,12.1l-1.2,13.1
			l-1.4,14l-1.7,14.9l-2,15.6l-2.2,16.3l-2.4,16.9l-2.7,17.4l-2.8,17.9l-3,18.2l-3.1,18.5l-3.2,18.6l-3.3,18.8l-3.4,18.8l-3.4,18.8
			l-3.5,18.6l-3.5,18.4l-3.5,18.1l-3.5,17.8l-3.4,17.4l-3.3,16.8l-3.2,16.1l-3.1,15.5l-3,14.7l-2.8,13.9l-2.7,12.9l-2.4,11.9
			l-2.2,10.8l-2,9.6L1687.4,558.3L1687.4,558.3z M1594.9,549.7l5.3-1.1l0,0l0.9,3.6l1.3,3.3l1.5,3.1l1.9,2.9l2.1,2.6l2.3,2.4
			l2.6,2.2l2.7,2l2.9,1.7l3.1,1.6l3.2,1.3l3.3,1.2l3.5,0.9l3.5,0.7l3.6,0.4l3.5,0.3h3.5l3.5-0.1l3.5-0.4l3.4-0.6l3.3-0.7l3.2-1
			l3-1.1l2.8-1.4l2.7-1.4l2.4-1.7l2.2-1.8l1.9-1.9l1.6-2.2l1.4-2.2l1-2.4l0.7-2.6l5.3,1.2l-0.9,3.2l-1.3,3.1l-1.7,2.8l-2,2.7
			l-2.3,2.4l-2.6,2.2l-2.8,1.9l-3,1.7l-3.2,1.5l-3.4,1.3l-3.5,1l-3.6,0.9l-3.7,0.6l-3.7,0.4l-3.9,0.1h-3.8l-3.9-0.3l-3.9-0.5
			l-3.8-0.8l-3.7-0.9l-3.7-1.2l-3.6-1.5l-3.5-1.7l-3.3-1.9l-3.1-2.3l-2.9-2.5l-2.7-2.7l-2.4-3.1l-2.2-3.3l-1.8-3.6l-1.5-3.8
			L1594.9,549.7L1594.9,549.7z M1480,66.5h5.4l0,0l0.3,8l0.9,9.4l1.4,10.8l1.8,12l2.3,13.2l2.7,14.3l3.1,15.2l3.5,16l3.8,16.8
			l4,17.4l4.3,18l4.5,18.4l4.7,18.8l4.8,19l5,19.2l5,19.2l5,19.2l5.1,19.1l5,18.8l5,18.5l4.9,18.1l4.8,17.6l4.6,16.9l4.4,16.2
			l4.2,15.4l3.9,14.5l3.6,13.5l3.2,12.4l2.9,11.2l2.5,9.9l2,8.5l1.6,7l-5.3,1.1l-1.5-6.8l-2-8.4l-2.5-9.8l-2.9-11.2l-3.2-12.3
			l-3.6-13.5l-3.9-14.5l-4.2-15.4l-4.4-16.2l-4.5-16.9l-4.8-17.6l-4.8-18.1l-5-18.5l-5-18.9l-5-19.1l-5.1-19.2l-5-19.3l-5-19.2
			l-4.8-19.1l-4.7-18.8l-4.5-18.4l-4.3-17.9l-4.1-17.5l-3.7-16.8l-3.5-16.1l-3.2-15.3l-2.7-14.3l-2.3-13.3l-1.9-12.1l-1.4-10.9
			l-0.9-9.7L1480,66.5L1480,66.5z M1624.3-257.6v5.4l0,0l-7,0.4l-6.9,1.2l-6.8,1.9l-6.8,2.7l-6.6,3.5l-6.5,4.2l-6.4,4.9l-6.3,5.6
			l-6.1,6.3l-6,7l-5.8,7.6l-5.6,8.3l-5.5,8.9l-5.3,9.4l-5.1,10l-4.9,10.5l-4.6,11.1l-4.5,11.6l-4.2,12.1l-3.9,12.5l-3.7,13
			l-3.4,13.4l-3.2,13.8l-2.8,14.2l-2.5,14.5l-2.2,14.9l-1.9,15.2L1488.2,2l-1.2,15.8l-0.9,16l-0.5,16.3l-0.2,16.5h-5.4l0.2-16.6
			l0.5-16.4l0.9-16.1l1.2-15.9l1.6-15.6l1.9-15.3l2.2-15l2.5-14.7l2.9-14.3l3.1-14l3.5-13.5l3.7-13.1l4-12.7l4.2-12.2l4.5-11.7
			l4.7-11.2l5-10.7l5.2-10.2l5.4-9.6l5.7-9.1l5.8-8.4l6-7.8l6.2-7.3l6.4-6.6l6.6-5.8l6.7-5.2l6.9-4.5l7.1-3.7l7.2-3l7.3-2.1l7.6-1.3
			L1624.3-257.6L1624.3-257.6z"/>
	</g>
</g>
</svg>
