<?xml version="1.0" encoding="UTF-8"?>
<!DOCTYPE svg PUBLIC "-//W3C//DTD SVG 1.1//EN" "http://www.w3.org/Graphics/SVG/1.1/DTD/svg11.dtd">
<!-- Creator: CorelDRAW X7 -->
<svg xmlns="http://www.w3.org/2000/svg" xml:space="preserve" width="100%" height="100%" version="1.1" style="shape-rendering:geometricPrecision; text-rendering:geometricPrecision; image-rendering:optimizeQuality; fill-rule:evenodd; clip-rule:evenodd"
viewBox="0 0 2889 3215"
 xmlns:xlink="http://www.w3.org/1999/xlink">
 <defs>
  <style type="text/css">
   <![CDATA[
    .fil3 {fill:#062B3D}
    .fil1 {fill:#0A5D89}
    .fil2 {fill:#0F6892}
    .fil0 {fill:#1C98BC}
    .fil4 {fill:#BAE6F3}
   ]]>
  </style>
 </defs>
 <g id="Layer_x0020_1">
  <metadata id="CorelCorpID_0Corel-Layer"/>
  <polygon class="fil0" points="0,0 2851,0 2889,752 2763,893 2587,1394 2551,2422 2011,2422 2011,3215 1514,3215 1520,2644 1233,2616 1241,2967 764,2969 763,2072 334,1252 137,1254 136,410 8,394 "/>
  <polygon class="fil1" points="806,0 1104,0 1101,1390 1087,2008 836,1964 819,1341 "/>
  <polygon class="fil2" points="806,0 432,0 311,590 334,1252 822,1459 "/>
  <polygon class="fil3" points="0,0 240,0 8,394 "/>
  <polygon class="fil1" points="1303,0 1104,0 1103,395 "/>
  <polygon class="fil3" points="2693,0 2403,0 2477,300 2437,950 2011,2422 2617,2422 2614,1317 2763,893 2790,315 "/>
  <polygon class="fil1" points="1752,2249 1859,1881 1975,1881 2011,2422 2011,3215 1749,3215 "/>
  <polygon class="fil2" points="1103,394 1303,0 1743,0 1704,1735 1309,1751 1286,2967 1066,2968 1101,1390 "/>
  <polygon class="fil4" points="1941,3077 1868,3077 1868,3150 1941,3150 "/>
  <polygon class="fil4" points="1941,2918 1868,2918 1868,2990 1941,2990 "/>
  <polygon class="fil4" points="1941,2758 1868,2758 1868,2831 1941,2831 "/>
  <polygon class="fil4" points="1941,2599 1868,2599 1868,2672 1941,2672 "/>
  <polygon class="fil1" points="2289,1452 2216,1452 2216,1524 2289,1524 "/>
  <polygon class="fil4" points="1940,2440 1867,2440 1867,2513 1940,2513 "/>
  <polygon class="fil4" points="1214,2795 1141,2795 1141,2868 1214,2868 "/>
  <polygon class="fil4" points="1214,2636 1141,2636 1141,2709 1214,2709 "/>
  <polygon class="fil4" points="1214,2477 1141,2477 1141,2549 1214,2549 "/>
  <polygon class="fil1" points="2519,976 2446,976 2446,1049 2519,1049 "/>
  <polygon class="fil1" points="2519,793 2446,793 2446,866 2519,866 "/>
  <polygon class="fil1" points="2519,609 2446,609 2446,682 2519,682 "/>
  <polygon class="fil1" points="2519,426 2446,426 2446,499 2519,499 "/>
  <polygon class="fil1" points="2519,242 2446,242 2446,315 2519,315 "/>
  <polygon class="fil1" points="2519,59 2446,59 2446,132 2519,132 "/>
  <polygon class="fil4" points="1214,2317 1141,2317 1141,2390 1214,2390 "/>
  <polygon class="fil4" points="1214,2158 1141,2158 1141,2231 1214,2231 "/>
  <polygon class="fil4" points="1214,1986 1141,1986 1141,2059 1214,2059 "/>
  <polygon class="fil4" points="1214,1827 1141,1827 1141,1900 1214,1900 "/>
  <polygon class="fil4" points="1214,1668 1141,1668 1141,1741 1214,1741 "/>
  <polygon class="fil4" points="1381,1509 1308,1509 1308,1582 1381,1582 "/>
  <polygon class="fil4" points="1381,1314 1308,1314 1308,1387 1381,1387 "/>
  <polygon class="fil4" points="1381,1120 1308,1120 1308,1193 1381,1193 "/>
  <polygon class="fil4" points="1381,926 1308,926 1308,999 1381,999 "/>
  <polygon class="fil4" points="1381,731 1308,731 1308,804 1381,804 "/>
  <polygon class="fil4" points="1381,537 1308,537 1308,610 1381,610 "/>
  <polygon class="fil4" points="1381,343 1308,343 1308,416 1381,416 "/>
  <polygon class="fil4" points="1381,148 1308,148 1308,221 1381,221 "/>
  <polygon class="fil4" points="276,1031 204,1031 204,1104 276,1104 "/>
  <polygon class="fil4" points="276,872 204,872 204,945 276,945 "/>
  <polygon class="fil4" points="276,700 204,700 204,773 276,773 "/>
  <polygon class="fil4" points="276,541 204,541 204,614 276,614 "/>
  <polygon class="fil4" points="276,382 204,382 204,455 276,455 "/>
  <polygon class="fil4" points="276,223 204,223 204,295 276,295 "/>
  <polygon class="fil4" points="987,2795 914,2795 914,2868 987,2868 "/>
  <polygon class="fil4" points="987,2636 914,2636 914,2709 987,2709 "/>
  <polygon class="fil4" points="987,2477 914,2477 914,2549 987,2549 "/>
  <polygon class="fil4" points="987,2317 914,2317 914,2390 987,2390 "/>
  <polygon class="fil4" points="987,2158 914,2158 914,2231 987,2231 "/>
  <polygon class="fil4" points="987,1986 914,1986 914,2059 987,2059 "/>
  <polygon class="fil4" points="1617,1558 1545,1558 1545,1631 1617,1631 "/>
  <polygon class="fil4" points="1617,1399 1545,1399 1545,1472 1617,1472 "/>
  <polygon class="fil4" points="1617,1240 1545,1240 1545,1313 1617,1313 "/>
  <polygon class="fil4" points="1617,1068 1545,1068 1545,1141 1617,1141 "/>
  <polygon class="fil4" points="1617,909 1545,909 1545,982 1617,982 "/>
  <polygon class="fil4" points="1617,750 1545,750 1545,823 1617,823 "/>
  <polygon class="fil4" points="1617,591 1545,591 1545,663 1617,663 "/>
  <polygon class="fil4" points="1617,431 1545,431 1545,504 1617,504 "/>
  <polygon class="fil4" points="1617,272 1545,272 1545,345 1617,345 "/>
  <polygon class="fil4" points="1617,113 1545,113 1545,186 1617,186 "/>
  <polygon class="fil1" points="2519,2260 2446,2260 2446,2333 2519,2333 "/>
  <polygon class="fil1" points="2519,2077 2446,2077 2446,2150 2519,2150 "/>
  <polygon class="fil1" points="2519,1893 2446,1893 2446,1966 2519,1966 "/>
  <polygon class="fil1" points="2519,1710 2446,1710 2446,1783 2519,1783 "/>
  <polygon class="fil1" points="2519,1526 2446,1526 2446,1599 2519,1599 "/>
  <polygon class="fil1" points="2519,1343 2446,1343 2446,1416 2519,1416 "/>
  <polygon class="fil1" points="2519,1160 2446,1160 2446,1232 2519,1232 "/>
  <polygon class="fil1" points="2289,2260 2216,2260 2216,2333 2289,2333 "/>
  <polygon class="fil1" points="2289,2101 2216,2101 2216,2174 2289,2174 "/>
  <polygon class="fil1" points="2289,1942 2216,1942 2216,2015 2289,2015 "/>
  <polygon class="fil1" points="2289,1770 2216,1770 2216,1843 2289,1843 "/>
  <polygon class="fil1" points="2289,1611 2216,1611 2216,1683 2289,1683 "/>
  <polygon class="fil2" points="2270,0 2062,0 2105,488 2053,1881 1975,1881 2006,2440 2436,953 2477,300 "/>
  <polygon class="fil4" points="1941,2281 1868,2281 1868,2354 1941,2354 "/>
  <polygon class="fil4" points="1941,2122 1868,2122 1868,2195 1941,2195 "/>
  <polygon class="fil1" points="2403,0 2270,0 2477,300 "/>
  <polygon class="fil4" points="1003,1779 931,1779 931,1852 1003,1852 "/>
  <polygon class="fil4" points="1003,1620 931,1620 931,1693 1003,1693 "/>
  <polygon class="fil4" points="1003,1461 931,1461 931,1534 1003,1534 "/>
  <polygon class="fil4" points="1003,1302 931,1302 931,1375 1003,1375 "/>
  <polygon class="fil4" points="1003,1143 931,1143 931,1216 1003,1216 "/>
  <polygon class="fil4" points="1003,971 931,971 931,1044 1003,1044 "/>
  <polygon class="fil4" points="1003,812 931,812 931,884 1003,884 "/>
  <polygon class="fil4" points="1003,653 931,653 931,725 1003,725 "/>
  <polygon class="fil4" points="1003,493 931,493 931,566 1003,566 "/>
  <polygon class="fil4" points="1003,334 931,334 931,407 1003,407 "/>
  <polygon class="fil4" points="1003,175 931,175 931,248 1003,248 "/>
  <polygon class="fil4" points="727,1226 654,1226 654,1298 727,1298 "/>
  <polygon class="fil4" points="727,1053 654,1053 654,1126 727,1126 "/>
  <polygon class="fil4" points="727,894 654,894 654,967 727,967 "/>
  <polygon class="fil4" points="727,735 654,735 654,808 727,808 "/>
  <polygon class="fil4" points="727,576 654,576 654,649 727,649 "/>
  <polygon class="fil4" points="727,417 654,417 654,490 727,490 "/>
  <polygon class="fil4" points="727,258 654,258 654,331 727,331 "/>
  <polygon class="fil4" points="727,99 654,99 654,171 727,171 "/>
  <polygon class="fil4" points="554,1053 481,1053 481,1126 554,1126 "/>
  <polygon class="fil4" points="554,894 481,894 481,967 554,967 "/>
  <polygon class="fil4" points="554,735 481,735 481,808 554,808 "/>
  <polygon class="fil4" points="554,576 481,576 481,649 554,649 "/>
  <polygon class="fil4" points="554,417 481,417 481,490 554,490 "/>
  <polygon class="fil4" points="554,258 481,258 481,331 554,331 "/>
  <polygon class="fil4" points="554,99 481,99 481,171 554,171 "/>
  <polygon class="fil4" points="1676,3077 1603,3077 1603,3149 1676,3149 "/>
  <polygon class="fil4" points="1947,151 1875,151 1875,224 1947,224 "/>
  <polygon class="fil4" points="1676,2877 1603,2877 1603,2950 1676,2950 "/>
  <polygon class="fil4" points="1676,2678 1603,2678 1603,2751 1676,2751 "/>
  <polygon class="fil4" points="1676,2479 1603,2479 1603,2551 1676,2551 "/>
  <polygon class="fil4" points="1676,2279 1603,2279 1603,2352 1676,2352 "/>
  <polygon class="fil4" points="1676,2080 1603,2080 1603,2153 1676,2153 "/>
  <polygon class="fil4" points="1676,1881 1603,1881 1603,1954 1676,1954 "/>
  <polygon class="fil4" points="1947,1119 1875,1119 1875,1192 1947,1192 "/>
  <polygon class="fil4" points="1947,960 1875,960 1875,1033 1947,1033 "/>
  <polygon class="fil4" points="1947,801 1875,801 1875,873 1947,873 "/>
  <polygon class="fil4" points="1947,628 1875,628 1875,701 1947,701 "/>
  <polygon class="fil4" points="1947,469 1875,469 1875,542 1947,542 "/>
  <polygon class="fil4" points="1947,310 1875,310 1875,383 1947,383 "/>
  <polygon class="fil1" points="2062,0 1743,0 2105,488 "/>
  <polygon class="fil4" points="1947,1770 1875,1770 1875,1842 1947,1842 "/>
  <polygon class="fil4" points="1947,1610 1875,1610 1875,1683 1947,1683 "/>
  <polygon class="fil4" points="1947,1451 1875,1451 1875,1524 1947,1524 "/>
  <polygon class="fil4" points="1947,1279 1875,1279 1875,1352 1947,1352 "/>
  <polygon class="fil4" points="1940,1963 1867,1963 1867,2036 1940,2036 "/>
  <polygon class="fil1" points="2702,59 2630,59 2630,132 2702,132 "/>
  <polygon class="fil1" points="2702,793 2630,793 2630,866 2702,866 "/>
  <polygon class="fil1" points="2702,609 2630,609 2630,682 2702,682 "/>
  <polygon class="fil1" points="2702,426 2630,426 2630,499 2702,499 "/>
  <polygon class="fil1" points="2702,242 2630,242 2630,315 2702,315 "/>
  <polygon class="fil4" points="1480,2441 1407,2441 1407,2514 1480,2514 "/>
  <polygon class="fil4" points="1480,2242 1407,2242 1407,2315 1480,2315 "/>
  <polygon class="fil4" points="1480,2043 1407,2043 1407,2116 1480,2116 "/>
  <polygon class="fil4" points="1481,1844 1408,1844 1408,1917 1481,1917 "/>
 </g>
</svg>
