<?xml version="1.0" encoding="utf-8"?>
<!-- Generator: Adobe Illustrator 19.0.0, SVG Export Plug-In . SVG Version: 6.00 Build 0)  -->
<svg version="1.1" id="Layer_1" xmlns="http://www.w3.org/2000/svg" xmlns:xlink="http://www.w3.org/1999/xlink" x="0px" y="0px"
	 viewBox="-449 267.9 60.5 27.1" style="enable-background:new -449 267.9 60.5 27.1;" xml:space="preserve">
<style type="text/css">
	.st0{fill:#CCB08F;}
	.st1{fill:#D8BA97;}
	.st2{fill:#7ED5E6;}
	.st3{clip-path:url(#SVGID_2_);}
	.st4{fill:#D2EEF5;}
	.st5{fill:#CD706F;}
	.st6{fill:none;}
</style>
<path class="st0" d="M-439.4,291.4c-0.9-3-4.2-4.3-2.2-7c1.2-1.6,0.9-0.1,1.2-3C-447.6,283.1-443.8,290.1-439.4,291.4z"/>
<path class="st1" d="M-397.9,282.7c0.2,2.2,1.9,3.5,0.4,5.9c-1,1.6-2.3,2.1-3,3.8C-394.8,292.5-391.3,284.6-397.9,282.7z"/>
<path class="st2" d="M-419.9,267.9c10.7,0,19.4,8.7,19.4,19.4c0,0.4,0,0.6,0,0.9c-4.4,4.1-11.4,6.7-19.4,6.7
	c-8.1,0-15.1-2.6-19.4-6.7c-0.1-0.3-0.1-0.6-0.1-0.9C-439.4,276.6-430.7,267.9-419.9,267.9z"/>
<g>
	<defs>
		<path id="SVGID_1_" d="M-419.9,267.9c10.7,0,19.4,8.7,19.4,19.4c0,0.4,0,0.6,0,0.9c-4.4,4.1-11.4,6.7-19.4,6.7
			c-8.1,0-15.1-2.6-19.4-6.7c-0.1-0.3-0.1-0.6-0.1-0.9C-439.4,276.6-430.7,267.9-419.9,267.9z"/>
	</defs>
	<clipPath id="SVGID_2_">
		<use xlink:href="#SVGID_1_"  style="overflow:visible;"/>
	</clipPath>
	<g class="st3">
		<g>
			<path id="_x31_" class="st4" d="M-431.5,271.2c-0.2,0.4-2.3,2.2-2.7,2.6c-1.8,2.1-3,3.4-4.2,6.5c-0.6,1.7-2.3,7.1-0.5,8.6l0.7-3
				c0.6,0.2,4,3.9,8.9,4.3c0.3,0,2.4,0.2,1-0.6c-2.4-1.4-5-1.7-7.4-4.1c-2.6-2.7-1.4-5.8,1.1-8.5c1.8,3.2,9.3,6.5,14.9,5.8
				c0.9-0.1,1.1-0.4,0.1-0.6c-5-1.2-12.4-2-13.3-7.3c0.9-1.4,3.5-3.5,5.2-4c4.2,2.7,5.8,3.3,11,2.8c0.4-0.1,1.2-0.6,0.1-0.9
				c-2.7-0.8-6.6-0.1-8.8-2.7c1.9-1.7,10.5-1,10.4-1.7c-3.1-0.7-6-1.1-9.4-0.4C-427.3,268.9-428.9,270.1-431.5,271.2z"/>
			<path class="st5" d="M-421,293.4c-3.2,0.1-1.7,0.4-0.5,0.5c4,0.2,9.2-0.1,11.9-0.6c16-3,5.1-19.1,0-21c-0.4,3.5-0.1,3.9-3.6,4.8
				c-1.9,0.5-4.1,0-5.6,0.3c-1.8,0.3-1.5,0.9-0.1,1.5c3.6,1.4,10.1-1.1,10.4,2.4c0.4,4.7-6.4,5.3-10.6,6.2c-1,0.2-0.6,0.4-0.2,0.6
				c3.3,1.3,8.9,0.2,10,1.9c-1.2,0.7-3.8,1.7-5.5,2.1L-421,293.4z"/>
		</g>
	</g>
</g>
<path class="st6" d="M-419.9,267.9c10.7,0,19.4,8.7,19.4,19.4c0,0.4,0,0.6,0,0.9c-4.4,4.1-11.4,6.7-19.4,6.7
	c-8.1,0-15.1-2.6-19.4-6.7c-0.1-0.3-0.1-0.6-0.1-0.9C-439.4,276.6-430.7,267.9-419.9,267.9z"/>
<path class="st1" d="M-390.6,285c0.1,1.2,1.1,2.1,0.3,3.5c-0.6,0.9-1.4,1.2-1.8,2.2C-388.8,290.7-386.8,286.1-390.6,285z"/>
<path class="st0" d="M-445.9,282.7c-2.9,3.7-2.7,3.4-0.6,6.2C-450.9,287.9-448.6,283.6-445.9,282.7z"/>
</svg>
