<?xml version="1.0" encoding="UTF-8"?>
<!DOCTYPE svg PUBLIC "-//W3C//DTD SVG 1.1//EN" "http://www.w3.org/Graphics/SVG/1.1/DTD/svg11.dtd">
<!-- Creator: CorelDRAW X7 -->
<svg xmlns="http://www.w3.org/2000/svg" xml:space="preserve" width="3.37666in" height="0.163331in" version="1.1" style="shape-rendering:geometricPrecision; text-rendering:geometricPrecision; image-rendering:optimizeQuality; fill-rule:evenodd; clip-rule:evenodd"
viewBox="0 0 3377 163"
 xmlns:xlink="http://www.w3.org/1999/xlink">
 <defs>
  <style type="text/css">
   <![CDATA[
    .fil13 {fill:#2B2A29}
    .fil6 {fill:#005AAB}
    .fil0 {fill:#0159AA}
    .fil1 {fill:#035AAA}
    .fil8 {fill:#0A5CAC}
    .fil9 {fill:#1659A5}
    .fil2 {fill:#231F20}
    .fil7 {fill:#908E90}
    .fil10 {fill:#90AED5}
    .fil12 {fill:#990606}
    .fil5 {fill:#DCDDDE}
    .fil3 {fill:#FDFDFD}
    .fil4 {fill:#FEFEFE}
    .fil11 {fill:#2B2A29;fill-rule:nonzero}
   ]]>
  </style>
 </defs>
 <g id="Layer_x0020_1">
  <metadata id="CorelCorpID_0Corel-Layer"/>
  <g id="_1948650962080">
   <g>
    <path class="fil0" d="M492 66c0,0 0,-1 0,-1 -3,1 -4,-3 -7,0 -5,6 -1,10 2,5 2,-2 3,-4 5,-4z"/>
    <path class="fil0" d="M523 64c0,1 0,2 2,2 1,0 1,-1 2,-1 0,-1 0,-2 0,-2 -1,0 0,-1 -1,1l0 0c0,-1 -1,-1 -1,-2 -1,1 0,2 -1,2l0 0c-1,0 0,0 -1,0z"/>
   </g>
   <g>
    <path class="fil1" d="M446 76c1,2 1,2 2,3 3,0 5,-4 3,-7 -1,-1 -5,-1 -4,-6 1,-4 3,-3 2,-5 -2,0 -3,0 -3,2 -1,1 -1,2 -1,4 0,4 0,6 1,9z"/>
    <path class="fil1" d="M465 66c0,1 1,2 2,2 1,0 1,0 2,-2 -1,0 0,0 -1,-1l-1 0c-1,0 -1,0 -2,0 -1,1 0,-1 0,0 -1,1 0,0 0,1z"/>
   </g>
   <g>
    <path class="fil2" d="M443 123c2,-1 7,-1 8,1 1,1 1,2 0,3 -1,2 -6,1 -8,1l0 -5zm-3 15l3 0 0 -8c10,-1 8,2 9,8l3 0c-3,-5 0,-6 -3,-9l0 0c1,-1 2,-2 2,-4 0,-2 -1,-3 -2,-4 -2,-1 -9,-1 -12,-1l0 18z"/>
    <path class="fil2" d="M507 132l-2 0c1,9 11,7 13,4 2,-3 1,-6 -2,-7 -2,-1 -5,-1 -8,-3 -1,-5 6,-4 7,-3 1,1 1,1 2,2l1 1c1,-5 -4,-7 -8,-6 -4,1 -6,7 -2,9 3,1 11,1 8,6 0,1 -6,4 -8,-2 0,0 0,0 0,0l-1 -1z"/>
    <path class="fil2" d="M483 121l-2 -1c0,9 2,16 -4,16 -6,0 -5,-7 -5,-15l-2 -1c0,4 0,9 0,13 1,7 12,7 13,0 1,-3 1,-9 0,-12z"/>
    <polygon class="fil2" points="405,123 411,123 411,138 413,138 413,123 419,123 419,120 405,120 "/>
    <polygon class="fil2" points="546,138 546,123 552,122 552,120 538,120 538,122 544,123 544,138 "/>
   </g>
   <g>
    <path class="fil3" d="M447 66c-1,5 3,5 4,6 2,3 0,7 -3,7 -1,-1 -1,-1 -2,-3l0 1c-2,-1 -1,-1 -3,0l0 0c0,0 0,1 0,1 1,3 3,9 8,6 5,-3 4,-6 4,-12 4,1 0,8 4,10 5,0 2,-6 4,-8 3,0 2,5 4,6 3,-1 2,-5 4,-7 1,1 1,1 2,2l1 0c0,0 0,0 1,0 1,-1 0,-1 0,-2 2,0 0,0 1,-1 -1,-1 -2,-3 -3,-5 -1,-3 -2,-2 -4,-1 -1,2 -1,2 -2,2 -1,0 -2,-1 -2,-2 -4,-1 -4,1 -5,3 -1,0 -2,-1 -3,-2l-2 -1c0,0 0,0 0,1 -2,-1 -3,0 -3,0l-1 0 -1 0 -1 0c0,-1 0,-1 -1,-2 0,1 0,2 0,2 0,2 0,0 0,1 0,-1 0,0 0,-1 -1,-1 0,-1 -1,-1z"/>
    <path class="fil3" d="M527 65c-1,0 -1,1 -2,1 -2,0 -2,-1 -2,-2 1,-1 1,-3 4,-5 2,-1 5,-1 6,-3 1,-2 -2,-7 -10,0 -7,7 -4,17 1,16 3,0 5,-2 6,-3 2,1 1,1 3,2 4,3 12,-6 13,-8 2,-2 1,-5 -1,-6 -6,-1 -6,9 -10,8 -3,0 -1,-5 -4,-5 -2,0 -3,3 -4,5z"/>
    <path class="fil3" d="M496 69c2,0 0,0 1,1l1 0c0,0 0,0 0,0 -1,1 -1,1 -1,2 1,-1 1,-1 2,-2 1,1 0,0 0,1 0,0 -1,0 0,0 2,-1 2,2 4,2 3,1 2,-2 4,-3 2,1 1,2 3,3 3,0 2,-2 4,-2 0,9 -5,19 0,24 1,1 4,3 6,2 1,-3 -1,-5 -2,-9 -2,-9 2,-27 -2,-27 -3,1 -3,4 -5,6 -2,-1 -1,-4 -4,-4 -3,1 -2,3 -3,4 -2,0 -2,-1 -3,-3 -2,0 -5,3 -5,5z"/>
    <path class="fil3" d="M476 72c-1,1 1,1 -1,1 0,1 1,1 0,2 -1,0 -1,0 -1,0l-1 0c0,1 1,1 1,2 3,2 4,1 5,0 1,-1 1,0 2,1 3,1 8,-4 9,-5 1,1 2,3 5,2 2,-1 3,-3 4,-4 -1,0 0,0 0,0 0,-1 1,0 0,-1 -1,1 -1,1 -2,2 0,-1 0,-1 1,-2 0,0 0,0 0,0l-1 0c-1,-1 1,-1 -1,-1l-1 1c-1,0 -1,0 -2,0 0,-2 0,-2 -1,-4 -2,0 -3,2 -5,4 -3,5 -7,1 -2,-5 3,-3 4,1 7,0 0,0 4,-2 0,-5 -3,-2 -6,-2 -8,0 -4,2 -5,10 -7,13 -1,0 -1,0 -1,-1z"/>
    <path class="fil3" d="M443 78c0,0 0,-1 0,-1l0 0c2,-1 1,-1 3,0l0 -1c-1,-3 -1,-5 -1,-9 0,-2 0,-3 1,-4 0,-2 1,-2 3,-2 1,2 -1,1 -2,5 1,0 0,0 1,1 0,1 0,0 0,1 0,-1 0,1 0,-1 0,0 0,-1 0,-2 1,1 1,1 1,2l1 0 0 -1c1,0 0,0 1,0l1 1c0,0 1,-1 3,0 0,-1 0,-1 0,-1 -1,-4 -1,-7 -4,-9 -2,-2 -6,-1 -8,1 -3,5 -2,14 0,20z"/>
    <path class="fil3" d="M502 58c0,-1 1,-1 1,0 0,1 1,1 -1,1 -1,0 0,0 0,-1zm-1 -4c-2,0 -2,0 -3,2 0,1 0,3 0,4 1,0 2,2 3,2 3,1 9,-1 6,-6 -1,-2 -3,-3 -6,-2z"/>
    <path class="fil3" d="M427 45l2 0c1,1 1,1 0,2 0,2 -3,5 -1,6 2,1 3,0 4,-1 1,-1 2,-2 2,-4 -1,0 2,0 0,0 -2,0 0,1 -3,0l0 -1c0,-2 0,0 0,-1 -1,-1 1,1 0,-2 0,0 0,0 0,0l0 -1c-1,1 -1,0 -2,0 0,0 0,0 -1,0l0 0c-1,1 0,0 -1,1l0 0c0,0 -1,1 -1,1l1 0z"/>
   </g>
   <g>
    <path class="fil4" d="M427 45l-1 0c0,0 1,-1 1,-1l0 0c1,-1 0,0 1,-1l0 0c1,0 1,0 1,0 1,0 1,1 2,0l0 1c0,0 0,0 0,0 1,3 -1,1 0,2 0,1 0,-1 0,1l0 1c3,1 1,0 3,0 2,0 -1,0 0,0 2,-2 3,-9 -1,-10 -4,-2 -8,1 -11,3 -4,5 -10,14 -5,22 2,3 6,4 9,6 5,3 6,4 9,7 8,7 -13,13 -16,9 0,-1 1,-1 1,-3 0,-2 -3,-5 -8,-1 -1,1 -3,4 -2,6 0,2 3,3 5,4 8,4 21,0 25,-6 2,-4 2,-9 -1,-13 -2,-3 -5,-6 -9,-8 -7,-4 -11,-8 -6,-15 0,-1 1,-1 1,-2 1,-1 2,-1 2,-2z"/>
    <polygon class="fil4" points="397,142 398,142 398,116 559,116 559,142 560,142 560,113 397,113 "/>
   </g>
   <g>
    <path class="fil5" d="M483 121c1,3 1,9 0,12 -1,7 -12,7 -13,0 0,-4 0,-9 0,-13l2 1c0,8 -1,15 5,15 6,0 4,-7 4,-16l2 1zm-43 -1c3,0 10,0 12,1 1,1 2,2 2,4 0,2 -1,3 -2,4l0 0c3,3 0,4 3,9l-3 0c-1,-6 1,-9 -9,-8l0 8 -3 0 0 -18zm112 2c-1,1 -4,1 -6,1 1,1 1,13 0,15l-2 0 0 -15 -6 -1 0 -2 14 0 0 2zm-133 1l-6 0 0 15 -2 0 0 -15 -6 0 0 -3 14 0 0 3zm89 10c0,0 0,0 0,0 2,6 8,3 8,2 3,-5 -5,-5 -8,-6 -4,-2 -2,-8 2,-9 4,-1 9,1 8,6l-1 -1c-1,-1 -1,-1 -2,-2 -1,-1 -8,-2 -7,3 3,2 6,2 8,3 3,1 4,4 2,7 -2,3 -12,5 -13,-4l2 0 1 1zm-110 9l161 0 0 -26 -161 0 0 26z"/>
    <path class="fil5" d="M443 128c2,0 7,1 8,-1 1,-1 1,-2 0,-3 -1,-2 -6,-2 -8,-1l0 5z"/>
   </g>
   <path class="fil6" d="M492 65c0,0 0,1 0,1 1,2 1,2 1,4 1,0 1,0 2,0l1 -1c0,-2 3,-5 5,-5 1,2 1,3 3,3 1,-1 0,-3 3,-4 3,0 2,3 4,4 2,-2 2,-5 5,-6 4,0 0,18 2,27 1,4 3,6 2,9 -2,1 -5,-1 -6,-2 -5,-5 0,-15 0,-24 -2,0 -1,2 -4,2 -2,-1 -1,-2 -3,-3 -2,1 -1,4 -4,3 -2,0 -2,-3 -4,-2 -1,1 -2,3 -4,4 -3,1 -4,-1 -5,-2 -1,1 -6,6 -9,5 -1,-1 -1,-2 -2,-1 -1,1 -2,2 -5,0 0,-1 -1,-1 -1,-2 -1,-1 -1,-1 -2,-2 -2,2 -1,6 -4,7 -2,-1 -1,-6 -4,-6 -2,2 1,8 -4,8 -4,-2 0,-9 -4,-10 0,6 1,9 -4,12 -5,3 -7,-3 -8,-6 -2,-6 -3,-15 0,-20 2,-2 6,-3 8,-1 3,2 3,5 4,9l2 1c1,1 2,2 3,2 1,-2 1,-4 5,-3 0,-1 -1,0 0,-1 0,-1 -1,1 0,0 1,0 1,0 2,0l1 0c1,1 0,1 1,1 2,-1 3,-2 4,1 1,2 2,4 3,5 0,1 0,1 1,1 2,-3 3,-11 7,-13 2,-2 5,-2 8,0 4,3 0,5 0,5zm68 -44l0 92 -163 0 0 -92 163 0zm-59 33c3,-1 5,0 6,2 3,5 -3,7 -6,6 -1,0 -2,-2 -3,-2 0,-1 0,-3 0,-4 1,-2 1,-2 3,-2zm22 10c1,0 0,0 1,0l0 0c1,0 0,-1 1,-2 0,1 1,1 1,2l0 0c1,-2 0,-1 1,-1 0,0 0,1 0,2 1,-2 2,-5 4,-5 3,0 1,5 4,5 4,1 4,-9 10,-8 2,1 3,4 1,6 -1,2 -9,11 -13,8 -2,-1 -1,-1 -3,-2 -1,1 -3,3 -6,3 -5,1 -8,-9 -1,-16 8,-7 11,-2 10,0 -1,2 -4,2 -6,3 -3,2 -3,4 -4,5zm-89 -16c0,2 -1,3 -2,4 -1,1 -2,2 -4,1 -2,-1 1,-4 1,-6 1,-1 1,-1 0,-2l-2 0c0,1 -1,1 -2,2 0,1 -1,1 -1,2 -5,7 -1,11 6,15 4,2 7,5 9,8 3,4 3,9 1,13 -4,6 -17,10 -25,6 -2,-1 -5,-2 -5,-4 -1,-2 1,-5 2,-6 5,-4 8,-1 8,1 0,2 -1,2 -1,3 3,4 24,-2 16,-9 -3,-3 -4,-4 -9,-7 -3,-2 -7,-3 -9,-6 -5,-8 1,-17 5,-22 3,-2 7,-5 11,-3 4,1 3,8 1,10z"/>
   <path class="fil7" d="M546 138c1,-2 1,-14 0,-15 2,0 5,0 6,-1l-6 1 0 15z"/>
   <path class="fil8" d="M503 58c0,-1 -1,-1 -1,0 0,1 -1,1 0,1 2,0 1,0 1,-1z"/>
   <polygon class="fil9" points="450,67 451,67 451,66 450,66 "/>
   <path class="fil10" d="M451 67l1 0 -1 -1c-1,0 0,0 -1,0l1 0 0 1z"/>
  </g>
  <polygon class="fil11" points="662,63 703,24 684,24 638,67 638,24 624,24 624,119 638,119 638,85 652,72 686,119 703,119 "/>
  <path id="1" class="fil11" d="M733 111c0,-5 -4,-9 -9,-9 -5,0 -9,4 -9,9 0,5 4,9 9,9 5,0 9,-4 9,-9z"/>
  <path id="2" class="fil11" d="M810 24l-14 0 0 62c0,8 0,22 -17,22 -16,0 -17,-14 -17,-20l-14 0c0,18 8,32 31,32 24,0 31,-14 31,-34l0 -62z"/>
  <path id="3" class="fil11" d="M840 111c0,-5 -4,-9 -9,-9 -5,0 -9,4 -9,9 0,5 4,9 9,9 5,0 9,-4 9,-9z"/>
  <path id="4" class="fil11" d="M944 68c-10,-4 -23,-9 -23,-20 0,-8 7,-13 16,-13 11,0 20,6 26,13l9 -9c-8,-10 -20,-15 -33,-15 -20,0 -32,13 -32,25 0,16 14,23 27,28 15,6 23,9 23,18 0,9 -9,13 -20,13 -10,0 -20,-6 -25,-13l-10 10c9,9 23,15 35,15 17,-1 34,-8 34,-26 0,-15 -14,-21 -27,-26z"/>
  <path id="5" class="fil11" d="M1012 55c-18,0 -33,14 -33,32 0,19 15,33 33,33 18,0 32,-14 32,-33 0,-18 -14,-32 -32,-32zm0 10c11,0 19,8 19,22 0,14 -8,22 -19,22 -11,0 -20,-8 -20,-22 0,-14 9,-22 20,-22z"/>
  <path id="6" class="fil11" d="M1110 119l0 -37c0,-9 4,-17 15,-17 11,0 15,8 15,17l0 37 13 0 0 -37c0,-20 -12,-27 -25,-27 -11,0 -18,5 -22,13 -4,-9 -11,-13 -20,-13 -11,0 -17,5 -20,10l0 -10 -13 0 0 64 13 0 0 -37c0,-9 5,-17 15,-17 11,0 16,8 16,17l0 36 -1 1 14 0z"/>
  <path id="7" class="fil11" d="M1192 55c-9,0 -18,4 -24,11l8 6c5,-5 9,-7 15,-7 8,0 11,7 11,15l-11 0c-17,0 -29,6 -29,21 0,12 9,19 21,19 6,0 14,-2 19,-8l0 7 13 0 0 -39c0,-17 -8,-25 -23,-25zm10 42c0,7 -4,12 -16,12 -6,0 -11,-3 -11,-9 0,-6 4,-9 17,-9l10 0 0 6z"/>
  <path id="8" class="fil11" d="M1240 33c0,-4 -3,-8 -7,-8 -4,0 -7,4 -7,8 0,4 3,7 7,7 4,0 7,-3 7,-7zm0 86l0 -64 -13 0 0 64 13 0z"/>
  <path id="9" class="fil11" d="M1305 55l-13 0 -16 41 -16 -41 -13 0 22 55c0,7 -4,14 -9,14 -2,0 -5,-1 -8,-3l-2 9c4,3 9,4 13,4 8,0 13,-7 18,-18l24 -61z"/>
  <path id="10" class="fil11" d="M1336 55c-9,0 -18,4 -24,11l8 6c5,-5 9,-7 15,-7 8,0 11,7 11,15l-11 0c-17,0 -29,6 -29,21 0,12 9,19 21,19 6,0 14,-2 19,-8l0 7 13 0 0 -39c0,-17 -8,-25 -23,-25zm10 42c0,7 -4,12 -16,12 -6,0 -11,-3 -11,-9 0,-6 4,-9 17,-9l10 0 0 6z"/>
  <path id="11" class="fil11" d="M1502 103l-9 -9c-7,9 -15,14 -27,14 -17,0 -32,-16 -32,-36 0,-21 15,-37 32,-37 12,0 20,6 27,14l9 -8c-8,-11 -21,-17 -34,-17 -27,0 -48,21 -48,48 0,26 21,48 48,48 13,0 26,-6 34,-17z"/>
  <path id="12" class="fil11" d="M1540 55c-18,0 -32,14 -32,32 0,19 14,33 32,33 18,0 33,-14 33,-33 0,-18 -15,-32 -33,-32zm0 10c11,0 20,8 20,22 0,14 -9,22 -20,22 -10,0 -19,-8 -19,-22 0,-14 9,-22 19,-22z"/>
  <polygon id="13" class="fil11" points="1595,119 1595,20 1582,20 1582,119 "/>
  <polygon id="14" class="fil11" points="1619,119 1619,20 1606,20 1606,119 "/>
  <path id="15" class="fil11" d="M1689 92l0 -5c0,-18 -12,-32 -30,-32 -18,0 -31,14 -31,33 0,18 12,32 31,32 13,0 21,-6 26,-12l-7 -7c-6,5 -12,8 -19,8 -9,0 -18,-6 -18,-17l48 0zm-13 -10l-35 0c0,-9 9,-17 18,-17 10,0 17,7 17,17z"/>
  <path id="16" class="fil11" d="M1747 55l0 9c-3,-5 -11,-9 -20,-9 -18,0 -30,12 -30,32 0,19 12,33 30,33 9,0 17,-5 20,-10 0,17 -7,22 -19,22 -10,0 -19,-5 -23,-7l-5 8c5,4 14,10 31,10 16,0 29,-8 29,-32l0 -56 -13 0zm-19 54c-12,0 -18,-9 -18,-22 0,-13 6,-22 18,-22 12,0 19,9 19,22 0,13 -7,22 -19,22z"/>
  <path id="17" class="fil11" d="M1829 92l0 -5c0,-18 -12,-32 -30,-32 -18,0 -31,14 -31,33 0,18 12,32 31,32 13,0 21,-6 26,-12l-7 -7c-6,5 -12,8 -19,8 -9,0 -19,-6 -19,-17l49 0zm-13 -10l-35 0c0,-9 8,-17 18,-17 10,0 17,7 17,17z"/>
  <path id="18" class="fil11" d="M1922 55c-18,0 -32,14 -32,32 0,19 14,33 32,33 18,0 33,-14 33,-33 0,-18 -15,-32 -33,-32zm0 10c11,0 20,8 20,22 0,14 -9,22 -20,22 -11,0 -19,-8 -19,-22 0,-14 8,-22 19,-22z"/>
  <path id="19" class="fil11" d="M1998 37l0 -9c-2,-3 -6,-4 -11,-4 -12,0 -16,10 -16,23l0 8 -8 0 0 11 8 0 0 53 13 0 0 -53 14 0 0 -11 -14 0 0 -9c0,-7 2,-12 8,-12 2,0 4,1 6,3z"/>
  <polygon id="20" class="fil11" points="2126,107 2074,107 2074,76 2114,76 2114,64 2074,64 2074,36 2123,36 2123,24 2060,24 2060,119 2126,119 "/>
  <path id="21" class="fil11" d="M2193 119l0 -39c0,-18 -9,-25 -22,-25 -11,0 -18,4 -22,10l0 -10 -13 0 0 64 13 0 0 -35c0,-13 5,-19 16,-19 10,0 15,6 15,19l0 35 13 0z"/>
  <path id="22" class="fil11" d="M2253 55l0 9c-4,-5 -12,-9 -21,-9 -17,0 -30,12 -30,32 0,19 13,33 30,33 9,0 17,-5 21,-10 0,17 -7,22 -20,22 -10,0 -19,-5 -22,-7l-6 8c5,4 15,10 31,10 17,0 30,-8 30,-32l0 -56 -13 0zm-19 54c-12,0 -19,-9 -19,-22 0,-13 7,-22 19,-22 12,0 19,9 19,22 0,13 -7,22 -19,22z"/>
  <path id="23" class="fil11" d="M2290 33c0,-4 -3,-8 -7,-8 -4,0 -7,4 -7,8 0,4 3,7 7,7 4,0 7,-3 7,-7zm-1 86l0 -64 -13 0 0 64 13 0z"/>
  <path id="24" class="fil11" d="M2359 119l0 -39c0,-18 -10,-25 -23,-25 -11,0 -17,4 -22,10l0 -10 -13 0 0 64 13 0 0 -35c0,-13 5,-19 16,-19 11,0 16,6 16,19l0 35 13 0z"/>
  <path id="25" class="fil11" d="M2429 92l0 -5c0,-18 -12,-32 -30,-32 -18,0 -31,14 -31,33 0,18 12,32 31,32 13,0 21,-6 26,-12l-7 -7c-6,5 -12,8 -19,8 -9,0 -19,-6 -19,-17l49 0zm-13 -10l-35 0c0,-9 8,-17 18,-17 10,0 17,7 17,17z"/>
  <path id="26" class="fil11" d="M2498 92l0 -5c0,-18 -12,-32 -30,-32 -18,0 -31,14 -31,33 0,18 12,32 31,32 13,0 21,-6 26,-12l-8 -7c-5,5 -11,8 -18,8 -9,0 -19,-6 -19,-17l49 0zm-13 -10l-35 0c0,-9 8,-17 18,-17 9,0 17,7 17,17z"/>
  <path id="27" class="fil11" d="M2544 69l3 -10c-2,-2 -6,-4 -10,-4 -9,0 -14,5 -16,11l0 -11 -13 0 0 64 13 0 0 -30c0,-13 3,-24 14,-24 5,0 8,4 9,4z"/>
  <path id="28" class="fil11" d="M2569 33c0,-4 -3,-8 -8,-8 -3,0 -7,4 -7,8 0,4 4,7 7,7 5,0 8,-3 8,-7zm-1 86l0 -64 -13 0 0 64 13 0z"/>
  <path id="29" class="fil11" d="M2637 119l0 -39c0,-18 -9,-25 -22,-25 -11,0 -18,4 -22,10l0 -10 -13 0 0 64 13 0 0 -35c0,-13 5,-19 16,-19 10,0 15,6 15,19l0 35 13 0z"/>
  <path id="30" class="fil11" d="M2697 55l0 9c-4,-5 -12,-9 -21,-9 -17,0 -30,12 -30,32 0,19 13,33 30,33 9,0 17,-5 21,-10 0,17 -7,22 -20,22 -10,0 -18,-5 -22,-7l-6 8c5,4 15,10 31,10 17,0 30,-8 30,-32l0 -56 -13 0zm-19 54c-12,0 -19,-9 -19,-22 0,-13 7,-22 19,-22 12,0 19,9 19,22 0,13 -7,22 -19,22z"/>
  <path id="31" class="fil11" d="M2739 111c0,-5 -4,-9 -9,-9 -5,0 -9,4 -9,9 0,3 2,6 5,8l-5 14 4 0 11 -16c2,-3 3,-4 3,-6z"/>
  <polygon id="32" class="fil11" points="2842,119 2850,119 2894,24 2879,24 2846,95 2813,24 2798,24 "/>
  <path id="33" class="fil11" d="M2915 33c0,-4 -3,-8 -7,-8 -4,0 -7,4 -7,8 0,4 3,7 7,7 4,0 7,-3 7,-7zm-1 86l0 -64 -13 0 0 64 13 0z"/>
  <path id="34" class="fil11" d="M2952 55c-17,0 -30,13 -30,32 0,21 13,33 30,33 9,0 17,-5 21,-10l0 9 13 0 0 -99 -13 0 0 44c-4,-5 -12,-9 -21,-9zm2 54c-12,0 -19,-9 -19,-22 0,-13 7,-21 19,-21 12,0 19,8 19,21 0,13 -7,22 -19,22z"/>
  <path id="35" class="fil11" d="M3050 55l-13 0 -16 41 -16 -41 -13 0 22 55c0,7 -3,14 -9,14 -2,0 -5,-1 -8,-3l-2 9c4,3 9,4 13,4 9,0 13,-7 18,-18l24 -61z"/>
  <path id="36" class="fil11" d="M3081 55c-9,0 -18,4 -24,11l8 6c5,-5 9,-7 15,-7 9,0 11,7 11,15l-11 0c-17,0 -29,6 -29,21 0,12 9,19 21,19 7,0 15,-2 19,-8l0 7 13 0 0 -39c0,-17 -8,-25 -23,-25zm10 42c0,7 -3,12 -16,12 -6,0 -11,-3 -11,-9 0,-6 5,-9 18,-9l9 0 0 6z"/>
  <polygon id="37" class="fil11" points="3138,119 3146,119 3175,55 3162,55 3142,99 3122,55 3109,55 "/>
  <path id="38" class="fil11" d="M3196 33c0,-4 -3,-8 -7,-8 -4,0 -7,4 -7,8 0,4 3,7 7,7 4,0 7,-3 7,-7zm0 86l0 -64 -13 0 0 64 13 0z"/>
  <path id="39" class="fil11" d="M3265 119l0 -39c0,-18 -9,-25 -22,-25 -11,0 -18,4 -22,10l0 -45 -13 0 0 99 13 0 0 -35c0,-13 5,-19 16,-19 10,0 15,6 15,19l0 35 13 0z"/>
  <path id="40" class="fil11" d="M3305 55c-9,0 -18,4 -25,11l8 6c5,-5 9,-7 15,-7 9,0 11,7 11,15l-11 0c-17,0 -29,6 -29,21 0,12 10,19 21,19 7,0 15,-2 19,-8l0 7 13 0 0 -39c0,-17 -8,-25 -22,-25zm9 42c0,7 -3,12 -16,12 -5,0 -11,-3 -11,-9 0,-6 5,-9 18,-9l9 0 0 6z"/>
  <path id="41" class="fil11" d="M3375 69l2 -10c-2,-2 -5,-4 -10,-4 -8,0 -14,5 -15,11l0 -11 -13 0 0 64 13 0 0 -30c0,-13 2,-24 14,-24 5,0 8,4 9,4z"/>
  <g id="_1949038547904">
   <path class="fil12" d="M121 87l0 0c-1,10 -13,20 -25,20 -12,1 -24,-8 -26,-18 3,-6 13,-8 10,-24 -1,-11 -8,-15 -14,-20 0,5 3,7 0,14 -2,5 -5,6 -7,10 -6,9 2,18 8,21 -2,9 -15,19 -28,17 -15,-1 -18,-10 -23,-21 0,25 26,48 52,48 27,0 52,-22 53,-47z"/>
   <path class="fil12" d="M111 63c1,0 0,0 1,0 0,0 1,-1 1,-1 0,-1 0,-1 -1,-2l2 -2 2 2 1 -1c0,-1 -4,-8 -6,-9 -1,2 0,1 0,2l-4 2c0,0 0,0 1,-1 -2,0 -3,0 -3,-1 1,-1 3,0 4,-2l1 1 1 -1c0,-1 0,-1 -1,-2 -1,-1 -1,-2 -2,-2l-1 0c0,2 1,2 1,3 -2,2 -3,-1 -4,-2 -2,-1 -1,0 -2,-2 -5,-1 -5,6 -3,7 1,-2 0,-6 3,-5 0,2 -3,1 -1,3 1,-1 2,-2 3,-1 1,2 -3,4 2,6 -2,1 -2,1 -3,4 3,-1 6,-4 9,-5l1 2c-3,3 -1,1 -3,1 -1,1 -2,2 -2,4 2,1 3,-1 3,2z"/>
   <path class="fil12" d="M28 49c2,0 3,-3 5,-4l1 1c-1,2 -4,3 -3,5l4 1c0,-2 -1,-1 -1,-3l1 -1c3,1 2,3 6,2l-7 -7 2 -2c2,1 3,3 4,4 1,2 2,4 4,3l-6 -8c1,-2 2,0 1,-3 -3,1 -11,9 -12,11l1 1z"/>
   <path class="fil12" d="M86 27c-1,-1 -1,-1 -4,-2 1,5 3,2 5,6 -2,-1 -5,-2 -6,-1 -1,2 0,1 5,3l-2 3c-1,0 -2,1 -3,-1 2,-2 3,2 3,-2 -5,-1 -6,6 0,5 -1,2 -2,3 0,5 2,-2 3,-7 4,-9 1,0 1,0 2,-1 0,-3 -1,0 -1,-2 -1,-1 -1,-3 -1,-4 -1,-3 -1,-4 -4,-5 0,3 1,2 2,5z"/>
   <path class="fil12" d="M68 30l2 0 0 2 -2 0c-2,0 -3,-1 -4,1 -1,2 2,7 4,6 -1,-1 -3,-3 -2,-5l3 0c0,4 0,4 1,5 0,1 -1,1 -2,1l1 2c1,0 3,-2 3,1 -5,1 -4,-3 -7,-4 2,6 7,7 8,4 1,-3 -1,-2 -1,-5 0,-3 0,-5 0,-8 1,-1 1,1 1,-2l-1 0c-1,0 -7,0 -9,0l0 2c2,0 4,0 5,0z"/>
   <path class="fil12" d="M2 100c-3,2 -4,6 -2,9 2,3 6,4 8,1 2,-3 -2,-11 3,-9 1,0 2,2 2,4 0,3 -3,1 -1,4 5,-2 3,-10 -1,-10 -8,-2 -3,9 -5,11 -3,1 -4,-1 -5,-3 -1,-4 1,-4 2,-5 0,-1 0,-1 -1,-2z"/>
   <path class="fil12" d="M19 121c0,0 0,-1 0,-1 -1,-1 -1,-2 -2,-1 -1,1 -4,4 -5,5 -1,1 -1,1 -2,2l1 1c4,-1 5,-7 9,-3 0,2 -1,2 -2,4 -1,1 -3,2 -4,2 1,2 1,1 1,2 2,-1 3,-2 5,-4 2,-2 4,-2 5,1 0,2 -5,5 -6,7l1 1c2,-3 5,-4 6,-6 2,-3 0,-5 -4,-5 1,-3 -1,-5 -3,-5z"/>
   <path class="fil12" d="M97 41l-1 1c-2,0 -3,1 -3,-1 2,-1 3,0 4,0l-1 -2c-1,0 -3,-1 -4,1 -1,3 1,4 2,4 -1,3 -1,1 0,5 2,-2 4,-7 6,-8 2,1 5,4 6,5l1 -2 -11 -9c-2,-1 -1,-1 -2,0 0,-1 0,-1 -1,-1 -1,-1 -2,-1 -3,-1l0 1c0,1 0,0 2,1l1 1c2,1 4,2 5,3 0,1 0,2 -1,2z"/>
   <path class="fil12" d="M83 148c-2,-6 4,-7 5,-1 2,5 -4,6 -5,1zm6 3c1,1 1,1 2,0 1,-1 -1,-3 -1,-5 0,-1 -1,-3 -1,-5 -1,-3 -1,-5 -3,-4 -1,1 1,4 1,5 -5,-1 -8,3 -6,8 2,3 6,5 8,1z"/>
   <path class="fil12" d="M37 32c3,2 4,-2 7,2 -1,0 -4,2 -5,3l1 1c2,0 2,-1 4,-2l1 1c-1,1 0,0 -1,1 -1,1 -1,0 -2,2 0,2 2,4 6,4 3,-1 1,1 3,0 0,-2 0,-1 -1,-1 0,-1 0,-1 0,-2 -1,-2 -1,-2 -3,-1 0,1 0,1 0,2 -1,0 -2,0 -2,0l-1 -2 3 -2 -1 -3c1,-1 1,0 1,-1 -1,-1 -1,-1 -4,-3 -2,-1 -4,-1 -6,1z"/>
   <path class="fil12" d="M28 49l-2 0c-1,2 -4,6 -5,8 4,2 -1,-2 6,2 1,0 2,1 3,2 1,0 1,1 3,-1l-8 -5 1 -2c2,1 5,4 6,4 0,0 1,1 3,0l-8 -6 1 -2z"/>
   <path class="fil12" d="M27 140c-2,-1 -2,-2 -1,-3 1,-1 3,1 5,1 -1,1 -2,3 -4,2zm3 4c0,0 5,-7 5,-8 0,-2 -3,-7 -8,-4 0,1 0,1 1,1 2,0 1,-1 3,0 2,1 2,2 1,4 -3,-1 -6,-4 -9,-1 -2,3 2,6 5,6 1,1 0,1 2,2z"/>
   <path class="fil12" d="M131 110c1,1 2,1 2,2 1,2 0,3 -1,4 -4,1 -2,-5 -1,-6zm-6 5c2,-1 1,-1 0,-3 0,-3 4,-5 4,-2 0,1 -1,2 -1,3 -1,6 7,7 7,-1 1,-1 0,0 1,-2l-1 0c-1,-1 -7,-4 -8,-3 -3,0 -5,6 -2,8z"/>
   <path class="fil12" d="M55 148c-1,2 -1,4 -4,4 -2,-1 -3,-2 -2,-4 2,0 4,0 6,0zm-6 -4c2,1 1,1 2,0 2,-2 5,0 4,2 -2,1 -7,-1 -8,3 -1,4 4,4 7,3l1 2 1 -1c0,-4 2,-8 1,-9 -1,-2 -8,-4 -8,0z"/>
   <path class="fil12" d="M107 138c1,1 2,2 1,4 0,1 -2,2 -3,1 -4,-1 2,-5 2,-5zm-7 2c4,-1 0,-2 3,-4 1,-1 2,-1 3,0 0,3 -6,4 -4,8 1,2 5,3 8,-3 1,0 0,1 2,0 -1,-1 -2,-2 -3,-4 -1,-1 -2,-3 -3,-4 -1,0 -7,1 -6,7z"/>
   <path class="fil12" d="M62 140c0,1 6,14 7,15l2 0 5 -15 -2 0 -5 13c-1,-4 -3,-9 -5,-13l-2 0z"/>
   <path class="fil12" d="M127 127c-2,-2 -8,-4 -7,-8 2,-4 6,2 10,4l1 -2c-1,-1 -6,-4 -7,-5 -3,-1 -5,2 -5,5 -3,-1 -3,-3 -5,-2 0,1 0,1 0,1l12 8 1 -1z"/>
   <path class="fil12" d="M54 34l0 2c0,1 -1,2 -2,2 -1,-2 0,-2 2,-3l-1 -1c-1,0 -1,0 -2,0 -3,3 1,7 4,4 1,2 0,2 3,3l-2 -9c0,-2 1,1 1,-2 -2,-1 -9,2 -10,3l1 1 5 -2 1 2z"/>
   <path class="fil12" d="M11 113c4,-1 5,6 0,7 -5,1 -7,-5 0,-7zm5 5c1,-3 -1,-6 -4,-7 -3,0 -6,2 -7,4 -1,4 1,7 4,7 3,0 6,-2 7,-4z"/>
   <path class="fil12" d="M89 141c0,0 0,0 1,1l5 5c5,4 2,4 0,6 1,1 1,1 2,1 3,0 2,-5 2,-7 0,-2 0,-8 -1,-10 -2,0 -2,0 -2,2l1 7c-1,-1 -4,-4 -5,-5 -1,-1 -1,-1 -3,0z"/>
   <path class="fil12" d="M42 138l-2 -1c0,3 0,6 0,9 -1,6 -3,4 -5,4 0,3 3,3 4,2l10 -11c-2,-1 -2,-1 -3,1l-5 5 1 -9z"/>
   <path class="fil12" d="M4 57c-1,0 -1,0 -2,-1 -1,0 -1,0 -2,0 -1,2 2,2 4,3 1,1 3,1 4,2l1 -2c-2,-1 -3,0 -3,-3 5,0 4,0 5,-3l-6 1 -2 -4 -1 2c0,1 1,3 2,5z"/>
   <path class="fil12" d="M109 133c3,2 7,5 8,3 1,-1 -3,-10 -3,-11l-2 1c0,2 3,7 4,9 -2,-1 -7,-4 -9,-4l-1 1c1,1 2,1 3,1z"/>
   <path class="fil12" d="M45 18c2,3 -3,4 -3,0 0,-1 0,0 1,-1 0,0 0,-1 2,1zm1 3c1,4 -2,1 -4,3 2,2 5,0 6,-1 0,-3 -2,-6 -2,-8 -2,0 -1,0 -2,0l-2 1c-3,1 -2,6 1,6 1,1 2,-1 3,-1z"/>
   <path class="fil12" d="M62 11c0,0 0,0 1,1l1 2 -3 0 1 -3zm-4 7l2 0c1,-1 0,-1 1,-2l3 0c2,1 0,1 3,1l-3 -6c0,-1 0,-2 -2,-2 -2,-1 -2,3 -2,4 -1,2 -1,3 -2,5z"/>
   <path class="fil12" d="M22 33c-2,0 -2,-1 -4,-1 -1,2 0,1 2,4 -3,-1 -4,-2 -5,0 2,1 5,3 7,2 0,-1 -1,-2 -2,-4 1,1 3,2 4,2 1,-2 1,-1 -1,-4 -1,-2 0,-2 -2,-3 -1,2 0,2 1,4z"/>
   <path class="fil12" d="M35 21c3,-1 4,2 2,3 -1,1 -3,-1 -2,-3zm1 -2c0,0 -6,1 -2,6 1,0 2,1 4,1 1,-1 0,-1 1,-2 1,0 0,1 1,0 0,0 -3,-9 -4,-8 -2,1 -1,2 0,3z"/>
   <path class="fil12" d="M109 31c-1,-3 2,-5 3,-4 1,1 0,4 -3,4zm-3 -1l2 0c0,1 0,1 1,2 1,1 2,1 3,0 2,-2 3,-6 -1,-6 1,-1 1,-1 2,-3l-1 0c-1,0 -5,6 -6,7z"/>
   <path class="fil12" d="M27 63c0,2 0,1 -1,2 0,0 -1,1 0,2 2,1 2,0 3,-1 2,-2 1,0 2,-2 -2,-1 1,1 -1,0 -3,-1 -1,-5 -6,-1 1,-3 2,-4 0,-4 -1,0 -1,0 -2,4 0,1 -1,3 2,2 1,0 2,-2 3,-2z"/>
   <path class="fil12" d="M110 64c-1,1 -3,0 -2,3l8 -3c2,1 -1,-1 1,1 1,0 -1,0 1,0 2,0 0,-3 0,-5 -3,0 -2,0 -2,2l-6 2z"/>
   <path class="fil12" d="M138 106c-3,-3 -10,0 -7,-6l-2 -1c-1,1 -2,2 0,3 0,1 0,1 0,1 0,0 -1,0 -1,0 0,0 0,-1 -1,1l5 2c2,0 4,1 6,2l0 -2z"/>
   <path class="fil12" d="M50 16c0,-2 1,-2 2,-1 -1,1 1,0 -1,1 -1,0 -1,0 -1,0zm4 1c-2,0 -1,0 -2,1 -1,1 -1,1 -2,0 0,-1 0,0 1,-1 0,0 0,0 1,0 0,0 1,-1 2,-1 -1,-5 -6,-4 -6,0 0,5 5,5 6,1z"/>
   <path class="fil12" d="M28 27c0,-2 1,-3 2,-2 0,1 1,0 0,1 -1,0 -1,0 -2,1zm5 -1c-2,1 0,1 -2,2 -1,0 -1,0 -2,0 2,-2 3,-1 4,-3 -1,-1 -2,-2 -4,-2 -2,1 -3,2 -2,4 2,4 6,2 6,1 0,-2 0,-2 0,-2z"/>
   <path class="fil12" d="M89 17c1,-2 3,-2 3,1l-3 -1zm3 3c-2,-1 -3,1 -3,-2l4 1c1,-5 -4,-6 -5,-3 -2,5 3,7 4,4z"/>
   <path class="fil12" d="M76 16l-2 0c-1,-1 -1,-2 0,-3 3,-1 3,2 2,3zm-2 -5c-5,2 -2,8 2,7 4,-2 2,-8 -2,-7z"/>
   <path class="fil12" d="M123 43c1,1 1,1 1,2 -1,1 -3,0 -2,-1 0,-1 0,-1 1,-1zm3 1c-3,-1 -2,-3 -5,-2 -1,1 -1,2 0,3 2,2 0,0 2,3 1,-1 4,-3 4,-4 1,-2 -1,-4 -3,-3 1,2 3,1 2,3z"/>
   <path class="fil12" d="M116 33c1,-1 -1,-1 1,-1 1,0 2,1 0,2l-1 -1zm1 4c0,0 -1,-1 -1,-1 0,0 -1,0 -1,0 -1,-3 0,-2 0,-2 1,0 2,1 2,2 4,0 3,-7 -2,-5 -4,2 -2,9 2,6z"/>
   <path class="fil12" d="M130 52c2,0 2,2 1,3 0,-1 0,0 -1,-1 0,-1 0,-1 0,-2zm0 5c-1,-3 -4,-2 -2,-4 2,1 2,2 3,4 4,-2 2,-7 -2,-6 -4,1 -4,6 1,6z"/>
   <path class="fil12" d="M16 43c-3,1 -4,-2 -3,-3 1,-1 4,0 3,3zm-3 -4c-1,0 -1,0 -2,1 -1,3 3,6 5,5 4,-2 1,-9 -3,-6z"/>
   <path class="fil12" d="M6 49c0,1 0,0 1,1l3 2c1,0 2,0 2,0 1,-3 -4,-1 -3,-5 2,-1 2,1 5,2l0 -1c0,-1 -5,-5 -6,-2 -1,3 -1,1 -2,3z"/>
   <path class="fil12" d="M79 18l2 0c0,0 0,0 0,-1 0,0 1,-1 1,-2 1,-2 3,-2 2,2 -1,2 -1,2 1,2 1,0 0,-1 1,-2 0,-2 0,-2 0,-4 -1,0 -2,-1 -4,0 0,-1 0,-1 -1,-1l-2 6z"/>
   <path class="fil12" d="M131 62c-3,-1 1,-2 -1,-4 -3,5 3,9 3,4 0,-3 0,-2 0,-3 2,1 1,0 1,2 0,2 0,1 1,2 2,-4 -3,-9 -4,-3 0,2 0,2 0,2z"/>
   <path class="fil12" d="M97 24l4 2c2,1 3,0 0,-1 -1,-1 -1,-1 -2,-2 1,-2 3,-4 3,-6l-1 -1c-1,1 -4,6 -4,8z"/>
   <path class="fil12" d="M35 145c0,0 0,-1 0,-1 2,-2 4,-6 4,-7l-1 -1c-1,1 -5,8 -6,10l2 0 1 -1z"/>
   <path class="fil12" d="M123 131c0,-2 -3,-3 -4,-4 -2,-3 -2,-3 -4,-4l-1 1c1,1 7,7 8,8l1 -1z"/>
   <path class="fil12" d="M78 153c0,2 -1,1 1,1 1,-1 1,0 1,-1l-2 -10c-1,0 0,0 -1,0 0,1 0,1 0,1l1 9z"/>
   <path class="fil12" d="M124 49c0,2 0,2 2,3 1,-2 -2,-1 1,-3 1,0 2,0 2,0 1,0 -1,0 1,0l1 -1c0,-1 0,0 1,-1 0,-1 0,-1 -2,-1 0,0 0,0 0,0 -2,0 0,-1 -1,0 -2,0 0,0 -1,0 0,1 0,1 -1,2 -1,0 -2,0 -3,1z"/>
   <path class="fil12" d="M68 17l2 0c0,-1 0,-6 0,-9l-1 0c-1,2 -1,7 -1,9z"/>
   <path class="fil12" d="M27 33l1 -1c0,-1 -1,-2 -3,-4 0,0 0,-1 -1,-1 0,-1 -1,-1 -1,-1 0,-1 0,-1 -1,-1 -1,2 -1,0 2,4 1,1 2,2 3,4z"/>
   <path class="fil12" d="M117 39l1 2c1,-1 2,-2 4,-3 2,1 0,2 2,1l0 -1c0,-1 0,-1 -2,-1 1,-1 1,-1 0,-2 -1,1 -4,3 -5,4z"/>
   <path class="fil12" d="M86 38l1 0c1,1 1,0 2,1 0,1 0,1 -1,2 -2,1 -1,-1 -2,1 4,2 6,-5 1,-6l-1 2z"/>
   <polygon class="fil12" points="18,65 20,65 22,59 20,58 "/>
   <path class="fil12" d="M104 28c1,0 1,1 2,-1 1,-2 3,-4 1,-5 -1,0 -2,2 -2,3 -1,2 -2,2 -1,3z"/>
   <path class="fil12" d="M104 65l2 2c-1,2 -2,2 -2,4 1,-1 5,-4 2,-7 -1,1 -1,1 -2,1z"/>
   <path class="fil12" d="M76 141c0,1 0,0 0,0l2 0 0 -2 -2 0c0,1 0,0 0,2z"/>
   <path class="fil12" d="M112 123c1,-1 1,0 2,-1l-2 -2 -1 1 1 2z"/>
   <path class="fil12" d="M41 134c0,-1 0,-1 -1,-1l-1 1 2 1 0 -1z"/>
   <path class="fil12" d="M107 22c2,0 3,-1 1,-2l-1 2z"/>
   <path class="fil12" d="M121 87l0 0c1,-1 1,-1 1,-2 0,0 -1,0 -1,1 0,1 0,1 0,1z"/>
  </g>
  <g id="_1949038565696">
   <path class="fil13" d="M261 135l0 11 -2 0 0 -10c0,-1 1,-1 2,-1zm-1 -3c0,0 1,0 1,0 2,2 -2,3 -2,1l1 -1zm3 1c-1,-2 2,-1 5,-1 1,0 2,0 2,1 0,1 -2,1 -4,1 0,0 -1,0 -2,0 -1,0 -1,0 -1,-1zm-25 -4c0,-3 5,-2 6,-2 1,0 2,1 2,2l2 3 8 0c2,0 2,0 2,2 -1,0 -5,0 -7,0 -3,0 -2,0 -4,2 -2,2 -2,3 -3,3 -4,0 -5,0 -6,-2l4 0c2,0 2,0 3,-2 1,-1 2,-2 1,-3 -3,-4 -1,-3 -8,-3zm24 -5c-1,4 0,7 -2,7 -1,0 -1,-2 -1,-3 0,-6 1,-4 -3,-7 -2,-2 -1,-2 -2,-7 1,0 1,-1 2,-1l0 6c1,0 4,2 5,2 0,0 3,-1 4,-2l0 -5c1,0 0,0 2,1 0,1 -1,2 -1,3 0,4 0,1 -4,6zm7 -31l0 0c0,0 2,0 4,0 1,-1 2,-1 3,-2 1,0 3,1 4,2 2,1 3,1 5,1 1,4 0,2 -5,4 -2,1 -3,2 -6,2 0,-1 0,-1 1,-1 1,-1 -2,0 2,-2 1,0 1,0 1,-1 -1,-2 -3,-1 -5,-1l-3 -1c-1,0 -1,0 -1,-1zm-18 0c1,0 10,-2 9,1 0,0 -1,0 -1,1 0,2 0,4 -2,4 -1,0 -1,0 -2,0l-1 0c0,1 1,1 3,1 3,0 2,-2 4,-1 1,0 1,0 1,1 3,1 5,1 7,1 4,0 4,1 10,-1 2,-1 3,-2 6,-2 1,2 0,2 4,2 1,0 1,1 1,0l-2 -1c-1,0 -1,0 -2,0l0 -7c3,-1 4,1 7,2 3,0 6,0 9,0 3,0 6,0 9,0 1,0 8,-1 9,0 1,1 0,11 0,14 0,13 0,22 -11,31 -3,2 -8,5 -12,6l-2 1c-2,0 -4,1 -5,2 -1,0 -2,0 -3,1 -1,0 -1,0 -2,1l-10 4c-1,1 -3,2 -5,2 0,-1 1,-1 1,-2 0,-8 0,-17 0,-24 0,-3 0,-27 -1,-28l-1 0 1 29 -5 0c-2,0 -2,0 -2,-1 0,0 0,0 0,0 0,0 0,0 0,0l0 -3c0,-2 -1,-3 0,-4 6,-4 5,-1 5,-9 -1,-1 -5,-4 -6,-4 0,2 1,2 2,4 0,1 0,3 0,4 0,0 -3,2 -4,2 0,0 -2,-1 -3,-2 0,-1 1,-5 1,-6 0,-1 1,0 1,-2 -2,0 -5,3 -6,4l0 6c1,1 4,2 4,3 1,1 1,6 1,8 -1,0 -8,0 -9,0 0,-1 -1,-1 -1,-1l-3 -4c-1,0 -2,0 -4,0 -2,0 -3,0 -4,2l-2 2c0,1 0,1 0,1 1,0 2,0 3,-1 1,0 4,-1 5,0 0,0 0,0 1,0 0,1 1,2 1,3 0,1 -1,2 -2,3 -1,0 -3,0 -4,0 -1,-1 -3,-1 -4,-1 0,1 1,1 1,2 1,1 2,3 3,3 1,0 2,0 3,0 5,0 4,-1 7,-5l9 0c0,3 0,6 0,9 0,3 0,4 5,3 0,-3 0,-7 0,-10l0 -2c0,0 0,0 0,0 1,0 1,0 1,0l4 0c0,0 1,0 1,0 1,0 0,0 1,0 0,1 0,15 0,17 -1,0 -1,1 -1,2 0,0 0,1 0,1l0 1c0,0 0,0 0,0 0,1 0,1 -1,1 0,0 -1,-1 -2,-1 0,-1 -1,-1 -2,-1 0,0 -1,-1 -1,-1l-4 -2c-1,0 -2,0 -2,-1 -1,0 -2,0 -3,-1l-13 -5c-1,0 -2,-1 -2,-1 -7,-2 -13,-6 -17,-12 -2,-3 -3,-6 -4,-10 -1,-2 -1,-5 -1,-7 0,-2 0,-19 0,-21 4,-1 23,0 30,0 2,0 2,-1 4,-1l0 0zm16 0c0,2 2,2 4,2 1,1 2,1 4,1l1 0c0,1 0,1 -1,1 -4,1 -7,-2 -10,-2 1,1 5,2 7,3l1 0c-2,2 -6,-1 -9,-1 1,0 1,1 3,1l3 2c-4,0 -6,-1 -10,-3 0,-1 1,-3 1,-4 1,-2 2,-2 4,-2 1,-1 3,-1 5,-1 2,0 3,0 5,0 0,1 -1,1 -1,1 -4,1 -6,0 -7,2zm23 -16c-1,-1 0,-2 0,-2 2,0 2,1 2,1 0,1 -1,1 -2,1zm-12 -2c0,0 1,1 1,2l-3 0c1,-1 0,-1 1,-1 0,-1 0,-1 1,-1zm-3 0l0 -2c2,0 2,2 0,2zm4 -1c0,-2 1,-2 1,-2l0 3c-1,0 -1,0 -1,-1zm13 -2c0,0 0,0 1,0l0 3c-1,-1 -1,-1 -1,-3zm-3 2l0 -2c1,0 1,0 1,2 0,0 0,0 -1,0zm-13 -3l3 0c0,1 0,0 0,1 -2,1 -1,1 -3,0 0,0 0,0 0,-1zm13 -2l3 0c0,2 0,1 -1,2 -1,0 -2,0 -2,-2zm-71 1c3,-1 -2,-1 9,-1l9 0c0,0 0,1 0,1 0,1 0,0 1,1 0,-1 0,0 0,-1 0,0 0,-1 0,-1 2,0 3,1 4,2l1 2c1,2 -3,2 -7,2 -1,0 -17,0 -18,-1 0,-1 0,-2 1,-3l-1 0 0 -10c1,0 2,-1 3,-1 0,3 0,5 1,6 1,1 0,0 1,1 0,0 0,0 -1,0 0,1 -3,1 -3,3zm16 -4l-10 0c-3,0 -3,-1 -3,-4 0,-2 0,-5 0,-7 0,-6 0,-5 9,-5 9,0 8,-1 8,12 0,4 -1,4 -4,4zm-17 -6l0 -4c0,-1 -1,-1 1,-2 0,0 1,0 2,0l0 5c-1,0 -2,1 -3,1zm102 7l-7 8c-1,0 0,0 -1,0 -1,-5 0,-12 0,-18 0,-2 0,-2 3,-5l4 -4c0,0 0,-1 1,-1l0 20zm-64 -17c0,0 2,2 2,3l-5 0c0,-1 0,-1 1,-2 1,0 1,-1 2,-1zm51 -7c1,-1 1,-1 2,-1 1,1 1,1 1,1l0 7c0,1 -2,1 -2,1 -1,-1 -1,-8 -1,-8zm-34 15c0,-3 0,-4 2,-5l6 -5c1,-1 2,-2 3,-2 1,0 1,1 1,2 0,1 0,2 0,2 2,0 4,0 6,0 1,-1 2,-1 3,-1 1,0 1,0 3,0 -1,1 -1,1 -1,1 -4,4 -1,2 -10,5 -2,0 -4,1 -6,1 -2,1 -5,2 -7,2zm-15 -8c-1,0 -1,-1 -1,-1 -1,-1 0,-2 1,-2 1,1 1,3 1,4 -1,0 -1,0 -1,-1zm-6 1c0,0 1,-4 1,-4 1,0 2,1 2,2 -1,1 -2,2 -3,2zm50 -5l1 3c1,1 1,0 3,0l0 3c1,1 2,1 4,0 1,-1 1,-1 1,-4 3,0 5,-1 7,-1 0,1 -4,5 -5,6 0,0 0,0 -1,0 -1,2 -1,2 -6,3l-11 1c-1,0 -1,-1 -1,-2 0,-2 1,-2 3,-4 0,-1 1,-1 1,-2 1,-1 1,-1 3,-2 1,-1 0,-1 1,-1zm-43 0c1,0 1,0 1,1 0,2 1,5 1,6 -1,0 -1,-1 -1,-3l-1 -3c0,-1 0,0 0,-1 0,0 0,0 0,0zm-8 7c-1,0 -2,0 -2,1 0,1 2,0 3,0 2,0 3,0 5,0l6 0c1,0 1,0 1,-1 -1,0 -1,0 -2,0 0,-1 -1,-4 -1,-5 0,-1 0,-1 0,-2 2,0 1,0 4,3 1,0 1,1 2,1 0,0 1,0 1,0l1 1 0 29 1 0c1,-2 0,-24 1,-28l3 0c0,1 0,1 -1,1 0,1 -1,1 -1,2 0,0 0,2 0,2 0,1 1,1 1,2 4,0 9,-2 13,-3l7 -2 0 4c2,1 2,0 4,0 4,0 7,-1 10,-1 1,-1 2,-1 4,-1l0 21 -16 0c0,-3 0,-7 0,-8 -1,-1 -5,-1 -6,0 -1,1 1,7 0,8 -1,0 0,0 -1,0 -1,0 -4,0 -5,0 -1,-2 0,-5 -1,-7 0,0 0,0 -1,0 -1,-1 -3,0 -4,0 -2,0 -2,0 -2,1l0 6c-2,0 -3,-1 -3,1 3,0 32,0 37,0 3,0 3,-1 5,-3 2,-2 4,-4 6,-7 0,0 0,0 1,0 0,7 0,17 0,24 -4,0 -26,1 -29,0 -1,-1 -2,-1 -4,-2 -3,0 -2,0 -2,3 -3,0 -6,-2 -8,-3 -3,-1 1,-2 -5,-1 -4,0 -8,0 -11,2 -1,1 -1,0 -3,0 -6,0 -6,1 -10,2 -7,0 -17,-1 -24,-1l-6 0c-2,0 -1,-1 -1,-4 0,-1 0,-3 0,-4 0,-3 0,-5 0,-8 0,-1 1,-1 3,0 6,0 15,0 21,0 2,-1 2,-1 3,-2 0,-1 -2,-3 -3,-4 0,0 -1,-1 -1,-2 -1,0 -1,0 -1,0 0,0 0,0 0,0l-1 0c0,0 -1,0 -1,-1 1,-2 2,1 2,-6 0,-11 -2,-6 6,-11 3,-2 4,-4 6,-4 0,1 -1,6 -1,7zm6 -7c0,1 -2,2 -3,0 1,-1 3,-1 3,0zm-3 -4c0,-1 0,-2 1,-3 0,-1 0,-2 0,-3 1,1 1,1 1,2 1,4 2,4 -2,4zm16 -22c2,0 1,0 2,1 2,1 7,5 9,6 4,2 3,1 6,3 4,1 10,2 15,2 2,0 6,0 8,-1l2 -1c1,0 1,0 2,0l5 -2c2,-1 1,-2 3,-2 0,3 0,18 -1,18 0,0 0,0 0,0 -2,1 0,0 -1,1 -1,1 -7,2 -9,2 0,-6 1,-6 -2,-6l0 -2c1,-1 2,0 2,-2l-4 0c0,1 -1,1 -1,3 1,1 1,0 1,1 0,1 0,0 -1,1l0 6c-1,0 -1,0 -2,0l-1 -5c-1,0 -2,2 -3,3 -1,2 -1,1 -4,2l-10 1c0,-1 0,-5 -1,-5 -1,-1 -1,0 -3,2 -1,1 -4,4 -6,4 -2,0 -4,0 -6,0l0 -30zm-34 28c0,0 0,0 1,0l4 -3c3,-1 9,-6 11,-9 1,-1 1,-2 2,-2 0,2 0,2 0,2 -1,3 0,6 -2,6 -1,1 1,0 0,0 -2,1 -1,0 -2,1 0,1 0,0 1,0l8 0c2,0 3,1 3,-1 -1,0 -1,0 -2,0 -1,-2 -1,-4 -2,-5 0,-2 0,-2 0,-2 1,0 1,1 2,1 4,4 8,6 9,7 0,1 0,2 0,3 0,2 1,4 -1,3 -1,0 -3,-1 -4,-2l-1 -2c-1,-1 -9,0 -10,0 -2,0 -3,-1 -4,1 -1,1 -7,6 -9,6l-1 -2c-1,-1 -2,-1 -3,-1 0,-1 0,0 0,-1zm33 -7c-2,0 -4,-1 -5,-2 -1,-1 -3,-2 -4,-4 2,0 3,1 4,1 2,0 4,0 5,0l0 5zm-53 -15c1,2 0,0 2,1 0,0 1,0 1,0l1 1c0,0 0,0 1,0l4 2c2,1 4,2 6,2 4,0 10,0 14,0 3,-1 5,-2 7,-2 2,-1 4,-2 6,-3 2,-2 4,-2 6,-4 1,-1 3,-4 5,-4 0,3 0,5 0,8 0,1 0,7 0,7 -2,1 -7,0 -8,0 0,-1 -2,-1 -3,-2 -2,-2 -1,-2 -4,0l-5 3c-3,1 -5,3 -8,3l-3 1c-3,1 -9,2 -12,2 -1,0 -4,0 -5,1 2,0 15,-1 17,-2 1,0 2,0 2,-1l6 -1c1,-1 5,-3 6,-3 0,1 -5,5 -6,6 -3,1 -5,3 -7,5 -2,0 -3,1 -5,2 -3,2 -8,0 -11,1 -2,1 -1,3 -2,3 -1,1 -2,1 -4,1 0,-2 0,-4 0,-6 0,-3 0,-4 1,-6 -1,-1 -1,-4 -1,-6 0,-2 0,-4 0,-5l-1 10c0,4 0,8 0,11 0,8 1,16 1,23 0,8 0,16 0,24 0,7 -1,16 0,22 0,2 1,3 1,5 1,3 2,6 4,8 1,1 2,2 3,3 3,4 9,7 14,9l12 5c2,0 3,1 4,2 2,0 3,1 4,2 1,0 2,0 2,1 1,0 2,0 2,0 2,1 3,2 4,2 3,1 2,2 5,1 5,-2 10,-5 16,-8l8 -3c0,0 1,-1 2,-1l6 -2c9,-5 16,-13 18,-23l1 -5c0,-2 0,-4 0,-6 -1,-3 -1,-14 -1,-17 0,-2 0,-20 1,-23 0,-5 0,-17 0,-23 0,-6 0,-17 0,-23 -1,0 -2,1 -3,1 -2,2 -7,4 -10,5 -4,1 -8,1 -13,1 -4,-1 -7,-2 -11,-3 -6,-2 -11,-6 -15,-10 -1,-1 -1,-1 -1,-1 -1,0 -2,1 -3,2 -5,5 -13,9 -20,11 -6,1 -12,1 -17,0 -4,-1 -5,-1 -7,-2 -1,0 -5,-3 -6,-3 0,0 0,0 -1,1z"/>
   <path class="fil13" d="M238 28c2,0 4,0 6,0 1,0 1,-1 2,-1 2,-1 6,-2 8,-3 3,-2 6,-4 9,-6 0,-1 5,-6 5,-6 1,0 1,0 2,1 6,6 3,4 11,10 4,3 13,5 18,5 3,0 5,0 8,-1 6,-1 10,-4 15,-7 1,-1 1,-2 3,-2l0 87c0,6 0,16 -2,21 -1,3 -2,5 -3,7l-5 6c-1,1 -5,4 -7,5l-3 2c-1,0 -1,0 -2,1 -1,0 -2,1 -3,1 -2,1 -3,1 -5,2 -3,1 -5,2 -8,3l-15 8c-3,2 -2,1 -7,-2 -1,0 -1,0 -2,-1 -1,0 -2,-1 -2,-1 -2,0 -4,-1 -5,-2l-5 -2c-5,-1 -10,-3 -14,-5 -1,0 -1,0 -2,-1l-2 -1c-2,-1 0,1 -3,-1 -1,-1 -1,-1 -1,-1 -2,-1 -4,-2 -5,-3 -1,-1 -2,-1 -2,-2 -1,-1 -1,-1 -2,-2 -4,-4 -4,-5 -6,-10l-1 -6c0,-1 -1,-1 -1,-3 0,-7 0,-19 0,-27l0 -73c2,0 5,3 6,4l5 3c2,1 2,0 4,1 1,1 2,1 3,1 3,1 4,1 8,1zm30 -18c-1,0 -1,2 -3,3 -2,2 -2,3 -3,2 -1,-1 -2,-2 -2,-3 0,-1 -1,-2 0,-3 0,-6 7,-10 11,-8 10,4 5,14 3,14 -1,1 -3,-3 -4,-4 -1,-1 -1,-1 -2,-1zm-8 -7c0,4 -3,3 -1,10 1,3 4,3 0,6 -2,2 -5,4 -8,5 -12,5 -25,3 -35,-5l-4 -3c0,-1 -1,-1 -1,-1 0,1 0,1 0,3 0,33 0,67 0,100 0,2 0,2 0,3l1 3c1,5 3,9 6,13 1,0 1,0 1,1 0,0 0,0 1,1 1,1 2,2 4,3 1,1 4,3 6,4 1,0 1,0 1,1l19 7c1,0 1,0 1,0 5,2 10,4 15,7l4 3c0,-1 1,-2 4,-3l5 -3c2,-1 4,-3 7,-3l4 -2c3,-1 5,-2 8,-3 3,-1 6,-2 9,-4l4 -3c7,-4 11,-10 14,-18 0,-1 0,-2 0,-3 1,-1 1,-2 1,-4 0,-1 0,-2 0,-3l0 -84c0,-4 0,-9 0,-13 0,-1 0,-2 0,-3 0,0 0,0 0,0 0,0 -1,0 -1,0l-2 2c0,0 0,0 -1,1l-4 3c0,0 -1,0 -1,1 -3,1 -5,2 -8,3 -8,3 -17,2 -24,-2l-5 -2c-1,-1 -1,-1 -1,-1 -1,-1 -2,-2 -4,-3 3,-4 3,-4 3,-9 0,-2 -2,-5 -3,-6 -3,-2 -4,-2 -8,-2 -1,-1 0,0 -2,0 -2,1 -3,3 -5,3z"/>
   <path class="fil13" d="M232 102c4,-1 8,2 9,6 1,5 -2,9 -6,10 -8,1 -13,-7 -9,-13 2,-2 3,-2 6,-3zm-7 -4c0,2 1,1 1,4 -4,0 -2,-4 -6,1 0,1 -2,2 -2,2 1,1 6,4 2,5 -1,0 -2,1 -2,1 0,0 1,3 1,3 2,3 1,2 2,3 1,0 1,0 2,0 1,0 2,0 2,1l0 0c-1,1 -2,1 -2,2 0,0 6,4 6,4 1,0 2,-5 4,-3l1 3c1,0 6,-2 7,-2 0,-2 -1,-2 -1,-3 3,-1 3,2 5,0 0,0 4,-4 4,-5 -2,-2 -4,-1 -4,-3 2,-1 2,-1 3,-1 0,0 0,-1 0,-1 0,0 0,0 0,0 0,0 0,0 0,-1 0,-1 0,-1 -1,-2 0,-1 0,-2 -1,-3 -1,0 -2,1 -4,1 0,-1 0,0 2,-2 0,-1 1,-1 -1,-2 -2,-1 -4,-3 -6,-3 0,1 0,1 -1,2 -1,2 -2,0 -2,-1 -1,0 -1,-1 -2,-2 -1,0 -2,1 -3,1 -2,0 -3,1 -4,1z"/>
   <path class="fil13" d="M305 101c3,0 2,1 4,1 3,0 3,-1 4,-1 1,1 1,1 2,2 0,1 1,1 2,2 0,2 0,1 -2,2 -1,1 -1,1 -1,3 -1,0 -3,1 -3,-1 -1,-1 0,-2 -2,-2 -1,1 -1,2 -2,3 -3,0 -1,-2 -3,-4 -1,-1 -1,-2 -1,-3 1,-1 1,-1 2,-2zm3 -5c-3,1 -3,1 -6,3 0,1 0,0 -1,1 -1,2 -1,3 -1,6 1,8 12,10 17,4 3,-3 3,-9 -2,-12 -1,-2 -4,-3 -7,-2z"/>
   <path class="fil13" d="M296 113c0,0 1,2 1,2 0,2 0,2 -2,2 0,-1 0,-1 0,-2 0,-2 -1,-3 1,-2zm-7 -1l1 1c0,1 0,1 0,2 0,2 0,2 -1,2 -1,-1 -1,-3 0,-5zm-5 5l0 -4 1 0c0,0 1,4 -1,4zm-8 -6c1,0 1,-1 1,1 0,0 0,1 0,1 0,1 0,0 -1,1 0,-1 -1,0 0,-3 0,-1 0,0 0,0zm7 -1c4,0 11,-1 14,0l0 2 -16 0c-1,-3 0,-2 2,-2zm-6 -3c3,2 2,2 2,4 -1,0 -1,0 -3,-2 -1,0 -2,-1 -2,-2l0 -2c1,0 1,1 3,2zm3 -3c4,0 8,0 11,-1 1,0 1,1 2,1 1,1 3,3 3,4l-13 0c-3,0 -3,1 -5,-1 -2,-2 -3,-2 -3,-3l5 0zm-3 -1c-1,0 -3,0 -4,0 0,5 -1,4 1,6 1,1 0,3 0,4l2 2c0,1 -1,0 0,1 1,-1 1,-1 1,-1 0,-1 0,-1 1,-1l0 -2c2,0 1,1 2,1 2,0 2,-1 3,0 0,1 -1,2 -1,3 1,1 1,1 2,2 0,0 0,0 0,1 1,0 1,0 1,-1 1,-2 1,2 1,-5 1,-1 2,-1 2,1 0,1 0,2 0,3 0,1 1,1 1,1 0,1 0,2 1,2 0,-1 0,-1 0,-2 1,-1 1,0 1,-1 0,-2 0,-3 0,-4 1,0 2,-1 2,0 1,0 1,1 1,4 3,3 1,2 2,3l2 -3c0,-1 0,-3 0,-4l0 -1c1,-3 0,-4 -1,-6 -1,0 -4,-3 -5,-3 0,-1 -13,0 -15,0z"/>
   <path class="fil13" d="M249 67c0,-1 1,-1 2,-2 0,0 3,-4 4,-3 0,0 3,3 4,4 1,0 1,0 1,1l-11 0zm12 -2c-1,0 -1,0 -2,-1 -5,-5 -4,-2 -1,-6 0,-1 0,-1 1,-1 1,1 2,7 2,8zm-12 0c0,-1 0,-3 1,-4 0,-2 0,-2 1,-3 1,0 1,1 2,2 1,1 1,1 -1,3 -2,1 -2,2 -3,2zm13 -6c0,1 2,7 2,8 -2,0 -2,-1 -2,-2l-1 -6c0,-1 -1,-1 -1,-3 2,1 1,1 2,3zm-7 1c-1,-1 -1,-1 -2,-2 -1,0 -1,0 -1,-1l5 0c0,1 -2,2 -2,3zm-7 -4c0,1 -1,0 1,1l-1 4c0,2 0,3 0,6 -1,0 0,0 -1,0l-1 0 0 1c0,0 18,0 20,0 0,-2 -1,0 -1,-2l-2 -8c-1,-2 0,-1 0,-3l-13 0c-1,0 -1,0 -2,1z"/>
   <path class="fil13" d="M287 146c1,0 0,0 1,-1 2,-2 4,-6 7,-7 5,-1 14,1 19,-6 1,-2 3,-6 3,-8 1,-2 0,-3 -1,-3 -3,1 -5,1 -7,1 -1,7 3,4 4,7 1,1 1,1 0,2 -1,2 -2,2 -3,3 -6,4 -12,1 -17,4 -2,1 -2,3 -4,4l-1 1c0,0 0,0 0,0l0 1c-1,1 -1,1 -1,2z"/>
   <path class="fil13" d="M287 132c1,0 4,0 5,0 0,1 0,1 -1,1 0,0 -4,1 -4,-1zm3 -3c0,0 0,-1 2,0 0,0 2,1 2,1 1,2 -2,1 -2,1 -2,0 -5,0 -2,-2zm5 1c-1,-1 0,0 -1,-1 0,0 0,-1 0,-1 -1,0 -2,0 -2,0 0,-2 1,-2 2,-2 1,1 2,2 3,2 -1,1 -1,1 -2,2zm0 -4c0,-3 3,-2 4,-1 0,1 -1,2 -2,2 0,0 0,0 -1,0 0,-1 -1,-1 -1,-1zm-4 12c0,-2 -2,-1 -1,-3 1,-1 1,0 3,-2 1,-1 2,-2 3,-3 6,-4 4,-5 4,-6 2,0 1,1 3,1 0,-3 -4,-2 -5,-2 -1,0 -1,-1 -2,0 -1,0 -2,1 -3,2 -2,1 -1,0 -3,2 -3,3 -6,5 -2,7 1,1 0,0 1,2 0,1 1,2 2,2z"/>
   <path class="fil13" d="M277 134c0,-1 0,-2 1,-2 4,0 2,2 1,3 -1,0 -1,0 -2,-1zm0 -5c1,0 4,0 3,1 0,2 -2,1 -3,1l0 -2zm0 -1c0,-1 -1,-1 1,-1 3,-1 3,1 1,1 0,0 -2,0 -2,0zm0 -2c0,-2 1,-3 3,-3 0,1 0,1 0,2l-3 1zm4 -3c0,-1 2,0 3,0 1,0 1,0 1,0 1,0 0,0 1,-1 -1,0 -1,0 -2,0 -2,0 -3,-1 -5,0 -3,2 -3,3 -3,6 0,5 -1,6 2,8 3,2 1,2 8,2l0 -1c-2,-1 -5,1 -6,-1 0,-1 1,-1 1,-3l0 -7c0,-2 0,-2 0,-3z"/>
   <path class="fil13" d="M224 55c0,-3 1,-3 7,-3 3,0 3,0 4,1l0 10c-1,1 -1,1 -3,1l-6 0c-1,0 -1,0 -2,-1l0 -8zm-1 0c0,1 0,7 0,8 1,2 4,2 7,2 1,0 4,0 5,0 1,-1 1,-4 1,-5 0,-1 0,-6 0,-7 0,-1 -1,-1 -1,-1l-8 -1c-3,0 -4,1 -4,4z"/>
   <path class="fil13" d="M267 77c0,0 0,-1 0,-2 0,-1 0,-1 -1,-2 0,-1 0,-2 0,-2 0,-1 0,-1 0,-2l-17 0c-1,0 -3,0 -3,1 0,1 1,-1 0,3 0,1 0,2 0,3 0,1 -1,3 0,3 1,-2 1,-7 2,-9l14 0c1,1 1,3 1,4 1,3 0,4 2,4 0,-3 -2,-6 -2,-8 3,0 2,6 4,7z"/>
   <path class="fil13" d="M306 62c0,3 0,3 -2,3 -2,0 -2,-1 -2,-2 0,-1 0,-2 4,-1zm-5 2l-3 1c0,-3 0,-3 2,-3 2,0 2,0 1,2zm-4 0c-1,1 -3,1 -4,0 0,-3 0,-3 4,-2 0,1 0,2 0,2zm-3 2l13 0c1,-1 0,-3 0,-5 -2,-1 -6,0 -8,0 -8,0 -7,-1 -7,3 0,2 0,2 2,2z"/>
   <path class="fil13" d="M287 62c0,1 0,1 0,2 -1,1 -1,1 -2,1 -1,0 -1,-1 -1,-2 -1,-1 -1,-1 1,-1 0,0 1,0 2,0zm-5 0l0 1c1,2 0,2 -1,2 -2,0 -2,-1 -2,-2 0,-1 0,-2 3,-1 0,0 0,0 0,0zm-4 0c1,3 0,3 -2,3 -1,0 -1,-1 -2,-2 0,-2 2,-1 4,-1zm-5 1l1 2c2,0 12,1 14,0 0,0 0,0 0,-1 0,-4 1,-3 -8,-3l-5 0c-2,0 -2,0 -2,2z"/>
   <path class="fil13" d="M227 110c0,0 1,-1 1,-2 0,-2 5,-5 9,-2 0,0 1,1 1,1 4,8 -9,12 -11,3zm5 -6c-2,0 -3,1 -4,2 -4,5 1,11 7,10 6,-1 7,-8 2,-11 -1,-1 -4,-2 -5,-1z"/>
   <path class="fil13" d="M304 71c0,-1 1,-2 2,-1 1,0 1,2 1,2 -2,1 -3,1 -3,-1zm-3 0c0,-1 2,-2 2,0 1,2 -1,2 -2,1l0 -1zm-3 -1c1,-1 3,1 2,2 -1,1 -3,-1 -2,-2zm-1 -1c0,1 0,3 0,4 0,1 2,0 3,0l7 0c1,0 0,-4 0,-4 -1,0 -9,0 -10,0z"/>
   <path class="fil13" d="M310 83c2,-1 1,0 3,0 0,-3 -4,-2 -4,1 0,2 1,4 3,3 1,0 1,0 1,-1l0 0c1,0 1,0 1,0 1,1 1,1 3,1 0,-1 0,-1 0,-3l-1 0c0,2 1,0 0,2 -1,0 -1,0 -1,0 0,-1 -1,-1 -1,-2 1,-2 2,-1 3,-1 0,-2 -2,-3 -4,0l0 1 -1 0c0,1 0,1 0,2 -2,0 -2,-1 -2,-3z"/>
   <path class="fil13" d="M293 86c-1,0 0,0 -1,-1 0,0 -1,-3 2,-2 0,0 0,0 0,1 0,2 -1,2 -1,2zm3 -3c2,-1 2,0 2,-2l-2 0 -1 2c-1,-1 0,-1 -1,-1 -1,-2 -3,0 -3,2 0,1 0,3 1,3 1,0 2,0 2,0l1 -1c0,-1 0,1 0,0l0 0c0,0 0,0 1,0 0,1 -1,0 0,1l0 -1c1,-2 1,0 2,-2 0,0 0,0 0,0 0,0 0,0 0,0 0,0 -1,0 -1,0 0,0 0,0 0,0 -1,-1 0,0 -1,-1z"/>
   <path class="fil13" d="M233 85c0,1 1,2 2,2 1,0 1,0 1,-1l1 0c1,0 0,0 1,1 2,0 3,0 3,-2 -2,0 -1,0 -1,1 -2,1 -2,-1 -2,-1 0,-1 0,-1 0,-2 1,-1 1,0 2,0 0,-2 -1,-3 -3,-1 0,1 0,1 0,2 0,0 0,0 0,1 -1,-1 -1,-1 -2,-1 0,-1 0,0 -1,-1l2 0c0,-3 -3,-1 -3,0 0,2 2,1 2,3 -1,1 0,0 -2,-1z"/>
   <path class="fil13" d="M266 85c0,-1 0,-3 1,-2 2,0 1,2 1,3 -1,0 -1,0 -2,-1zm2 2c1,0 1,-1 2,-2l0 1c0,0 0,0 0,0 0,1 2,1 2,1 1,0 1,0 1,-1 -2,0 -2,1 -2,-1 0,-1 0,-2 0,-3 -1,0 -1,0 -1,0l-1 1c0,-1 0,0 0,-1 -2,-2 -3,0 -4,1 0,1 0,2 1,3 1,1 1,1 2,1z"/>
   <path class="fil13" d="M308 119l0 2c2,0 8,0 9,-1l0 -2c-2,0 -1,1 -4,1 -2,0 -3,0 -5,0z"/>
   <path class="fil13" d="M245 86c2,2 2,-3 4,1l2 0 0 -4c0,-2 1,-1 0,-1 -1,0 -1,-1 -1,2 0,1 1,1 0,2 -1,0 0,0 -1,-2 0,-2 0,-2 -1,-2 -1,1 -1,2 -2,4l-1 0z"/>
   <path class="fil13" d="M306 103c-1,0 -2,1 -1,2 2,5 5,-3 2,-3 -1,0 -1,1 -1,1z"/>
   <path class="fil13" d="M245 85c0,-1 0,-1 0,-2 0,-1 0,-1 0,-1 -1,0 -1,0 -1,2 -2,0 0,-2 -2,-2 0,0 0,0 0,0l0 2 1 1 0 2c2,0 1,-1 2,-2l0 0z"/>
   <path class="fil13" d="M306 85c0,0 0,0 0,0 2,1 0,2 2,2 0,-1 0,-2 0,-3 0,-3 0,-2 0,-2 -1,1 0,1 -1,2 -1,0 0,-2 -2,-2 0,1 0,2 0,3 0,1 -1,2 1,2l0 -2z"/>
   <path class="fil13" d="M302 83c0,-1 1,0 2,-1 0,-1 0,-1 -1,-1 -2,0 -2,1 -2,2 0,1 0,3 0,4 1,0 3,0 3,0 -1,-1 -1,0 -2,-1 0,-1 0,-1 1,-1 1,-1 1,0 1,-1 -1,-1 -2,0 -2,-1z"/>
   <path class="fil13" d="M310 104c0,1 0,2 1,3 1,0 2,-1 2,-1 1,-2 0,-2 0,-3 -2,-1 -2,0 -3,1z"/>
   <path class="fil13" d="M278 83c1,-1 2,0 2,-2 -1,0 -2,0 -3,1 0,1 0,2 0,3 0,2 0,2 2,2 1,0 1,0 1,0l-1 -1c-1,0 -1,1 -1,-1 1,0 1,0 2,-1 -1,-1 -2,1 -2,-1z"/>
   <path class="fil13" d="M226 73c1,0 7,1 8,0 0,-1 0,-1 -4,-1 -3,0 -4,0 -4,1z"/>
   <path class="fil13" d="M222 87c0,-3 -2,-2 -1,-4 1,-1 1,-1 1,-1 -2,0 -1,1 -2,1 -1,-1 0,-1 -1,-1l0 4c0,1 0,1 0,1 0,0 0,0 0,-1 0,0 0,0 0,0 0,0 0,-1 0,-1 3,0 1,2 3,2z"/>
   <path class="fil13" d="M253 83c-1,-1 1,-1 -1,-1 0,2 1,0 1,5l1 0c0,-2 0,-2 0,-3 1,-2 1,-1 1,-2 -2,0 0,1 -2,1z"/>
   <path class="fil13" d="M228 87c0,0 0,0 1,-1 0,0 0,0 0,-2 0,-2 1,-2 -1,-2 0,1 0,3 0,4l-2 0c0,1 1,1 2,1z"/>
   <path class="fil13" d="M286 83c1,-1 1,0 2,-1 0,-1 -1,-1 -3,0l0 3c1,0 2,0 2,0 1,0 1,0 1,-1 -1,-1 -1,0 -2,-1z"/>
   <path class="fil13" d="M311 118c0,-1 0,-2 0,-2 -1,-1 -1,-1 -2,-1 0,3 0,3 2,3z"/>
   <path class="fil13" d="M284 87c1,-1 1,-2 0,-3l-1 0c0,2 0,0 0,2 -2,0 0,0 -2,-1 0,2 1,3 3,2z"/>
   <path class="fil13" d="M313 114c0,1 0,3 0,3 2,2 2,-3 1,-3 -1,0 -1,0 -1,0z"/>
   <path class="fil13" d="M274 82c-1,0 0,3 0,4 0,2 2,1 2,1 0,-1 0,-1 -1,-1 -1,0 -1,0 -1,-1 0,-3 1,-3 0,-3z"/>
   <path class="fil13" d="M255 87c2,-1 1,-2 2,-1 1,0 0,0 2,0l-1 -2c-1,0 0,1 -1,1 -1,0 0,-1 -1,-1l-1 3z"/>
   <path class="fil13" d="M315 34c0,-2 -2,-3 -3,-3 0,1 0,1 1,2 1,0 1,1 2,1z"/>
   <path class="fil13" d="M265 85c-2,1 -1,2 -3,0l0 2c0,0 0,0 2,0 0,0 1,-1 1,-2z"/>
   <path class="fil13" d="M281 83c2,0 0,-1 2,0 1,0 1,0 1,0 0,-2 -3,-2 -3,0z"/>
   <path class="fil13" d="M262 83c0,0 0,0 0,0 1,-1 1,0 2,0 0,-3 -2,-2 -2,0z"/>
   <path class="fil13" d="M312 33c-1,-1 -1,-1 -2,-1 0,1 1,3 2,2 1,0 0,-1 0,-1z"/>
   <path class="fil13" d="M287 86c-1,0 0,0 -2,0l0 1c2,0 3,0 3,0l0 -1c-1,0 1,1 -1,0 0,0 0,0 0,0z"/>
   <path class="fil13" d="M310 37c1,-1 0,-2 0,-3l-1 0c0,1 0,2 1,3z"/>
   <path class="fil13" d="M258 82c-2,0 -2,0 -2,2l2 0 0 -2z"/>
   <path class="fil13" d="M239 73c3,1 -1,-3 0,0z"/>
   <path class="fil13" d="M314 66l1 0 0 -1c-1,0 -1,0 -1,1z"/>
   <path class="fil13" d="M314 35c-1,0 -1,0 -1,1l1 0 0 -1z"/>
   <path class="fil13" d="M314 69c2,0 2,0 2,-1 -2,0 -1,0 -2,1z"/>
   <path class="fil13" d="M314 61c2,0 2,0 2,-1 -2,0 -1,0 -2,1z"/>
   <path class="fil13" d="M317 36c1,0 1,0 2,-1 -2,0 -2,0 -2,1z"/>
   <path class="fil13" d="M228 70l1 1 0 -2c-1,1 -1,0 -1,1z"/>
   <path class="fil13" d="M226 71c1,-1 1,0 1,-1 0,-1 0,-1 -1,-1l0 2z"/>
   <path class="fil13" d="M316 64l1 0 0 -1c-1,0 -1,0 -1,1z"/>
   <path class="fil13" d="M307 36c1,1 1,1 2,0 -1,-1 -1,-1 -2,0z"/>
  </g>
 </g>
</svg>
