<?xml version="1.0" encoding="UTF-8"?>
<!DOCTYPE svg PUBLIC "-//W3C//DTD SVG 1.1//EN" "http://www.w3.org/Graphics/SVG/1.1/DTD/svg11.dtd">
<!-- Creator: CorelDRAW X7 -->
<svg xmlns="http://www.w3.org/2000/svg" xml:space="preserve" width="4.01666in" height="4.62666in" version="1.1" style="shape-rendering:geometricPrecision; text-rendering:geometricPrecision; image-rendering:optimizeQuality; fill-rule:evenodd; clip-rule:evenodd"
viewBox="0 0 4017 4627"
 xmlns:xlink="http://www.w3.org/1999/xlink">
 <defs>
  <style type="text/css">
   <![CDATA[
    .fil0 {fill:#FEFEFE}
   ]]>
  </style>
 </defs>
 <g id="Layer_x0020_1">
  <metadata id="CorelCorpID_0Corel-Layer"/>
  <path class="fil0" d="M1151 3214c-515,6 -1080,54 -1145,548 -74,560 477,762 1011,683 544,-80 662,-472 647,-1048 -14,-566 -30,-1135 -42,-1701l1781 114 110 1580c-360,-7 -674,-26 -942,151 -238,156 -367,497 -163,783 339,474 1230,348 1495,-85 279,-457 -38,-3351 -62,-4121l-2755 -118 65 3214zm2247 -1996l-46 -582 -1743 -124c7,719 -97,631 590,653 402,13 798,41 1199,53z"/>
 </g>
</svg>
