<?xml version="1.0" encoding="UTF-8"?>
<!DOCTYPE svg PUBLIC "-//W3C//DTD SVG 1.1//EN" "http://www.w3.org/Graphics/SVG/1.1/DTD/svg11.dtd">
<!-- Creator: CorelDRAW X7 -->
<svg xmlns="http://www.w3.org/2000/svg" xml:space="preserve" width="11.7467in" height="9.75666in" version="1.1" style="shape-rendering:geometricPrecision; text-rendering:geometricPrecision; image-rendering:optimizeQuality; fill-rule:evenodd; clip-rule:evenodd"
viewBox="0 0 11747 9757"
 xmlns:xlink="http://www.w3.org/1999/xlink">
 <defs>
  <style type="text/css">
   <![CDATA[
    .str10 {stroke:#2B2A29;stroke-width:49.1654;stroke-linecap:round;stroke-linejoin:round}
    .str19 {stroke:#2B2A29;stroke-width:49.1654;stroke-linecap:round;stroke-linejoin:round}
    .str15 {stroke:#2B2A29;stroke-width:49.1654;stroke-linecap:round;stroke-linejoin:round}
    .str21 {stroke:#2B2A29;stroke-width:49.1654;stroke-linecap:round;stroke-linejoin:round}
    .str22 {stroke:#2B2A29;stroke-width:49.1654;stroke-linecap:round;stroke-linejoin:round}
    .str8 {stroke:#2B2A29;stroke-width:49.1654;stroke-linecap:round;stroke-linejoin:round}
    .str17 {stroke:#2B2A29;stroke-width:49.1654;stroke-linecap:round;stroke-linejoin:round}
    .str5 {stroke:#2B2A29;stroke-width:49.1654;stroke-linecap:round;stroke-linejoin:round}
    .str11 {stroke:#2B2A29;stroke-width:49.1654;stroke-linecap:round;stroke-linejoin:round}
    .str9 {stroke:#2B2A29;stroke-width:49.1654;stroke-linecap:round;stroke-linejoin:round}
    .str36 {stroke:#FEFEFE;stroke-width:49.1654;stroke-linecap:round;stroke-linejoin:round}
    .str6 {stroke:#2B2A29;stroke-width:49.1654;stroke-linecap:round;stroke-linejoin:round}
    .str26 {stroke:#2B2A29;stroke-width:49.1654;stroke-linecap:round;stroke-linejoin:round}
    .str12 {stroke:#2B2A29;stroke-width:49.1654;stroke-linecap:round;stroke-linejoin:round}
    .str29 {stroke:#2B2A29;stroke-width:49.1654;stroke-linecap:round;stroke-linejoin:round}
    .str7 {stroke:#2B2A29;stroke-width:49.1654;stroke-linecap:round;stroke-linejoin:round}
    .str14 {stroke:#2B2A29;stroke-width:49.1654;stroke-linecap:round;stroke-linejoin:round}
    .str3 {stroke:#2B2A29;stroke-width:49.1654;stroke-linecap:round;stroke-linejoin:round}
    .str25 {stroke:#2B2A29;stroke-width:49.1654;stroke-linecap:round;stroke-linejoin:round}
    .str24 {stroke:#2B2A29;stroke-width:49.1654;stroke-linecap:round;stroke-linejoin:round}
    .str18 {stroke:#2B2A29;stroke-width:49.1654;stroke-linecap:round;stroke-linejoin:round}
    .str16 {stroke:#2B2A29;stroke-width:49.1654;stroke-linecap:round;stroke-linejoin:round}
    .str20 {stroke:#2B2A29;stroke-width:49.1654;stroke-linecap:round;stroke-linejoin:round}
    .str23 {stroke:#2B2A29;stroke-width:49.1654;stroke-linecap:round;stroke-linejoin:round}
    .str27 {stroke:#2B2A29;stroke-width:49.1654;stroke-linecap:round;stroke-linejoin:round}
    .str13 {stroke:#2B2A29;stroke-width:49.1654;stroke-linecap:round;stroke-linejoin:round}
    .str28 {stroke:#2B2A29;stroke-width:49.1654;stroke-linecap:round;stroke-linejoin:round}
    .str34 {stroke:#FEFEFE;stroke-width:49.1654;stroke-linecap:round;stroke-linejoin:round}
    .str4 {stroke:#2B2A29;stroke-width:49.1654;stroke-linecap:round;stroke-linejoin:round}
    .str35 {stroke:#FEFEFE;stroke-width:49.1654;stroke-linecap:round;stroke-linejoin:round}
    .str32 {stroke:#2B2A29;stroke-width:49.1732;stroke-linecap:round;stroke-linejoin:round}
    .str2 {stroke:#2B2A29;stroke-width:49.1732;stroke-linecap:round;stroke-linejoin:round}
    .str33 {stroke:#2B2A29;stroke-width:49.1732;stroke-linecap:round;stroke-linejoin:round}
    .str30 {stroke:#2B2A29;stroke-width:49.1732;stroke-linecap:round;stroke-linejoin:round}
    .str0 {stroke:#2B2A29;stroke-width:49.1732;stroke-linecap:round;stroke-linejoin:round}
    .str31 {stroke:#2B2A29;stroke-width:49.1732;stroke-linecap:round;stroke-linejoin:round}
    .str1 {stroke:#2B2A29;stroke-width:49.1732;stroke-linecap:round;stroke-linejoin:round}
    .fil2 {fill:none}
    .fil1 {fill:#FEFEFE}
    .fil0 {fill:#5B5B5B}
    .fil5 {fill:#434242}
    .fil4 {fill:#434242}
    .fil3 {fill:#2B2A29}
    .fil6 {fill:#2B2A29;fill-rule:nonzero}
   ]]>
  </style>
 </defs>
 <g id="Layer_x0020_1">
  <metadata id="CorelCorpID_0Corel-Layer"/>
  <g id="_1000214625120">
   <polygon class="fil0 str0" points="11136,5141 2843,7777 2967,8561 3481,9234 3419,9757 11746,7104 11723,6581 11136,5923 "/>
   <polygon class="fil1 str1" points="11046,6350 3593,8755 3889,9102 3879,9197 11342,6805 11342,6698 "/>
   <polygon class="fil2 str2" points="11124,5923 2954,8561 3476,9235 11725,6580 "/>
   <polygon class="fil3 str3" points="10361,6571 10402,6557 10600,6813 10562,6827 "/>
   <polygon class="fil3 str4" points="10086,6660 10127,6646 10325,6902 10287,6916 "/>
   <polygon class="fil3 str5" points="10535,6515 10577,6501 10774,6757 10736,6771 "/>
   <polygon class="fil3 str6" points="10838,6417 10879,6403 11077,6659 11039,6673 "/>
   <polygon class="fil3 str7" points="9713,6780 9754,6767 9951,7022 9914,7036 "/>
   <polygon class="fil3 str8" points="9319,6907 9360,6894 9558,7149 9520,7163 "/>
   <polygon class="fil3 str9" points="8978,7017 9020,7003 9217,7259 9179,7273 "/>
   <polygon class="fil3 str10" points="8851,7058 8892,7045 9093,7304 9055,7318 "/>
   <polygon class="fil3 str11" points="8530,7162 8571,7148 8769,7404 8731,7418 "/>
   <polygon class="fil3 str12" points="8330,7226 8371,7213 8569,7468 8531,7482 "/>
   <polygon class="fil3 str13" points="7997,7334 8038,7320 8236,7576 8198,7590 "/>
   <polygon class="fil3 str14" points="7734,7418 7775,7405 7973,7661 7935,7675 "/>
   <polygon class="fil3 str15" points="7567,7473 7608,7459 7805,7715 7768,7729 "/>
   <polygon class="fil3 str16" points="7320,7552 7361,7539 7558,7794 7521,7808 "/>
   <polygon class="fil3 str17" points="7184,7596 7225,7582 7423,7838 7385,7852 "/>
   <polygon class="fil3 str18" points="6892,7690 6933,7677 7131,7932 7093,7946 "/>
   <polygon class="fil3 str19" points="6697,7753 6738,7739 6939,7998 6901,8012 "/>
   <polygon class="fil3 str20" points="6420,7843 6461,7829 6658,8085 6621,8099 "/>
   <polygon class="fil3 str21" points="6171,7922 6212,7908 6409,8164 6372,8178 "/>
   <polygon class="fil3 str22" points="5814,8038 5855,8024 6052,8280 6015,8294 "/>
   <polygon class="fil3 str23" points="5565,8117 5606,8104 5803,8359 5766,8374 "/>
   <polygon class="fil3 str24" points="5216,8231 5258,8217 5455,8473 5417,8487 "/>
   <polygon class="fil3 str25" points="5042,8287 5083,8273 5281,8529 5243,8543 "/>
   <polygon class="fil3 str26" points="4616,8424 4657,8410 4855,8666 4817,8680 "/>
   <polygon class="fil3 str27" points="4367,8503 4408,8489 4606,8745 4568,8759 "/>
   <polygon class="fil3 str28" points="4125,8597 4166,8583 4367,8842 4330,8856 "/>
   <polygon class="fil3 str29" points="3880,8679 3921,8666 4118,8921 4081,8935 "/>
   <path class="fil4 str30" d="M10805 2894c-34,-45 -144,5 -168,56 -98,202 -95,439 -155,656 -91,325 -343,630 -265,958 64,265 253,604 463,431 362,-298 515,-779 509,-1248 -4,-296 -204,-618 -384,-853z"/>
   <path class="fil4 str31" d="M11136 5141c-2678,850 -5503,1781 -8182,2631 -128,-122 -351,-346 -426,-571l-137 -413c-227,-549 427,-1442 685,-1931 644,-1150 269,-1785 449,-2820 -525,73 -1552,-158 -1552,-1147 644,383 1341,-209 1810,247 -5,-526 611,-456 526,-1136 402,-27 613,344 669,630 64,331 -113,642 -375,834 2820,117 5252,2743 6533,3676z"/>
   <path class="fil1" d="M3603 2624c4,-501 250,-810 239,-838 -12,-27 -284,336 -273,850 12,513 41,783 6,1089 -35,306 -158,640 -190,770 -33,131 4,32 59,-84 55,-116 127,-406 160,-703 34,-296 -4,-584 -1,-1084z"/>
   <path class="fil1" d="M4621 189c-65,-78 -103,-62 -42,0 60,62 206,237 251,400 45,163 7,307 -70,453 -77,147 -238,309 -300,384 -63,75 -20,62 52,0 72,-63 223,-219 300,-366 78,-148 115,-308 70,-474 -45,-166 -197,-319 -261,-397z"/>
   <path class="fil1" d="M2302 1088c-207,-92 -327,-123 -190,-46 35,20 105,53 185,87 144,62 808,-84 970,-71 70,5 308,19 544,239 71,67 73,15 5,-52 -188,-185 -442,-222 -548,-225 -177,-5 -839,124 -966,68z"/>
   <path class="fil1" d="M6485 2091c-65,-15 -119,-107 35,-70 853,206 3728,2262 4179,2934 3,4 66,195 -3,87 -361,-568 -3236,-2728 -4211,-2951z"/>
   <path class="fil1" d="M11067 5205c-2505,780 -5015,1646 -7504,2428 -41,12 68,27 108,15 2470,-769 4968,-1595 7425,-2405 21,-7 -8,-44 -29,-38z"/>
   <path class="fil1" d="M11102 5237c0,-6 -25,-31 -25,-25 -7,223 -7,451 0,674 0,7 21,7 21,0 7,-223 11,-426 4,-649z"/>
   <path class="fil4 str32" d="M2426 7361c-96,9 -228,52 -322,27 -228,-61 -426,-231 -654,-296 -246,-69 -486,-36 -732,-106 -245,-70 -659,-471 -707,-221 -81,416 327,821 665,1076 391,297 1263,305 1750,244l0 -724z"/>
   <path class="fil5 str33" d="M2954 7772l-610 -1212c0,516 -85,1266 -22,1649 100,603 666,1152 1097,1548 0,0 59,-508 62,-523 0,0 -514,-673 -514,-673 0,0 -11,-784 -13,-789z"/>
   <path class="fil2 str34" d="M2129 8006c-400,53 -910,-25 -1237,-156 -326,-132 -567,-438 -749,-715"/>
   <path class="fil2 str35" d="M10825 3089c129,189 242,288 273,652 31,364 -171,908 -293,995"/>
   <line class="fil2 str36" x1="11136" y1="6927" x2="4667" y2= "9001" />
   <g>
    <polygon class="fil1" points="7719,6461 6371,6893 6371,7241 7719,6810 "/>
    <path id="1" class="fil6" d="M6378 6916l-32 -23 18 -24 1348 -431 15 47 -1349 431zm-14 -47l14 47c-13,4 -26,-3 -31,-16 -4,-13 4,-27 17,-31zm32 372l-18 24 -32 -24 0 -348 50 0 0 348zm-50 0l50 0c0,14 -11,25 -25,25 -14,0 -25,-11 -25,-25zm1366 -455l32 23 -17 24 -1349 432 -14 -47 1348 -432zm15 47l-15 -47c13,-4 27,3 31,16 4,13 -3,27 -16,31zm-32 -372l17 -23 32 23 0 348 -49 1 0 -349zm49 0l-49 0c0,-13 11,-24 24,-25 14,0 25,11 25,25z"/>
   </g>
  </g>
 </g>
</svg>
